<svg preserveAspectRatio="none" width="100%" height="100%" overflow="visible" style="display: block;" viewBox="0 0 60.3146 61" fill="none" xmlns="http://www.w3.org/2000/svg">
<g id="via-transportation-inc-vector-logo 1">
<path id="Vector" d="M6.54951 19.2167C9.25072 17.3549 12.8492 16.9245 15.9205 18.094C19.4265 19.3664 22.0907 22.7064 22.618 26.4394C22.766 27.5247 22.9325 28.8064 22.1092 29.6859C21.1564 30.846 19.186 30.7244 18.3627 29.4988C17.6689 28.61 18.0296 27.3937 17.6504 26.3926C16.9751 24.0256 14.6346 22.2761 12.1739 22.3883C9.85202 22.407 7.6966 24.0911 7.0213 26.3365C6.54951 25.3728 5.57819 24.6524 4.4866 24.6524C3.57078 24.615 2.71972 25.1109 2.12767 25.7939C2.72897 23.1368 4.30159 20.7324 6.54951 19.2167ZM45.8373 27.4779C47.9002 25.2044 51.5172 24.7086 54.1259 26.2991C56.0778 27.4592 57.3914 29.6578 57.4284 31.95C57.4469 33.7931 57.4284 35.6081 57.4469 37.4325C57.4654 38.2652 56.6976 39.0043 55.8928 38.9669C55.2915 38.9669 54.6162 38.5459 54.5052 37.9471C54.4497 35.9543 54.5052 33.9428 54.4497 31.95C54.3757 30.163 52.8956 28.5913 51.1287 28.4416C49.5561 28.2544 47.9187 29.1994 47.3266 30.6776C46.6143 32.2307 47.1601 34.2422 48.5477 35.2245C49.6578 36.0759 51.2119 36.1508 52.4515 35.5426C52.8863 35.842 53.3118 36.1695 53.7651 36.4876C53.7466 37.077 53.7096 37.6851 53.7096 38.2745C50.8604 39.8089 47.0491 38.7704 45.2545 36.0946C43.3581 33.5498 43.6448 29.7233 45.8373 27.4779Z" fill="var(--fill-0, black)"/>
<path id="Vector_2" d="M1.94264 27.9738C1.96114 26.9353 2.72895 25.9436 3.74652 25.7004C4.73635 25.4197 5.88344 25.8688 6.41073 26.7857C6.95652 27.637 6.66975 28.7036 7.01202 29.6298C7.66882 32.053 10.0833 33.8212 12.5809 33.6715C14.8659 33.6154 16.9843 31.9688 17.6411 29.7421C18.0944 30.7432 19.1397 31.4636 20.2498 31.4449C21.1101 31.4636 21.8964 30.9864 22.4977 30.3783C22.0074 32.2962 21.0731 34.0926 19.667 35.4959C17.2248 37.9378 14.7549 40.3703 12.2757 42.7935C9.83349 40.3516 7.38205 37.9004 4.95837 35.4398C3.02497 33.4938 1.88713 30.7432 1.94264 27.9738ZM26.9936 26.4395C27.6319 25.6255 29.075 25.7565 29.5282 26.7015C30.5828 29.0311 31.5727 31.4074 32.618 33.737C33.6448 31.4074 34.6624 29.0311 35.7077 26.7015C36.235 25.5975 37.9741 25.663 38.4459 26.7763C38.8252 27.4406 38.4644 28.1797 38.1314 28.7691C36.7993 31.7817 35.4672 34.8223 34.1536 37.8536C33.9501 38.312 33.6633 38.7611 33.1823 38.9576C32.433 39.2757 31.4986 38.8827 31.1934 38.1249C29.7873 34.9346 28.4182 31.7162 26.9751 28.5446C26.5588 27.9177 26.4663 27.0289 26.9936 26.4395ZM40.9251 25.9623C41.6374 25.7004 42.4792 26.0372 42.8215 26.7202C43.099 27.216 42.9325 27.8054 42.951 28.3294V37.2642C42.9695 37.9097 42.729 38.6114 42.1277 38.8921C41.2304 39.4441 39.8983 38.705 39.9168 37.6384V27.3844C39.9075 26.7389 40.3423 26.1775 40.9251 25.9623Z" fill="var(--fill-0, black)"/>
</g>
</svg>
