<svg width="81" height="36" viewBox="0 0 81 36" fill="none" xmlns="http://www.w3.org/2000/svg">
<path d="M6.70374 2.49234C10.6328 -0.125831 15.867 -0.731036 20.3342 0.913544C25.4339 2.70285 29.3091 7.39977 30.0761 12.6493C30.2914 14.1754 30.5336 15.9779 29.336 17.2146C27.9501 18.846 25.084 18.675 23.8865 16.9515C22.8773 15.7016 23.4021 13.9912 22.8504 12.5835C21.8682 9.25485 18.4639 6.79456 14.8847 6.95244C11.5074 6.97875 8.37223 9.34695 7.38997 12.5045C6.70374 11.1494 5.2909 10.1363 3.70314 10.1363C2.37104 10.0837 1.13313 10.781 0.271971 11.7415C1.14658 8.00497 3.43403 4.62371 6.70374 2.49234ZM63.8496 14.1097C66.8502 10.9126 72.1113 10.2153 75.9057 12.4519C78.7449 14.0833 80.6556 17.1751 80.7094 20.3985C80.7363 22.9904 80.7094 25.5428 80.7363 28.1083C80.7632 29.2793 79.6464 30.3186 78.4758 30.266C77.6012 30.266 76.6189 29.674 76.4574 28.8319C76.3767 26.0296 76.4574 23.2009 76.3767 20.3985C76.269 17.8856 74.1162 15.6753 71.5462 15.4648C69.2587 15.2017 66.8771 16.5305 66.0159 18.6092C64.9798 20.7932 65.7737 23.6219 67.792 25.0033C69.4067 26.2006 71.6672 26.3058 73.4703 25.4507C74.1027 25.8717 74.7217 26.3322 75.381 26.7795C75.3541 27.6084 75.3002 28.4635 75.3002 29.2924C71.1559 31.4501 65.6122 29.9897 63.0019 26.2269C60.2435 22.6483 60.6606 17.2672 63.8496 14.1097Z" fill="black"/>
<path d="M0.0028236 14.8071C0.0297348 13.3467 1.14655 11.9521 2.62666 11.61C4.06641 11.2153 5.7349 11.8468 6.50187 13.1362C7.29575 14.3334 6.87862 15.8333 7.37648 17.1358C8.33183 20.5434 11.8437 23.03 15.4767 22.8195C18.8003 22.7405 21.8816 20.4249 22.8369 17.2937C23.4963 18.7014 25.0167 19.7145 26.6314 19.6882C27.8828 19.7145 29.0265 19.0435 29.9011 18.1883C29.188 20.8854 27.829 23.4115 25.7837 25.385C22.2314 28.8189 18.6388 32.2396 15.0327 35.6472C11.4804 32.2133 7.9147 28.7662 4.38934 25.3061C1.57713 22.5695 -0.0779099 18.7014 0.0028236 14.8071ZM36.4405 12.6494C37.369 11.5047 39.468 11.6889 40.1274 13.0178C41.6613 16.2938 43.101 19.6355 44.6215 22.9115C46.1151 19.6355 47.5952 16.2938 49.1157 13.0178C49.8826 11.4653 52.4123 11.5574 53.0985 13.123C53.6502 14.0571 53.1254 15.0965 52.641 15.9254C50.7034 20.1618 48.7658 24.4377 46.8551 28.7005C46.5591 29.3451 46.142 29.9767 45.4423 30.253C44.3524 30.7003 42.9934 30.1477 42.5494 29.082C40.5041 24.5956 38.5127 20.0697 36.4136 15.6096C35.8081 14.7281 35.6736 13.4782 36.4405 12.6494ZM56.7046 11.9784C57.7407 11.61 58.9652 12.0836 59.463 13.0441C59.8667 13.7414 59.6245 14.5702 59.6514 15.307V27.8716C59.6783 28.7794 59.3285 29.7662 58.4538 30.1609C57.1487 30.9371 55.2111 29.8977 55.238 28.3979V13.9782C55.2245 13.0704 55.8569 12.281 56.7046 11.9784Z" fill="black"/>
</svg>
