<svg preserveAspectRatio="none" width="100%" height="100%" overflow="visible" style="display: block;" viewBox="0 0 32 32" fill="none" xmlns="http://www.w3.org/2000/svg">
<path id="Union" fill-rule="evenodd" clip-rule="evenodd" d="M16 0C16.6584 0 17.3075 0.039768 17.945 0.117032C16.1781 1.63596 15.059 3.88746 15.059 6.40032C15.059 6.54205 15.0625 6.68294 15.0696 6.82292C10.4125 7.28946 6.77656 11.2202 6.77656 16.0001C6.77656 21.0941 10.9061 25.2236 16.0001 25.2236C21.0941 25.2236 25.2236 21.0941 25.2236 16.0001C25.2236 15.4876 25.1818 14.985 25.1015 14.4953C27.633 13.9474 29.7334 12.2422 30.8212 9.96129C31.5812 11.8246 32 13.8634 32 16C32 24.8366 24.8366 32 16 32C7.16344 32 0 24.8366 0 16C0 7.16344 7.16344 0 16 0ZM23.3412 12.2354C26.5639 12.2354 29.1764 9.62288 29.1764 6.40014C29.1764 3.17739 26.5639 0.564844 23.3412 0.564844C20.1184 0.564844 17.5059 3.17739 17.5059 6.40014C17.5059 9.62288 20.1184 12.2354 23.3412 12.2354Z" fill="var(--fill-0, black)"/>
</svg>
