<svg preserveAspectRatio="none" width="100%" height="100%" overflow="visible" style="display: block;" viewBox="0 0 87.0111 14.1248" fill="none" xmlns="http://www.w3.org/2000/svg">
<g id="Rafael 2">
<path id="Path" d="M87.0111 7.06239C87.0111 3.16189 80.2335 7.62939e-06 71.8724 7.62939e-06C70.662 7.62939e-06 69.4862 0.0657529 68.3583 0.190844C69.1364 0.131498 69.9355 0.100953 70.7502 0.100953C78.9101 0.100953 85.5253 3.1872 85.5253 6.99403C85.5253 10.8009 78.9101 13.8865 70.7502 13.8865C68.5984 13.8865 66.5551 13.6718 64.7113 13.2858C66.8431 13.8214 69.2815 14.1248 71.8724 14.1248C80.2335 14.1248 87.0111 10.9629 87.0111 7.06239Z" fill="var(--fill-0, black)"/>
<path id="Path_2" d="M78.5828 2.02496C76.3464 1.22496 73.5475 0.749031 70.5105 0.749031C63.1787 0.749031 57.2353 3.52226 57.2353 6.94189C57.2353 10.363 62.726 13.1359 70.5105 13.1359C72.3247 13.1359 74.0531 12.966 75.628 12.6588C74.3187 12.8697 72.9126 12.9832 71.45 12.9832C64.3661 12.9832 58.6234 10.3045 58.6234 6.99949C58.6234 3.69506 64.3661 1.0155 71.45 1.0155C74.0902 1.01521 76.5433 1.38787 78.5828 2.02496Z" fill="var(--fill-0, black)"/>
<path id="Path_3" d="M63.0592 11.8343L67.3323 7.59109H63.5636V6.29218H67.3323L63.114 2.09001L64.5317 1.66266L69.4432 6.61654V0.843758L74.837 6.29218H79.9965L81.4826 6.94178L79.9965 7.67225H74.837L69.6094 13.0197L69.4432 13.0555V7.26614L64.5399 12.2098L63.0592 11.8343Z" fill="var(--fill-0, black)"/>
<path id="Shape" d="M34.8759 7.61891H30.7737L32.8062 3.62881L34.8759 7.61891ZM33.9237 1.58692H33.0481L27.2306 12.4823C27.4356 12.4669 27.6407 12.4823 27.8831 12.4823C28.1068 12.4823 28.3118 12.4669 28.5729 12.4823C29.0949 11.017 29.7664 9.86908 30.4189 8.49774H35.1561C35.9018 9.91592 36.5732 11.1881 37.1139 12.4823C37.4312 12.4669 37.7482 12.4823 38.102 12.4823C38.419 12.4823 39.1641 12.4669 39.5183 12.4823L33.9237 1.58692Z" fill="var(--fill-0, black)"/>
<path id="Shape_2" d="M0 12.4838C0.261033 12.4678 0.540629 12.4838 0.820804 12.4838C1.08126 12.4838 1.93339 12.4678 2.23183 12.4838V7.27768H2.34959L3.84183 8.74269L6.04205 11.1276C6.4336 11.5639 6.80658 12.0009 7.2167 12.4838C7.55227 12.4678 7.92555 12.4838 8.27968 12.4838C8.6344 12.4838 8.96997 12.4678 9.36152 12.4838L9.0068 12.0942L8.11233 11.2212L4.2705 7.15288C6.15429 6.87273 8.31681 6.22313 8.31681 4.41543C8.31681 2.84074 6.82544 1.82227 3.95349 1.82227H0V12.4838ZM2.23183 2.39885C3.01522 2.36773 3.69217 2.32089 4.38246 2.41398C5.78101 2.60132 6.4336 3.3027 6.4336 4.37819C6.4336 5.59419 5.40774 6.37353 4.04688 6.60713C3.09527 6.76306 2.49316 6.70051 2.23183 6.6851V2.39885Z" fill="var(--fill-0, black)"/>
<path id="Shape_3" d="M17.281 7.61891H13.1784L15.2113 3.62881L17.281 7.61891ZM16.3288 1.58692H15.4532L9.63561 12.4823C9.84038 12.4669 10.0457 12.4823 10.2882 12.4823C10.5118 12.4823 10.7169 12.4669 10.9779 12.4823C11.5 11.017 12.1714 9.86908 12.8246 8.49774H17.5612C18.3068 9.91592 18.9783 11.1881 19.5189 12.4823C19.8359 12.4669 20.1532 12.4823 20.5071 12.4823C20.8244 12.4823 21.5695 12.4669 21.9233 12.4823L16.3288 1.58692Z" fill="var(--fill-0, black)"/>
<path id="Path_4" d="M22.3904 12.4838C22.6511 12.4684 22.9307 12.4838 23.2109 12.4838C23.4713 12.4838 24.3235 12.4684 24.6222 12.4838V7.37659H29.0276V6.46721H24.6222V2.77907H25.4674H29.4565V1.82227H22.3901V12.4838H22.3904Z" fill="var(--fill-0, black)"/>
<path id="Path_5" d="M42.3359 2.77849H43.1811H47.1708V1.82227H40.1038V12.4364H47.2825V11.4804H42.3359V7.37659H44.6356H46.7413V6.46691H44.6356H42.3359V2.77849Z" fill="var(--fill-0, black)"/>
<path id="Path_6" d="M50.7847 1.82227C50.486 1.83769 49.6509 1.82227 49.3902 1.82227C49.1106 1.82227 48.8304 1.83769 48.5691 1.82227V12.4372H56.0268V11.4804H50.7847V1.82227Z" fill="var(--fill-0, black)"/>
</g>
</svg>
