<svg preserveAspectRatio="none" width="100%" height="100%" overflow="visible" style="display: block;" viewBox="0 0 34.6923 40.7504" fill="none" xmlns="http://www.w3.org/2000/svg">
<g id="g20">
<path id="path22" d="M20.1586 13.3834C20.1586 11.5203 18.3537 10.0097 16.3926 10.0097C14.3015 10.0097 12.6001 11.5203 12.6001 13.3834C12.6001 16.5653 15.8565 16.6522 15.8565 19.1422L15.8583 22.8484C15.8326 25.3009 12.6534 25.249 12.6534 28.6184C12.6534 30.4809 14.4584 31.9915 16.4183 31.9915C18.5124 31.9915 20.2119 30.4809 20.2119 28.6184C20.2119 25.4372 16.9023 25.3184 16.9023 22.8253V19.1503C16.9176 16.6878 20.1586 16.7565 20.1586 13.3834ZM27.1651 21.3015C31.1505 25.8422 32.7275 29.1509 31.8294 33.0703C28.6392 46.9984 0 39.2547 0 31.2272C0 27.4853 2.81154 25.0565 2.81154 19.9359C2.81154 12.8372 0.194829 10.2453 0.194829 7.1428C0.194829 5.2628 1.38586 4.36092 2.69819 3.52717C15.4766 -3.94033 32.9567 1.5303 34.5576 9.88842C35.3847 14.2065 32.3409 18.1453 27.1651 21.3015" fill="var(--fill-0, black)"/>
</g>
</svg>
