<svg width="51" height="75" viewBox="0 0 51 75" fill="none" xmlns="http://www.w3.org/2000/svg">
<path d="M29.3216 34.2087C29.3216 36.5376 26.6963 38.4259 23.8437 38.4259C20.8022 38.4259 18.3275 36.5376 18.3275 34.2087C18.3275 30.2314 23.064 30.1228 23.064 27.0103L23.0666 22.3775C23.0292 19.3118 18.405 19.3767 18.405 15.165C18.405 12.8368 21.0303 10.9486 23.8811 10.9486C26.9271 10.9486 29.3992 12.8368 29.3992 15.165C29.3992 19.1415 24.5852 19.29 24.5852 22.4064V27.0001C24.6074 30.0782 29.3216 29.9923 29.3216 34.2087ZM39.5129 24.3111C45.3098 18.6353 47.6037 14.4993 46.2972 9.60012C41.657 -7.81003 0 1.86966 0 11.904C0 16.5814 4.08951 19.6173 4.08951 26.0181C4.08951 34.8915 0.283388 38.1314 0.283388 42.0095C0.283388 44.3595 2.01579 45.4868 3.92464 46.529C22.5114 55.8634 47.937 49.0251 50.2655 38.5775C51.4686 33.1798 47.0414 28.2564 39.5129 24.3111Z" fill="black"/>
<path d="M32.0406 60.3128V62.7409H36.4675C37.8705 62.7409 38.5478 63.4628 38.5478 64.7972V69.5659H31.9197V71.9941H43.8697V69.5659H41.7652V64.8847C41.7652 63.5503 41.5716 62.9159 41.3056 62.3909C40.6282 61.0784 39.2736 60.3128 37.2658 60.3128H32.0406Z" fill="black"/>
<path d="M29.7795 60.3128H22.1837V62.7409H24.4334C23.8044 63.4847 23.49 64.3597 23.49 65.4753C23.49 66.1753 23.6109 66.9409 23.8286 67.8159C24.1431 69.1066 24.893 71.2722 25.1833 71.9941H28.7635C28.0136 70.2222 26.9492 67.6628 26.4896 66.0003C26.3444 65.4972 26.2477 64.9722 26.2477 64.5128C26.2477 63.5066 26.7073 62.7409 28.1587 62.7409H29.7795V60.3128Z" fill="black"/>
<path d="M20.1447 60.313H7.85599V62.763H16.7339L13.1537 72.0162H16.5162L20.1447 62.6974V60.313ZM11.1701 65.9787H7.95276V74.8162H11.1701V65.9787Z" fill="black"/>
</svg>
