<svg preserveAspectRatio="none" width="100%" height="100%" overflow="visible" style="display: block;" viewBox="0 0 81.8234 7.86661" fill="none" xmlns="http://www.w3.org/2000/svg">
<g id="vesttoo" opacity="0.4">
<path id="Shape" opacity="0.4" d="M10.6057 0L6.06306 7.86661H4.74661L0 0H2.16935L5.48827 5.70933L8.62178 0H10.6057ZM21.3041 7.86661H12.7936V0H21.2114V1.39479H14.7219V3.10573H18.5044V4.46332H14.7219V6.39743H21.3041V7.86661ZM33.0594 6.00689C33.0594 6.75078 32.9111 7.2467 32.6144 7.49466C32.3178 7.74263 31.7862 7.86661 31.0199 7.86661H25.921C25.0804 7.86661 24.5273 7.72713 24.2615 7.44817C23.9957 7.16921 23.8629 6.6144 23.8629 5.78372L25.5687 5.46757V6.39743H31.3351V4.5935H26.2547C25.4883 4.5935 24.963 4.47572 24.6787 4.24016C24.3573 3.9798 24.1966 3.47768 24.1966 2.73379V1.85972C24.1966 1.11583 24.3573 0.613708 24.6787 0.353346C24.963 0.117781 25.4883 0 26.2547 0H30.9086C31.6997 0 32.2405 0.12398 32.531 0.371944C32.8215 0.619907 32.9667 1.12823 32.9667 1.89691L31.3165 2.25026V1.41339H25.921V3.06853H31.0199C31.7862 3.06853 32.3178 3.18942 32.6144 3.43118C32.9111 3.67294 33.0594 4.17196 33.0594 4.92825V6.00689ZM44.8332 1.41339H41.0322V7.86661H39.1225V1.41339H35.34V0H44.8332V1.41339ZM56.1435 1.41339H52.3425V7.86661H50.4328V1.41339H46.6503V0H56.1435V1.41339ZM68.5663 6.00689C68.5663 6.75078 68.418 7.2467 68.1213 7.49466C67.8246 7.74263 67.2931 7.86661 66.5267 7.86661H60.4637C59.6973 7.86661 59.1658 7.74573 58.8691 7.50396C58.5725 7.2622 58.4241 6.76318 58.4241 6.00689V1.85972C58.4241 1.10343 58.5725 0.60441 58.8691 0.362645C59.1658 0.12088 59.6973 0 60.4637 0H66.5267C67.2931 0 67.8246 0.12088 68.1213 0.362645C68.418 0.60441 68.5663 1.10343 68.5663 1.85972V6.00689ZM66.6565 6.36024V1.45058H60.3339V6.36024H66.6565ZM81.8234 6.00689C81.8234 6.75078 81.6751 7.2467 81.3784 7.49466C81.0818 7.74263 80.5503 7.86661 79.7839 7.86661H73.7208C72.9544 7.86661 72.4229 7.74573 72.1263 7.50396C71.8296 7.2622 71.6813 6.76318 71.6813 6.00689V1.85972C71.6813 1.10343 71.8296 0.60441 72.1263 0.362645C72.4229 0.12088 72.9544 0 73.7208 0H79.7839C80.5503 0 81.0818 0.12088 81.3784 0.362645C81.6751 0.60441 81.8234 1.10343 81.8234 1.85972V6.00689ZM79.9137 6.36024V1.45058H73.591V6.36024H79.9137Z" fill="var(--fill-0, black)"/>
</g>
</svg>
