<svg width="128" height="22" viewBox="0 0 128 22" fill="none" xmlns="http://www.w3.org/2000/svg">
<path fill-rule="evenodd" clip-rule="evenodd" d="M127.049 0L126.246 2.01065L125.447 0H124.553V2.8086H125.127V0.542381L125.999 2.8086H126.499L127.364 0.542381V2.8086H127.938V0H127.049ZM121.359 0V0.468737H122.38V2.8086H123.001V0.468737H124.023V0H121.359ZM66.4072 10.5091C66.4072 6.7928 69.2023 3.79419 73.3952 3.79419C76.1616 3.79419 78.3294 4.94754 79.4417 7.22849L77.7875 7.89488C76.8747 6.33149 75.5627 5.35759 73.338 5.35759C70.4858 5.35759 68.3467 7.4592 68.3467 10.5091C68.3467 13.5846 70.4858 15.6606 73.4236 15.6606C75.5343 15.6606 76.8747 14.6867 77.7875 13.1233L79.4417 13.8153C78.3294 15.9682 76.2473 17.224 73.3952 17.224C69.2023 17.224 66.4072 14.2254 66.4072 10.5091ZM80.7851 10.5091C80.7851 6.76717 83.6373 3.79419 87.659 3.79419C90.1689 3.79419 92.0513 5.0756 92.7927 6.28011L93.0496 4.1017H94.7037V16.9165H93.0496L92.7927 14.6867C92.1083 15.9169 90.2259 17.224 87.659 17.224C83.6373 17.224 80.7851 14.251 80.7851 10.5091ZM93.0496 10.5091C93.0496 7.40793 90.8819 5.35759 87.9443 5.35759C84.8639 5.35759 82.7245 7.61301 82.7245 10.5091C82.7245 13.4053 84.8639 15.6606 87.9443 15.6606C90.8819 15.6606 93.0496 13.6102 93.0496 10.5091ZM98.4488 4.10159H100.074L100.303 6.10066C100.93 4.71683 102.271 3.79419 104.067 3.79419C105.123 3.79419 105.95 4.07607 106.606 4.48611L106.064 6.15204C105.38 5.69073 104.495 5.51117 103.782 5.51117C101.558 5.51117 100.331 7.12595 100.331 9.81705V16.9165H98.4488V4.10159ZM113.982 17.224C109.561 17.224 107.023 14.2766 107.023 10.5604C107.023 6.58773 109.846 3.79419 113.896 3.79419C118.175 3.79419 120.57 6.66463 120.57 10.2271C120.57 10.4322 120.57 10.714 120.513 10.9191H108.876C109.076 14.1997 111.358 15.6606 114.124 15.6606C116.435 15.6606 117.861 14.5841 118.574 13.1232L120.171 13.7128C119.344 15.558 117.347 17.224 113.982 17.224ZM108.905 9.58645H118.659C118.46 6.81844 116.492 5.35747 113.896 5.35747C111.329 5.35747 109.247 6.79292 108.905 9.58645Z" fill="black"/>
<path fill-rule="evenodd" clip-rule="evenodd" d="M9.07424 7.95751C8.53821 7.95675 8.01225 8.08829 7.55375 8.3378C7.09524 8.5873 6.72181 8.94518 6.4742 9.37237C6.22663 8.94517 5.85322 8.58729 5.39473 8.33778C4.93624 8.08827 4.41029 7.95673 3.87428 7.95751C2.25896 7.95751 0.949427 6.76998 0.949427 5.30519C0.949427 3.84007 2.25883 2.65265 3.87428 2.65265C5.00689 2.65265 5.98835 3.23663 6.47432 4.09034C6.96017 3.23663 7.94163 2.65265 9.07436 2.65265C10.6894 2.65265 11.9991 3.83995 11.9991 5.30519C11.9991 6.76998 10.6894 7.95751 9.07424 7.95751ZM6.5001 3.72529e-09C2.91034 3.72529e-09 0 2.63882 0 5.89446V8.70632C0 13.3386 4.14129 17.0941 9.24953 17.0941H10.0747C9.4674 16.6803 8.97522 16.1455 8.63687 15.5318C8.29852 14.9181 8.12324 14.2423 8.12481 13.5574C8.12481 11.1159 10.3072 9.13649 12.9996 9.13649V5.89457C12.9996 2.63894 10.0896 3.72529e-09 6.5001 3.72529e-09Z" fill="black"/>
<path fill-rule="evenodd" clip-rule="evenodd" d="M9.09993 13.5569C9.09993 15.5104 10.846 17.0939 13 17.0939V10.0202C10.846 10.0202 9.09993 11.6038 9.09993 13.5569ZM9.07428 4.42054C8.536 4.42054 8.09933 4.81631 8.09933 5.30472C8.09933 5.79325 8.536 6.1889 9.07428 6.1889C9.61255 6.1889 10.0492 5.79314 10.0492 5.30472C10.0492 4.81631 9.61255 4.42054 9.07428 4.42054ZM3.87445 4.42054C3.33617 4.42054 2.8995 4.81631 2.8995 5.30472C2.8995 5.79325 3.33617 6.1889 3.87445 6.1889C4.41272 6.1889 4.8494 5.79314 4.8494 5.30472C4.8494 4.81631 4.41272 4.42054 3.87445 4.42054Z" fill="black"/>
<path fill-rule="evenodd" clip-rule="evenodd" d="M56.2575 3.56168C52.1413 3.56168 48.7924 6.59852 48.7924 10.3317C48.7924 11.4132 49.0806 12.4326 49.5802 13.3404C49.0483 14.0078 48.1823 14.4422 47.2045 14.4314C45.6117 14.4144 44.348 13.201 44.348 11.7559V6.27909H46.8064C46.9959 6.27909 47.1494 6.13968 47.1494 5.96765V3.92023C47.1494 3.74855 46.9959 3.60924 46.8064 3.60924H44.348V0.337077C44.348 0.150774 44.1817 0 43.9763 0H41.7754C41.5704 0 41.4038 0.150661 41.4038 0.337077V3.60924H40.4504C40.2608 3.60924 40.1073 3.74855 40.1073 3.92034V5.96776C40.1073 6.13979 40.2608 6.27909 40.4505 6.27909H41.404V11.7263C41.404 14.6627 44.053 17.1267 47.2906 17.1013C48.9139 17.0889 50.3791 16.4706 51.4294 15.4859C52.7324 16.4912 54.4167 17.1015 56.2576 17.1015C60.3739 17.1015 63.7225 14.0645 63.7225 10.3317C63.7225 6.59852 60.3737 3.56168 56.2575 3.56168ZM56.2576 14.4318C53.7646 14.4318 51.7363 12.5924 51.7363 10.3317C51.7363 8.07095 53.7648 6.23153 56.2576 6.23153C58.7504 6.23153 60.7786 8.07095 60.7786 10.3317C60.7786 12.5924 58.7504 14.4318 56.2576 14.4318Z" fill="black"/>
<path fill-rule="evenodd" clip-rule="evenodd" d="M37.766 3.92046C37.766 3.74843 37.6121 3.60901 37.4226 3.60901H35.1653C34.9757 3.60901 34.8218 3.74843 34.8218 3.92046V9.15279C34.8218 10.5835 33.5518 11.7504 31.9805 11.7749C30.3627 11.8 29.0385 10.5737 29.0385 9.10636V3.92046C29.0385 3.74843 28.885 3.60901 28.6954 3.60901H26.4379C26.2483 3.60901 26.0948 3.74843 26.0948 3.92046V9.08544C26.0948 11.9992 28.66 14.4166 31.8727 14.4448C32.947 14.4543 33.9528 14.1947 34.8218 13.7425V15.7735C34.8218 17.2196 33.5247 18.3959 31.9302 18.3959C30.8567 18.3959 29.9185 17.8623 29.42 17.0724L29.0767 16.512C29.0544 16.4767 29.0246 16.4457 28.9889 16.4208C28.9532 16.3959 28.9123 16.3777 28.8687 16.3671C28.8251 16.3565 28.7796 16.3537 28.7348 16.359C28.69 16.3644 28.6468 16.3776 28.6077 16.398L26.6528 17.4216C26.5737 17.4633 26.5161 17.5314 26.4925 17.611C26.469 17.6907 26.4813 17.7755 26.5269 17.847L26.8714 18.4065C27.8799 19.994 29.769 21.0658 31.9301 21.0658C35.1479 21.0658 37.7662 18.6917 37.7662 15.7735L37.766 3.92046ZM24.2261 14.4317H23.0973C21.7122 14.4317 20.5898 13.4135 20.5898 12.1575V6.27898H23.1767C23.295 6.27898 23.3911 6.13968 23.3911 5.96765V3.92023C23.3911 3.74843 23.295 3.60913 23.1767 3.60913H20.5898V0.311442C20.5898 0.139418 20.4359 0 20.2463 0H17.9891C17.7995 0 17.6456 0.139418 17.6456 0.311442V12.1575C17.6456 14.8882 20.0863 17.1016 23.0972 17.1016H24.2261C24.4156 17.1016 24.5692 16.9622 24.5692 16.7903V14.7432C24.5692 14.5712 24.4156 14.4317 24.2261 14.4317Z" fill="black"/>
</svg>
