<svg width="99" height="22" viewBox="0 0 99 22" fill="none" xmlns="http://www.w3.org/2000/svg">
<path fill-rule="evenodd" clip-rule="evenodd" d="M0 0.000308404V21.9378H15.4888V17.6559H4.20748V0.000308404H0ZM42.1027 16.5834C41.8644 16.9604 41.5636 17.2724 41.1988 17.5202C40.8314 17.7697 40.4247 17.9525 39.9768 18.0719C39.5614 18.1866 39.1326 18.2467 38.7014 18.2507H30.9932V13.5179C31.5922 13.1944 32.2411 12.9707 32.9136 12.8557C33.5711 12.746 34.2301 12.6916 34.8884 12.6916H38.3998C38.8929 12.6916 39.3826 12.7371 39.8667 12.8289C40.3252 12.9108 40.7662 13.0693 41.1708 13.2977C41.5546 13.5187 42.4594 14.1289 42.4594 15.2469C42.4594 15.762 42.341 16.2072 42.1027 16.5834ZM30.9932 3.68743H38.3982C39.2939 3.68743 40.0253 3.88243 40.5923 4.27243C41.1593 4.66243 41.442 5.14343 41.442 6.12575C41.442 7.091 41.1667 7.6695 40.6186 8.14318C40.0705 8.61606 39.3292 8.85168 38.3973 8.85168H34.8867C34.2096 8.85168 33.5472 8.89718 32.898 8.98981C32.223 9.09039 31.5751 9.32325 30.9923 9.67475V3.68743H30.9932ZM46.2009 13.8941C46.0426 13.3305 45.8149 12.7883 45.5229 12.2796C45.2663 11.8329 44.9373 11.4308 44.5491 11.0893C44.2119 10.7909 43.8351 10.5394 43.4291 10.3418C44.0717 9.92906 44.5582 9.34 44.8893 8.57381C45.2205 7.80762 45.3857 6.95368 45.3857 6.01118C45.3857 5.04918 45.2254 4.19362 44.9041 3.44775C44.602 2.7293 44.1433 2.08566 43.5605 1.56275C42.9668 1.03996 42.271 0.643132 41.516 0.396808C40.6919 0.126643 39.8284 -0.00732074 38.9603 0.000308404H26.8473V21.9378H38.9775C39.8749 21.9378 40.7723 21.8306 41.6688 21.6152C42.5307 21.416 43.3486 21.0631 44.0824 20.5736C44.7925 20.0949 45.3828 19.4621 45.8081 18.7236C46.2469 17.9696 46.4671 17.0449 46.4671 15.9481C46.4671 15.1843 46.3784 14.5002 46.2009 13.8932V13.8941ZM19.1029 21.9378H23.2332V0.000308404H19.1029V21.9378ZM70.1975 17.6364C68.1184 17.6673 66.2579 16.8369 64.413 15.6401C65.008 15.2826 65.5701 14.8487 66.0952 14.3206C67.7157 12.6883 68.526 10.7099 68.526 8.38531C68.526 6.08106 67.7157 4.1075 66.0952 2.46462C64.4763 0.820933 62.5205 0.000308404 60.2302 0.000308404H49.5644V4.20012H60.2302C61.3749 4.20012 62.3512 4.61125 63.1582 5.43268C63.966 6.25331 64.3703 7.23806 64.3703 8.38531C64.3703 9.54231 63.966 10.5311 63.1582 11.3526C62.3602 12.1651 61.3955 12.5713 60.2664 12.5811C59.631 12.091 58.9855 11.614 58.3303 11.1502C55.2437 8.98412 52.3724 8.76149 51.0551 8.79643V13.1474C55.016 13.4943 58.3755 16.9466 62.1671 19.6027C66.1987 22.4277 70.2164 21.8988 70.2164 21.8988L70.1975 17.6364ZM98.6127 21.9378L87.057 0.000308404H83.2349L72.2815 21.9378H76.8177L85.2261 5.51231L94.0766 21.9378H98.6127Z" fill="black"/>
</svg>
