<svg preserveAspectRatio="none" width="100%" height="100%" overflow="visible" style="display: block;" viewBox="0 0 24.7595 11.6027" fill="none" xmlns="http://www.w3.org/2000/svg">
<g id="g3431">
<path id="path3422" d="M16.6269 11.6027V9.66017H19.6704C20.635 9.66017 21.1006 9.08267 21.1006 8.01517V4.20017H16.5438V2.25768H24.7595V4.20017H23.3126V7.94517C23.3126 9.01267 23.1795 9.52017 22.9966 9.94017C22.5309 10.9902 21.5996 11.6027 20.2192 11.6027H16.6269V11.6027Z" fill="var(--fill-0, black)"/>
<path id="path3424" d="M15.0724 11.6027H9.85028V9.66017H11.397C10.9646 9.06517 10.7484 8.36517 10.7484 7.47267C10.7484 6.91267 10.8315 6.30017 10.9812 5.60017C11.1974 4.56767 11.7129 2.83518 11.9125 2.25768H14.3739C13.8583 3.67517 13.1266 5.72267 12.8106 7.05267C12.7108 7.45517 12.6443 7.87517 12.6443 8.24267C12.6443 9.04767 12.9603 9.66017 13.9581 9.66017H15.0724V11.6027Z" fill="var(--fill-0, black)"/>
<path id="path3426" d="M8.44851 11.6025H0V9.6425H6.10355L3.64217 2.24H5.95387L8.44851 9.695V11.6025V11.6025ZM2.27844 7.07H0.0665239V0H2.27844V7.07V7.07Z" fill="var(--fill-0, black)"/>
</g>
</svg>
