<svg preserveAspectRatio="none" width="100%" height="100%" overflow="visible" style="display: block;" viewBox="0 0 67.7963 15.6004" fill="none" xmlns="http://www.w3.org/2000/svg">
<g id="&#215;&#144;&#215;&#158;&#215;&#160;&#215;&#170; &#215;&#156;&#215;&#153;&#215;&#145;&#215;&#168;&#215;&#148; 2">
<path id="Shape" fill-rule="evenodd" clip-rule="evenodd" d="M0 0.000219309V15.6002H10.6485V12.5553H2.89264V0.000219309H0ZM28.9456 11.7927C28.7818 12.0608 28.575 12.2826 28.3241 12.4588C28.0716 12.6362 27.7919 12.7662 27.484 12.8512C27.1985 12.9327 26.9037 12.9754 26.6072 12.9783H21.3078V9.61271C21.7196 9.38267 22.1657 9.22358 22.6281 9.14182C23.0801 9.06382 23.5332 9.02511 23.9858 9.02511H26.3999C26.7388 9.02511 27.0756 9.05746 27.4083 9.12275C27.7236 9.18098 28.0268 9.29372 28.3049 9.45613C28.5688 9.61329 29.1908 10.0472 29.1908 10.8422C29.1908 11.2085 29.1095 11.5252 28.9456 11.7927ZM21.3078 2.62217H26.3987C27.0145 2.62217 27.5174 2.76084 27.9072 3.03817C28.297 3.31551 28.4914 3.65755 28.4914 4.35609C28.4914 5.04249 28.3021 5.45386 27.9253 5.79071C27.5484 6.12697 27.0388 6.29453 26.3982 6.29453H23.9846C23.5191 6.29453 23.0637 6.32689 22.6174 6.39275C22.1533 6.46428 21.7079 6.62987 21.3072 6.87982V2.62217H21.3078ZM31.7631 9.88022C31.6543 9.47948 31.4977 9.09391 31.297 8.73217C31.1206 8.4145 30.8944 8.12856 30.6275 7.88573C30.3957 7.67352 30.1366 7.49468 29.8575 7.35417C30.2993 7.06066 30.6337 6.64177 30.8614 6.09693C31.0891 5.55209 31.2027 4.94484 31.2027 4.27462C31.2027 3.59053 31.0925 2.98213 30.8716 2.45173C30.6639 1.94084 30.3485 1.48313 29.9479 1.11129C29.5397 0.739524 29.0613 0.457338 28.5422 0.282175C27.9757 0.0900572 27.382 -0.00520586 26.7852 0.000219309H18.4575V15.6002H26.797C27.414 15.6002 28.0309 15.524 28.6473 15.3708C29.2399 15.2292 29.8022 14.9782 30.3066 14.6301C30.7949 14.2897 31.2007 13.8397 31.4931 13.3145C31.7948 12.7784 31.9462 12.1208 31.9462 11.3408C31.9462 10.7977 31.8851 10.3112 31.7631 9.87964V9.88022ZM13.1333 15.6002H15.9728V0.000219309H13.1333V15.6002ZM48.2608 12.5415C46.8314 12.5634 45.5523 11.9729 44.284 11.1219C44.693 10.8676 45.0794 10.5591 45.4404 10.1836C46.5546 9.0228 47.1116 7.61591 47.1116 5.96289C47.1116 4.32431 46.5546 2.92089 45.4404 1.75262C44.3275 0.583775 42.9828 0.000219309 41.4083 0.000219309H34.0755V2.98675H41.4083C42.1953 2.98675 42.8664 3.27911 43.4212 3.86324C43.9766 4.4468 44.2546 5.14706 44.2546 5.96289C44.2546 6.78564 43.9766 7.4888 43.4212 8.07293C42.8727 8.65071 42.2094 8.9396 41.4331 8.94653C40.9963 8.59807 40.5525 8.25884 40.1021 7.92906C37.98 6.38871 36.006 6.2304 35.1004 6.25524V9.34924C37.8235 9.59595 40.1331 12.0509 42.7399 13.9397C45.5116 15.9486 48.2738 15.5725 48.2738 15.5725L48.2608 12.5415ZM67.7963 15.6002L59.8517 0.000219309H57.224L49.6935 15.6002H52.8122L58.5929 3.91986L64.6776 15.6002H67.7963Z" fill="var(--fill-0, black)"/>
</g>
</svg>
