<svg width="127" height="20" viewBox="0 0 127 20" fill="none" xmlns="http://www.w3.org/2000/svg">
<path d="M126.562 9.93148C126.562 4.4464 116.703 0 104.542 0C102.781 0 101.071 0.0924543 99.4302 0.268363C100.562 0.184909 101.724 0.141954 102.909 0.141954C114.778 0.141954 124.4 4.48199 124.4 9.83534C124.4 15.1887 114.778 19.5279 102.909 19.5279C99.7795 19.5279 96.8074 19.226 94.1256 18.6831C97.2263 19.4363 100.773 19.863 104.542 19.863C116.703 19.863 126.562 15.4166 126.562 9.93148Z" fill="black"/>
<path d="M114.302 2.84758C111.049 1.72259 106.978 1.05331 102.561 1.05331C91.8963 1.05331 83.2513 4.95317 83.2513 9.76202C83.2513 14.5729 91.2378 18.4724 102.561 18.4724C105.2 18.4724 107.714 18.2335 110.004 17.8015C108.1 18.098 106.055 18.2576 103.927 18.2576C93.6235 18.2576 85.2704 14.4907 85.2704 9.84302C85.2704 5.19617 93.6235 1.42804 103.927 1.42804C107.768 1.42763 111.336 1.95168 114.302 2.84758Z" fill="black"/>
<path d="M91.7225 16.6419L97.9379 10.675H92.4561V8.84837H97.9379L91.8022 2.93906L93.8643 2.33811L101.008 9.3045V1.18652L108.854 8.84837H116.359L118.52 9.76186L116.359 10.7891H108.854L101.25 18.309L101.008 18.3593V10.218L93.8762 17.1701L91.7225 16.6419Z" fill="black"/>
<path d="M50.7286 10.7141H44.7617L47.7182 5.103L50.7286 10.7141ZM49.3436 2.2316H48.07L39.6081 17.5532C39.9064 17.5316 40.2046 17.5532 40.5573 17.5532C40.8826 17.5532 41.1808 17.5316 41.5605 17.5532C42.3199 15.4927 43.2965 13.8784 44.2457 11.9499H51.1362C52.2208 13.9442 53.1974 15.7332 53.9838 17.5532C54.4453 17.5316 54.9064 17.5532 55.4211 17.5532C55.8822 17.5532 56.966 17.5316 57.4811 17.5532L49.3436 2.2316Z" fill="black"/>
<path d="M0 17.5553C0.379685 17.5328 0.786369 17.5553 1.1939 17.5553C1.57274 17.5553 2.8122 17.5328 3.2463 17.5553V10.2342H3.41758L5.58811 12.2944L8.78843 15.6481C9.35796 16.2618 9.90048 16.8762 10.497 17.5553C10.9851 17.5328 11.5281 17.5553 12.0432 17.5553C12.5591 17.5553 13.0472 17.5328 13.6168 17.5553L13.1008 17.0075L11.7998 15.7798L6.21164 10.0587C8.9517 9.66477 12.0972 8.75127 12.0972 6.20919C12.0972 3.99478 9.92791 2.56256 5.75053 2.56256H0V17.5553ZM3.2463 3.37338C4.38578 3.3296 5.37043 3.26374 6.37448 3.39465C8.40875 3.6581 9.35796 4.64442 9.35796 6.15682C9.35796 7.86682 7.8658 8.96277 5.88638 9.29127C4.50221 9.51054 3.62641 9.42259 3.2463 9.40091V3.37338Z" fill="black"/>
<path d="M25.136 10.7141H19.1686L22.1255 5.103L25.136 10.7141ZM23.751 2.2316H22.4773L14.0154 17.5532C14.3133 17.5316 14.612 17.5532 14.9646 17.5532C15.2899 17.5532 15.5882 17.5316 15.9679 17.5532C16.7272 15.4927 17.7039 13.8784 18.6539 11.9499H25.5435C26.6281 13.9442 27.6048 15.7332 28.3911 17.5532C28.8522 17.5316 29.3138 17.5532 29.8284 17.5532C30.29 17.5532 31.3738 17.5316 31.8884 17.5532L23.751 2.2316Z" fill="black"/>
<path d="M32.5678 17.5553C32.9471 17.5336 33.3537 17.5553 33.7613 17.5553C34.1401 17.5553 35.3796 17.5336 35.8141 17.5553V10.3733H42.2219V9.0945H35.8141V3.90806H42.8459V2.56256H32.5674L32.5678 17.5553Z" fill="black"/>
<path d="M61.5795 3.90724H68.6121V2.56256H58.3328V17.4886H68.7745V16.1443H61.5795V10.3733H67.9873V9.09409H61.5795V3.90724Z" fill="black"/>
<path d="M73.8687 2.56256C73.4341 2.58424 72.2196 2.56256 71.8403 2.56256C71.4336 2.56256 71.0261 2.58424 70.646 2.56256V17.4898H81.4936V16.1443H73.8687V2.56256Z" fill="black"/>
</svg>
