<svg preserveAspectRatio="none" width="100%" height="100%" overflow="visible" style="display: block;" viewBox="0 0 87.9571 16.8527" fill="none" xmlns="http://www.w3.org/2000/svg">
<g id="Group">
<path id="Vector" fill-rule="evenodd" clip-rule="evenodd" d="M87.3463 0L86.7938 1.60852L86.2447 0H85.6304V2.24688H86.0246V0.433905L86.6244 2.24688H86.9683L87.5629 0.433905V2.24688H87.9571V0H87.3463V0ZM83.434 0V0.374989H84.1365V2.24688H84.5633V0.374989H85.2657V0H83.434ZM45.655 8.40727C45.655 5.43424 47.5766 3.03535 50.4592 3.03535C52.3611 3.03535 53.8514 3.95803 54.6162 5.78279L53.4789 6.31591C52.8513 5.06519 51.9493 4.28607 50.4199 4.28607C48.459 4.28607 46.9884 5.96736 46.9884 8.40727C46.9884 10.8677 48.459 12.5285 50.4787 12.5285C51.9298 12.5285 52.8513 11.7493 53.4789 10.4986L54.6162 11.0522C53.8514 12.7746 52.42 13.7792 50.4592 13.7792C47.5766 13.7792 45.655 11.3803 45.655 8.40727V8.40727ZM55.5398 8.40727C55.5398 5.41374 57.5006 3.03535 60.2655 3.03535C61.9911 3.03535 63.2852 4.06048 63.795 5.02408L63.9716 3.28136H65.1088V13.5332H63.9716L63.795 11.7493C63.3245 12.7335 62.0303 13.7792 60.2655 13.7792C57.5006 13.7792 55.5398 11.4008 55.5398 8.40727V8.40727ZM63.9716 8.40727C63.9716 5.92634 62.4813 4.28607 60.4617 4.28607C58.3439 4.28607 56.8731 6.09041 56.8731 8.40727C56.8731 10.7242 58.3439 12.5285 60.4617 12.5285C62.4813 12.5285 63.9716 10.8882 63.9716 8.40727ZM67.6835 3.28127H68.8012L68.958 4.88053C69.3895 3.77346 70.3111 3.03535 71.5463 3.03535C72.272 3.03535 72.8406 3.26085 73.2916 3.58889L72.919 4.92164C72.4484 4.55258 71.8406 4.40894 71.3504 4.40894C69.8209 4.40894 68.9777 5.70076 68.9777 7.85364V13.5332H67.6835V3.28127ZM78.3625 13.7792C75.3231 13.7792 73.578 11.4213 73.578 8.44828C73.578 5.27018 75.5191 3.03535 78.3036 3.03535C81.245 3.03535 82.892 5.3317 82.892 8.18168C82.892 8.34574 82.8919 8.57124 82.8528 8.7353H74.8524C74.9898 11.3598 76.5584 12.5285 78.4606 12.5285C80.0489 12.5285 81.0292 11.6673 81.5194 10.4985L82.6175 10.9702C82.0489 12.4464 80.6762 13.7793 78.3625 13.7793V13.7792ZM74.8721 7.66916H81.5783C81.441 5.45475 80.0881 4.28598 78.3035 4.28598C76.5389 4.28598 75.1073 5.43424 74.8721 7.66907" fill="var(--fill-0, black)"/>
<g id="Group_2">
<mask id="mask0_0_415" style="mask-type:alpha" maskUnits="userSpaceOnUse" x="0" y="0" width="9" height="14">
<g id="b">
<path id="Vector_2" d="M0 0H8.9372V13.6753H0V0Z" fill="var(--fill-0, white)"/>
</g>
</mask>
<g mask="url(#mask0_0_415)">
<path id="Vector_3" fill-rule="evenodd" clip-rule="evenodd" d="M6.23854 6.36601C5.87002 6.3654 5.50842 6.47064 5.1932 6.67024C4.87798 6.86984 4.62124 7.15614 4.45101 7.4979C4.28081 7.15614 4.02409 6.86983 3.70888 6.67022C3.39367 6.47062 3.03208 6.36538 2.66357 6.36601C1.55303 6.36601 0.652731 5.41598 0.652731 4.24415C0.652731 3.07205 1.55295 2.12212 2.66357 2.12212C3.44224 2.12212 4.11699 2.58931 4.4511 3.27228C4.78512 2.58931 5.45987 2.12212 6.23862 2.12212C7.34899 2.12212 8.24938 3.07196 8.24938 4.24415C8.24938 5.41598 7.34899 6.36601 6.23854 6.36601ZM4.46882 0C2.00086 0 0 2.11106 0 4.71557V6.96505C0 10.6709 2.84714 13.6753 6.35905 13.6753H6.92636C6.50884 13.3442 6.17046 12.9164 5.93785 12.4255C5.70523 11.9345 5.58473 11.3938 5.58581 10.8459C5.58581 8.89271 7.08619 7.30919 8.9372 7.30919V4.71566C8.9372 2.11115 6.9366 0 4.46882 0Z" fill="var(--fill-0, black)"/>
</g>
</g>
<path id="Vector_4" fill-rule="evenodd" clip-rule="evenodd" d="M6.2562 10.8455C6.2562 12.4083 7.45663 13.6751 8.93749 13.6751V8.01616C7.45663 8.01616 6.2562 9.28316 6.2562 10.8456V10.8455ZM6.23857 3.53643C5.8685 3.53643 5.56829 3.85305 5.56829 4.24378C5.56829 4.6346 5.8685 4.95112 6.23857 4.95112C6.60863 4.95112 6.90885 4.63451 6.90885 4.24378C6.90885 3.85305 6.60863 3.53643 6.23857 3.53643ZM2.66368 3.53643C2.29362 3.53643 1.9934 3.85305 1.9934 4.24378C1.9934 4.6346 2.29362 4.95112 2.66368 4.95112C3.03375 4.95112 3.33396 4.63451 3.33396 4.24378C3.33396 3.85305 3.03375 3.53643 2.66368 3.53643Z" fill="var(--fill-0, black)"/>
<g id="Group_3">
<mask id="mask1_0_415" style="mask-type:alpha" maskUnits="userSpaceOnUse" x="27" y="0" width="17" height="14">
<g id="d">
<path id="Vector_5" d="M27.5729 0H43.8084V13.6813H27.5729V0Z" fill="var(--fill-0, white)"/>
</g>
</mask>
<g mask="url(#mask1_0_415)">
<path id="Vector_6" fill-rule="evenodd" clip-rule="evenodd" d="M38.677 2.84934C35.8472 2.84934 33.5448 5.27882 33.5448 8.26533C33.5448 9.13053 33.7429 9.94608 34.0864 10.6723C33.7207 11.2062 33.1253 11.5538 32.4531 11.5452C31.358 11.5315 30.4892 10.5608 30.4892 9.40469V5.02328H32.1794C32.3097 5.02328 32.4152 4.91174 32.4152 4.77412V3.13619C32.4152 2.99884 32.3097 2.88739 32.1794 2.88739H30.4892V0.269661C30.4892 0.120619 30.3749 0 30.2337 0H28.7206C28.5796 0 28.4651 0.120529 28.4651 0.269661V2.88739H27.8096C27.6793 2.88739 27.5738 2.99884 27.5738 3.13628V4.77421C27.5738 4.91183 27.6793 5.02328 27.8097 5.02328H28.4652V9.38103C28.4652 11.7302 30.2865 13.7014 32.5123 13.681C33.6283 13.6711 34.6356 13.1764 35.3577 12.3887C36.2535 13.193 37.4115 13.6812 38.6771 13.6812C41.507 13.6812 43.8092 11.2516 43.8092 8.26533C43.8092 5.27882 41.507 2.84934 38.6771 2.84934H38.677ZM38.6771 11.5454C36.9632 11.5454 35.5687 10.0739 35.5687 8.26533C35.5687 6.45676 36.9633 4.98523 38.6771 4.98523C40.3909 4.98523 41.7853 6.45676 41.7853 8.26533C41.7853 10.0739 40.3909 11.5455 38.6771 11.5455" fill="var(--fill-0, black)"/>
</g>
</g>
<path id="Vector_7" fill-rule="evenodd" clip-rule="evenodd" d="M25.9642 3.13637C25.9642 2.99875 25.8584 2.88721 25.728 2.88721H24.1761C24.0458 2.88721 23.94 2.99875 23.94 3.13637V7.32223C23.94 8.46681 23.0669 9.40028 21.9866 9.41989C20.8743 9.44004 19.964 8.45898 19.964 7.28508V3.13637C19.964 2.99875 19.8584 2.88721 19.7281 2.88721H18.176C18.0457 2.88721 17.9402 2.99875 17.9402 3.13637V7.26835C17.9402 9.59933 19.7038 11.5333 21.9125 11.5559C22.651 11.5634 23.3426 11.3557 23.94 10.994V12.6188C23.94 13.7757 23.0482 14.7167 21.952 14.7167C21.214 14.7167 20.569 14.2898 20.2263 13.6579L19.9902 13.2096C19.9749 13.1814 19.9544 13.1566 19.9298 13.1367C19.9053 13.1167 19.8772 13.1021 19.8472 13.0936C19.8172 13.0852 19.7859 13.083 19.7551 13.0872C19.7243 13.0915 19.6947 13.1021 19.6678 13.1184L18.3238 13.9373C18.2694 13.9707 18.2298 14.0251 18.2136 14.0888C18.1974 14.1525 18.2059 14.2204 18.2373 14.2776L18.4741 14.7252C19.1674 15.9952 20.4662 16.8527 21.9519 16.8527C24.1642 16.8527 25.9642 14.9533 25.9642 12.6188V5.21927H25.9642V3.13637ZM16.6554 11.5453H15.8794C14.9272 11.5453 14.1555 10.7308 14.1555 9.72598V5.02319H15.934C16.0153 5.02319 16.0814 4.91174 16.0814 4.77412V3.13619C16.0814 2.99875 16.0153 2.8873 15.934 2.8873H14.1555V0.249153C14.1555 0.111534 14.0497 0 13.9193 0H12.3675C12.2372 0 12.1314 0.111534 12.1314 0.249153V9.72598C12.1314 11.9105 13.8093 13.6813 15.8793 13.6813H16.6554C16.7857 13.6813 16.8913 13.5698 16.8913 13.4322V11.7946C16.8913 11.657 16.7857 11.5454 16.6554 11.5454" fill="var(--fill-0, black)"/>
</g>
</svg>
