<svg width="120" height="10" viewBox="0 0 120 10" fill="none" xmlns="http://www.w3.org/2000/svg">
<path d="M15.4265 0L8.81899 9.83326H6.90416L0 0H3.15542L7.98294 7.13667L12.5408 0H15.4265ZM30.9878 9.83326H18.6089V0H30.853V1.74349H21.4137V3.88216H26.9154V5.57915H21.4137V7.99679H30.9878V9.83326ZM48.0864 7.50861C48.0864 8.43848 47.8707 9.05838 47.4392 9.36833C47.0076 9.67828 46.2345 9.83326 45.1198 9.83326H37.7032C36.4806 9.83326 35.676 9.65891 35.2894 9.31021C34.9029 8.96151 34.7096 8.268 34.7096 7.22965L37.1908 6.83446V7.99679H45.5783V5.74188H38.1887C37.0739 5.74188 36.3098 5.59465 35.8963 5.3002C35.4288 4.97474 35.1951 4.3471 35.1951 3.41723V2.32465C35.1951 1.39478 35.4288 0.767135 35.8963 0.441683C36.3098 0.147226 37.0739 0 38.1887 0H44.958C46.1087 0 46.8953 0.154975 47.3178 0.46493C47.7403 0.774884 47.9516 1.41028 47.9516 2.37114L45.5513 2.81282V1.76673H37.7032V3.83567H45.1198C46.2345 3.83567 47.0076 3.98677 47.4392 4.28897C47.8707 4.59118 48.0864 5.21496 48.0864 6.16032V7.50861ZM65.212 1.76673H59.6833V9.83326H56.9054V1.76673H51.4037V0H65.212V1.76673ZM81.6633 1.76673H76.1346V9.83326H73.3567V1.76673H67.855V0H81.6633V1.76673ZM99.7328 7.50861C99.7328 8.43848 99.517 9.05838 99.0855 9.36833C98.654 9.67828 97.8809 9.83326 96.7662 9.83326H87.9472C86.8324 9.83326 86.0593 9.68216 85.6278 9.37995C85.1963 9.07775 84.9805 8.45397 84.9805 7.50861V2.32465C84.9805 1.37929 85.1963 0.755512 85.6278 0.453306C86.0593 0.151101 86.8324 0 87.9472 0H96.7662C97.8809 0 98.654 0.151101 99.0855 0.453306C99.517 0.755512 99.7328 1.37929 99.7328 2.32465V7.50861ZM96.9549 7.95029V1.81323H87.7584V7.95029H96.9549ZM119.016 7.50861C119.016 8.43848 118.8 9.05838 118.369 9.36833C117.937 9.67828 117.164 9.83326 116.049 9.83326H107.23C106.116 9.83326 105.342 9.68216 104.911 9.37995C104.479 9.07775 104.264 8.45397 104.264 7.50861V2.32465C104.264 1.37929 104.479 0.755512 104.911 0.453306C105.342 0.151101 106.116 0 107.23 0H116.049C117.164 0 117.937 0.151101 118.369 0.453306C118.8 0.755512 119.016 1.37929 119.016 2.32465V7.50861ZM116.238 7.95029V1.81323H107.041V7.95029H116.238Z" fill="black"/>
</svg>
