<svg width="680" height="196" viewBox="0 0 680 196" fill="none" xmlns="http://www.w3.org/2000/svg">
<path d="M296.658 94.164C296.92 96.5846 297.048 98.9228 297.048 101.164C297.048 110.239 295.234 118.243 291.599 125.152C287.965 132.069 282.824 137.45 276.169 141.302C269.507 145.147 261.818 147.073 253.087 147.073C244.356 147.073 236.075 145.064 229.031 141.04C221.986 137.023 216.471 131.462 212.499 124.373C208.519 117.283 206.533 109.242 206.533 100.249C206.533 91.2563 208.519 83.2151 212.499 76.1256C216.478 69.0361 221.986 63.5055 229.031 59.5261C236.075 55.5542 244.094 53.5608 253.087 53.5608C260.176 53.5608 266.876 55.0521 273.186 58.0348C279.496 61.0174 284.555 64.9743 288.362 69.898L280.321 77.0324C277.293 73.2329 273.359 70.1828 268.517 67.8896C263.676 65.5964 258.573 64.4497 253.214 64.4497C246.56 64.4497 240.632 65.9636 235.446 68.9912C230.26 72.0188 226.213 76.253 223.32 81.7012C220.42 87.1495 218.974 93.3321 218.974 100.249C218.974 107.166 220.42 113.327 223.32 118.73C226.213 124.133 230.26 128.33 235.446 131.312C240.632 134.295 246.552 135.786 253.214 135.786C259.442 135.786 265.018 134.445 269.941 131.77C274.872 129.087 278.694 125.332 281.422 120.483C284.143 115.642 285.507 110.067 285.507 103.756H255.418V94.1565H296.658V94.164Z" fill="#0D0D0D"/>
<path d="M371.353 74.327H382.767V145.656H371.353V131.133C368.588 136.064 364.848 139.886 360.134 142.614C355.421 145.334 349.995 146.698 343.857 146.698C337.375 146.698 331.537 145.102 326.351 141.902C321.165 138.702 317.081 134.318 314.098 128.734C311.115 123.159 309.624 116.909 309.624 109.992C309.624 103.075 311.115 96.8319 314.098 91.2488C317.081 85.6731 321.165 81.2816 326.351 78.0816C331.537 74.8816 337.375 73.2853 343.857 73.2853C349.995 73.2853 355.421 74.6493 360.134 77.3696C364.848 80.09 368.588 83.9195 371.353 88.8507V74.327ZM359.1 133.208C362.945 130.878 365.95 127.678 368.116 123.608C370.274 119.547 371.361 115.005 371.361 109.992C371.361 104.978 370.281 100.437 368.116 96.3747C365.957 92.3129 362.952 89.1129 359.1 86.7748C355.256 84.4441 350.947 83.275 346.195 83.275C341.444 83.275 337.157 84.4441 333.358 86.7748C329.551 89.1054 326.568 92.3054 324.41 96.3747C322.244 100.437 321.165 104.978 321.165 109.992C321.165 115.005 322.244 119.547 324.41 123.608C326.568 127.67 329.551 130.87 333.358 133.208C337.157 135.539 341.444 136.708 346.195 136.708C350.947 136.708 355.248 135.539 359.1 133.208Z" fill="#0D0D0D"/>
<path d="M493.124 76.531C496.969 78.7793 499.974 81.9792 502.14 86.131C504.298 90.2827 505.385 95.124 505.385 100.655V145.657H493.844V102.079C493.844 96.3755 492.225 91.7216 488.98 88.1394C485.735 84.5497 481.568 82.7586 476.465 82.7586C471.361 82.7586 467.06 84.5572 463.822 88.1394C460.577 91.7291 458.958 96.3755 458.958 102.079V145.657H447.417V102.079C447.417 96.3755 445.799 91.7216 442.554 88.1394C439.309 84.5497 435.142 82.7586 430.039 82.7586C424.935 82.7586 420.633 84.5572 417.396 88.1394C414.151 91.7291 412.532 96.3755 412.532 102.079V145.657H400.991V74.3277H412.532V84.9619C414.78 81.1624 417.718 78.2397 421.353 76.2088C424.988 74.1779 429.177 73.1587 433.935 73.1587C439.384 73.1587 444.03 74.5226 447.875 77.2429C451.719 79.9633 454.424 83.6654 455.983 88.3343C457.969 83.583 461.064 79.8659 465.254 77.183C469.443 74.5076 474.351 73.1662 479.972 73.1662C484.903 73.1662 489.287 74.2903 493.132 76.5385L493.124 76.531Z" fill="#0D0D0D"/>
<path d="M579.172 78.0822C584.185 81.2822 588.12 85.6663 590.975 91.2494C593.83 96.8251 595.254 103.075 595.254 109.992C595.254 116.909 593.83 123.159 590.975 128.735C588.12 134.311 584.185 138.702 579.172 141.902C574.158 145.102 568.538 146.699 562.31 146.699C556.082 146.699 551.024 145.335 546.355 142.614C541.686 139.894 537.969 136.064 535.204 131.133V145.657H523.663V48.3904H535.204V88.8513C537.969 83.9202 541.686 80.0981 546.355 77.3703C551.024 74.6499 556.337 73.286 562.31 73.286C568.283 73.286 574.151 74.8897 579.172 78.0822ZM572.3 133.202C575.934 130.871 578.76 127.671 580.798 123.602C582.829 119.54 583.848 114.998 583.848 109.985C583.848 104.971 582.829 100.43 580.798 96.3679C578.767 92.3061 575.934 89.1061 572.3 86.7679C568.665 84.4373 564.558 83.2682 559.979 83.2682C555.4 83.2682 551.099 84.4373 547.337 86.7679C543.575 89.0986 540.614 92.2986 538.456 96.3679C536.29 100.43 535.211 104.971 535.211 109.985C535.211 114.998 536.29 119.54 538.456 123.602C540.614 127.663 543.582 130.863 547.337 133.202C551.099 135.532 555.31 136.701 559.979 136.701C564.648 136.701 568.672 135.532 572.3 133.202Z" fill="#0D0D0D"/>
<path d="M611.374 60.7107C609.86 59.152 609.103 57.2934 609.103 55.1351C609.103 52.9768 609.86 51.1407 611.374 49.6269C612.888 48.1131 614.724 47.3562 616.882 47.3562C619.04 47.3562 620.906 48.1131 622.458 49.6269C624.017 51.1407 624.788 52.9768 624.788 55.1351C624.788 57.2934 624.032 59.152 622.518 60.7107C621.004 62.2695 619.123 63.0414 616.875 63.0414C614.626 63.0414 612.873 62.262 611.366 60.7107H611.374ZM622.72 145.657H611.179V74.3276H622.72V145.657Z" fill="#0D0D0D"/>
<path d="M647.817 139.939V83.4032H637.828V74.3278H647.817V58.635L659.358 56.3044V74.3278H677V83.4032H659.358V143.251" fill="#0D0D0D"/>
<path d="M676.998 134.11H647.816V145.651H676.998V134.11Z" fill="#0D0D0D"/>
<path d="M157.923 132.951L60.083 173.471V174.058H56.0801L3.08008 46.1074L104.542 4.08008L157.923 132.951ZM10.9189 49.3535L59.7061 167.134L150.083 129.703L101.295 11.9189L10.9189 49.3535Z" fill="#0D0D0D"/>
<path d="M163.44 153.163L58.6694 174.001L57.9673 170.47L55.0258 171.055L28.519 37.784L136.224 16.3533L163.44 153.163ZM35.5737 42.4969L60.4419 167.53L156.384 148.448L131.509 23.408L35.5737 42.4969Z" fill="#0D0D0D"/>
<path d="M164.903 34.5694V174.058H58.0843V170.748H55.0843V34.5694H164.903ZM61.0843 168.058H158.903V40.5694H61.0843V168.058Z" fill="#0D0D0D"/>
</svg>
