<svg preserveAspectRatio="none" width="100%" height="100%" overflow="visible" style="display: block;" viewBox="0 0 57.1076 42.3098" fill="none" xmlns="http://www.w3.org/2000/svg">
<g id="LogoMark">
<g id="Group">
<path id="Rectangle 74" d="M7.2301 29.1207L1.88202 23.1395L11.7379 19.4873" stroke="var(--stroke-0, black)" stroke-width="2" stroke-linecap="round" stroke-linejoin="round"/>
<path id="Rectangle 74 Copy" d="M17.4108 33.362L6.93849 37.0331L7.19071 29.0135L14.8627 26.3625" stroke="var(--stroke-0, black)" stroke-width="2" stroke-linecap="round" stroke-linejoin="round"/>
<path id="Path" fill-rule="evenodd" clip-rule="evenodd" d="M52.6817 12.5897C55.0175 19.357 47.4912 28.2488 35.784 32.5098C24.0768 36.7709 12.5958 34.7972 10.0352 28.1117L52.6817 12.5897Z" stroke="var(--stroke-0, black)" stroke-width="2" stroke-linecap="round" stroke-linejoin="round"/>
<path id="Path_2" fill-rule="evenodd" clip-rule="evenodd" d="M52.6819 12.5895C50.138 5.8867 38.6448 3.90425 26.9249 8.16994C15.205 12.4356 7.675 21.342 10.0347 28.1117L52.6819 12.5895Z" stroke="var(--stroke-0, black)" stroke-width="2" stroke-linecap="round" stroke-linejoin="round"/>
<path id="Path_3" fill-rule="evenodd" clip-rule="evenodd" d="M52.6801 12.5901C54.1362 17.118 45.9654 24.1693 34.2942 28.4173C22.623 32.6653 11.8313 32.5157 10.0362 28.1113L52.6801 12.5901Z" stroke="var(--stroke-0, black)" stroke-width="2" stroke-linecap="round" stroke-linejoin="round"/>
<path id="Path_4" fill-rule="evenodd" clip-rule="evenodd" d="M52.6811 12.5902C50.913 8.16472 40.105 8.00793 28.4145 12.2629C16.7241 16.5179 8.54546 23.5852 10.0357 28.1119L52.6811 12.5902Z" stroke="var(--stroke-0, black)" stroke-width="2" stroke-linecap="round" stroke-linejoin="round"/>
</g>
<path id="Shape" d="M33.0076 6.44779C31.8937 2.5962 30.6259 0.459529 29.1856 0.500603C26.3994 0.58006 25.4626 9.41354 26.3643 20.7329C27.2755 32.1721 29.6391 40.7654 32.5861 40.6879C34.3435 40.6417 35.3331 37.8305 35.6802 32.9494C35.6873 32.8496 35.5763 32.9188 35.5828 32.8173C35.5828 32.8173 35.5685 32.639 35.5024 32.6347C35.3779 32.6267 35.1288 32.6106 35.1288 32.6106C34.8225 37.3495 33.8952 40.0803 32.571 40.1151C30.1492 40.1788 27.811 31.678 26.9355 20.6874C26.0745 9.87793 27.0015 1.13617 29.2019 1.07342C30.2434 1.04372 31.4101 3.0111 32.443 6.55842C32.443 6.55842 33.0082 6.44976 33.0076 6.44779Z" stroke="var(--stroke-0, black)"/>
<path id="Shape_2" d="M19.2018 3.69972C16.8286 5.16165 20.4341 13.28 26.8746 22.6321C33.3833 32.0831 39.727 38.3433 42.2403 36.8027C43.645 35.9417 43.2507 33.3281 41.442 29.3823C41.3761 29.2384 41.206 29.1753 41.0622 29.2412C40.9183 29.3071 40.8552 29.4772 40.9211 29.6211C42.6026 33.2895 42.9643 35.6868 41.9409 36.3142C39.8753 37.5802 33.6001 31.3875 27.3466 22.307C21.1961 13.3763 17.6281 5.34219 19.5023 4.18763C20.4977 3.57445 22.8648 5.05377 25.9927 8.2495C26.0275 8.28506 26.2279 8.49239 26.2723 8.50593C26.3693 8.53545 26.3204 8.32974 26.3979 8.25385C26.511 8.14316 26.5129 7.96175 26.4022 7.84866C23.0607 4.43467 20.5529 2.86741 19.2018 3.69972Z" stroke="var(--stroke-0, black)"/>
</g>
</svg>
