<svg width="46" height="46" viewBox="0 0 46 46" fill="none" xmlns="http://www.w3.org/2000/svg">
<path d="M37.582 0C38.6874 -0.000247478 39.7824 0.216818 40.8037 0.639648C41.8248 1.06243 42.7526 1.68253 43.5342 2.46387C44.3159 3.2454 44.9363 4.1741 45.3594 5.19531C45.7823 6.21639 46 7.3108 46 8.41602V37.582C46.0002 38.6876 45.7823 39.7823 45.3594 40.8037C44.9364 41.8251 44.3169 42.7535 43.5352 43.5352C42.7535 44.3169 41.8251 44.9364 40.8037 45.3594C39.7823 45.7823 38.6876 46.0002 37.582 46H8.41602C7.3108 46 6.21639 45.7823 5.19531 45.3594C4.1741 44.9363 3.2454 44.3159 2.46387 43.5342C1.68253 42.7526 1.06243 41.8248 0.639648 40.8037C0.216818 39.7824 -0.000247478 38.6874 0 37.582V8.41602C1.77804e-05 6.18396 0.886538 4.04315 2.46484 2.46484C4.04315 0.886538 6.18396 1.77806e-05 8.41602 0H37.582ZM8.16504 2.76855C6.73358 2.76855 5.36083 3.33741 4.34863 4.34961C3.33645 5.3618 2.76758 6.73456 2.76758 8.16602V37.8359C2.76766 39.2673 3.33651 40.6402 4.34863 41.6523C5.3608 42.6643 6.73372 43.2334 8.16504 43.2334H37.835C39.2663 43.2333 40.6392 42.6645 41.6514 41.6523C42.6635 40.6402 43.2323 39.2673 43.2324 37.8359V8.16602C43.2324 6.7347 42.6634 5.36178 41.6514 4.34961C40.6392 3.33747 39.2663 2.76862 37.835 2.76855H8.16504ZM32.1865 19.8555V27.2656L13.8691 36.0742V30.7041L28.7266 23.5605L13.8691 16.415V11.0469L32.1865 19.8555Z" fill="black"/>
</svg>
