<svg preserveAspectRatio="none" width="100%" height="100%" overflow="visible" style="display: block;" viewBox="0 0 46 44" fill="none" xmlns="http://www.w3.org/2000/svg">
<g id="Adobe_Photoshop_CC_icon (1) 1" clip-path="url(#clip0_0_388)">
<g id="Subtract">
<mask id="path-1-inside-1_0_388" fill="white">
<path fill-rule="evenodd" clip-rule="evenodd" d="M37.8542 0H8.14583C3.64167 0 0 3.57265 0 7.99145V36.0085C0 40.4274 3.64167 44 8.14583 44H37.8542C42.3583 44 46 40.4274 46 36.0085V7.99145C46 3.57265 42.3583 0 37.8542 0ZM10.3498 30.8561V11.5074C10.3498 11.3758 10.4073 11.3006 10.5415 11.3006H10.5415C10.8673 11.3006 11.174 11.3006 11.6148 11.2818C11.8517 11.2721 12.0937 11.2674 12.3434 11.2625C12.5785 11.258 12.8205 11.2533 13.0715 11.2442C13.3391 11.2344 13.617 11.2297 13.9052 11.2249H13.9052C14.1742 11.2203 14.4521 11.2156 14.739 11.2066C15.3331 11.1878 15.9081 11.1878 16.4831 11.1878C18.0548 11.1878 19.3581 11.3758 20.4315 11.7707C21.3898 12.0903 22.2715 12.6168 22.9998 13.3125C23.6131 13.9143 24.0923 14.6476 24.399 15.4561C24.6865 16.2459 24.8398 17.0544 24.8398 17.9006C24.8398 19.5177 24.4565 20.8527 23.6898 21.9057C22.9231 22.9587 21.8498 23.7484 20.604 24.1997C19.3006 24.6698 17.8631 24.839 16.2915 24.839C15.8315 24.839 15.5248 24.839 15.3331 24.8202C15.1415 24.8014 14.8731 24.8014 14.509 24.8014V30.8373C14.5281 30.9689 14.4323 31.0818 14.2981 31.1006H14.2215H10.5798C10.4265 31.1006 10.3498 31.0254 10.3498 30.8561ZM14.5281 14.9296V21.2476L14.5856 21.2516C14.8321 21.269 15.0621 21.2852 15.2756 21.2852H16.2915C17.039 21.2852 17.7865 21.1724 18.4956 20.9467C19.109 20.7775 19.6456 20.4202 20.0673 19.9501C20.4698 19.4801 20.6615 18.8407 20.6615 18.0134C20.6806 17.4305 20.5273 16.8476 20.2206 16.3399C19.8948 15.851 19.4348 15.4749 18.879 15.2681C18.1698 14.986 17.4031 14.8732 16.6173 14.892C16.119 14.892 15.6781 14.892 15.314 14.9108C14.9306 14.892 14.6623 14.9108 14.5281 14.9296ZM36.8002 20.1013C36.2252 19.8005 35.6118 19.5936 34.9602 19.462C34.251 19.3116 33.5418 19.2175 32.8135 19.2175C32.4302 19.1987 32.0277 19.2552 31.6635 19.3492C31.4143 19.4056 31.2035 19.5372 31.0693 19.7252C30.9735 19.8757 30.916 20.0637 30.916 20.2329C30.916 20.4022 30.9927 20.5714 31.1077 20.7218C31.2802 20.9287 31.5102 21.0979 31.7593 21.2295C32.2002 21.4552 32.6602 21.662 33.1202 21.85C34.1552 22.1885 35.1518 22.6586 36.0718 23.2227C36.7043 23.6175 37.2218 24.144 37.586 24.7834C37.8927 25.3851 38.046 26.0432 38.0268 26.7201C38.046 27.6039 37.7777 28.4876 37.2793 29.221C36.7427 29.9731 35.9952 30.556 35.1327 30.8945C34.1935 31.2893 33.0435 31.4962 31.6635 31.4962C30.7818 31.4962 29.9193 31.421 29.0568 31.2517C28.386 31.1389 27.7152 30.9321 27.1018 30.65C26.9677 30.5748 26.8718 30.4432 26.891 30.2928V27.021C26.891 26.9646 26.9102 26.8893 26.9677 26.8517C27.0252 26.8141 27.0827 26.8329 27.1402 26.8705C27.8877 27.303 28.6735 27.6039 29.5168 27.7919C30.2452 27.9799 31.0118 28.074 31.7785 28.074C32.5068 28.074 33.0243 27.9799 33.3693 27.8107C33.676 27.6791 33.8868 27.3594 33.8868 27.021C33.8868 26.7577 33.7335 26.5133 33.4268 26.2688C33.1202 26.0244 32.4877 25.7423 31.5485 25.3851C30.571 25.0466 29.6702 24.5953 28.8268 24.0312C28.2327 23.6175 27.7343 23.0722 27.3702 22.4329C27.0635 21.8312 26.9102 21.1731 26.9293 20.515C26.9293 19.7064 27.1593 18.9355 27.581 18.2398C28.0602 17.4876 28.7693 16.8859 29.5935 16.5099C30.4943 16.0586 31.6252 15.8517 32.986 15.8517C33.7718 15.8517 34.5768 15.9081 35.3627 16.021C35.9377 16.0962 36.4935 16.2466 37.011 16.4534C37.0877 16.4722 37.1643 16.5475 37.2027 16.6227L37.2027 16.6227C37.2218 16.6979 37.241 16.7731 37.241 16.8483V19.9133C37.241 19.9885 37.2027 20.0637 37.1452 20.1013C36.9727 20.1389 36.8768 20.1389 36.8002 20.1013Z"/>
</mask>
<path d="M11.6148 11.2818L11.5331 9.28344L11.5296 9.28359L11.6148 11.2818ZM12.3434 11.2625L12.3822 13.2622H12.3822L12.3434 11.2625ZM13.0715 11.2442L12.9989 9.24548H12.9989L13.0715 11.2442ZM13.9052 11.2249V9.22488H13.8883L13.8714 9.22516L13.9052 11.2249ZM13.9052 11.2249V13.2249H13.9221L13.939 13.2246L13.9052 11.2249ZM14.739 11.2066L14.8022 13.2056H14.8022L14.739 11.2066ZM20.4315 11.7707L19.7409 13.6477L19.7696 13.6582L19.7986 13.6679L20.4315 11.7707ZM22.9998 13.3125L24.4004 11.8849L24.3909 11.8755L24.3813 11.8663L22.9998 13.3125ZM24.399 15.4561L26.2783 14.772L26.2737 14.7594L26.269 14.7469L24.399 15.4561ZM23.6898 21.9057L22.073 20.7285L22.073 20.7285L23.6898 21.9057ZM20.604 24.1997L21.2826 26.0811L21.2851 26.0802L20.604 24.1997ZM15.3331 24.8202L15.5284 22.8298L15.5284 22.8298L15.3331 24.8202ZM14.509 24.8014V22.8014H12.509V24.8014H14.509ZM14.509 30.8373H12.509V30.9822L12.5299 31.1255L14.509 30.8373ZM14.2981 31.1006V33.1006H14.4376L14.5758 33.0812L14.2981 31.1006ZM14.5281 21.2476H12.5281V23.1119L14.3878 23.2427L14.5281 21.2476ZM14.5281 14.9296L14.2506 12.949L12.5281 13.1904V14.9296H14.5281ZM14.5856 21.2516L14.7261 19.2566L14.7259 19.2566L14.5856 21.2516ZM18.4956 20.9467L17.9637 19.0188L17.9263 19.0291L17.8892 19.0409L18.4956 20.9467ZM20.0673 19.9501L21.5561 21.2856L21.5715 21.2684L21.5865 21.2509L20.0673 19.9501ZM20.6615 18.0134L18.6626 17.9477L18.6615 17.9805V18.0134H20.6615ZM20.2206 16.3399L21.9326 15.3058L21.9096 15.2677L21.8849 15.2307L20.2206 16.3399ZM18.879 15.2681L18.1399 17.1265L18.1606 17.1347L18.1815 17.1425L18.879 15.2681ZM16.6173 14.892V16.892H16.6412L16.6652 16.8915L16.6173 14.892ZM15.314 14.9108L15.216 16.9084L15.3166 16.9134L15.4171 16.9082L15.314 14.9108ZM34.9602 19.462L34.5452 21.4185L34.5547 21.4205L34.5642 21.4224L34.9602 19.462ZM36.8002 20.1013L35.873 21.8734L35.896 21.8855L35.9194 21.8969L36.8002 20.1013ZM32.8135 19.2175L32.7155 21.2151L32.7645 21.2175H32.8135V19.2175ZM31.6635 19.3492L32.1051 21.2998L32.1344 21.2932L32.1634 21.2857L31.6635 19.3492ZM31.0693 19.7252L29.4413 18.5636L29.4108 18.6063L29.3825 18.6506L31.0693 19.7252ZM31.1077 20.7218L29.5188 21.9365L29.5445 21.9702L29.5717 22.0028L31.1077 20.7218ZM31.7593 21.2295L30.8252 22.9979L30.8366 23.004L30.8481 23.0098L31.7593 21.2295ZM33.1202 21.85L32.3634 23.7013L32.4301 23.7286L32.4985 23.751L33.1202 21.85ZM36.0718 23.2227L37.131 21.5261L37.1241 21.5219L37.1173 21.5177L36.0718 23.2227ZM37.586 24.7834L39.3679 23.8752L39.3468 23.8338L39.3238 23.7935L37.586 24.7834ZM38.0268 26.7201L36.0276 26.6635L36.0262 26.7135L36.0273 26.7635L38.0268 26.7201ZM37.2793 29.221L38.9074 30.3826L38.9207 30.364L38.9335 30.3451L37.2793 29.221ZM35.1327 30.8945L34.4021 29.0327L34.3797 29.0415L34.3575 29.0508L35.1327 30.8945ZM29.0568 31.2517L29.4419 29.2892L29.4153 29.2839L29.3885 29.2794L29.0568 31.2517ZM27.1018 30.65L26.1238 32.3946L26.1936 32.4337L26.2662 32.4671L27.1018 30.65ZM26.891 30.2928L28.875 30.5455L28.891 30.4196V30.2928H26.891ZM26.9677 26.8517L28.0624 28.5255L28.0624 28.5255L26.9677 26.8517ZM27.1402 26.8705L26.0454 28.5443L26.0912 28.5743L26.1386 28.6017L27.1402 26.8705ZM29.5168 27.7919L30.0168 25.8554L29.9846 25.8471L29.9521 25.8398L29.5168 27.7919ZM33.3693 27.8107L32.5805 25.9728L32.534 25.9928L32.4885 26.0151L33.3693 27.8107ZM33.4268 26.2688L34.6735 24.7049L34.6734 24.7049L33.4268 26.2688ZM31.5485 25.3851L32.2596 23.5158L32.2314 23.505L32.2029 23.4952L31.5485 25.3851ZM28.8268 24.0312L27.6841 25.6726L27.6994 25.6832L27.7149 25.6936L28.8268 24.0312ZM27.3702 22.4329L25.5882 23.3411L25.6093 23.3825L25.6323 23.4228L27.3702 22.4329ZM26.9293 20.515L28.9285 20.5732L28.9293 20.5441V20.515H26.9293ZM27.581 18.2398L25.8942 17.1652L25.8822 17.184L25.8706 17.2031L27.581 18.2398ZM29.5935 16.5099L30.4237 18.3294L30.4568 18.3143L30.4893 18.298L29.5935 16.5099ZM35.3627 16.021L35.0784 18.0007L35.0908 18.0024L35.1033 18.0041L35.3627 16.021ZM37.011 16.4534L36.2687 18.3106L36.3987 18.3625L36.5345 18.3959L37.011 16.4534ZM37.2027 16.6227L39.155 16.1888L39.0999 15.9408L38.9846 15.7145L37.2027 16.6227ZM37.2027 16.6227L35.2503 17.0566L35.257 17.0867L35.2646 17.1166L37.2027 16.6227ZM37.1452 20.1013L37.5712 22.0554L37.9314 21.9769L38.2399 21.7751L37.1452 20.1013ZM8.14583 0V2H37.8542V0V-2H8.14583V0ZM0 7.99145H2C2 4.71312 4.70999 2 8.14583 2V0V-2C2.57335 -2 -2 2.43218 -2 7.99145H0ZM0 36.0085H2V7.99145H0H-2V36.0085H0ZM8.14583 44V42C4.70999 42 2 39.2869 2 36.0085H0H-2C-2 41.5678 2.57335 46 8.14583 46V44ZM37.8542 44V42H8.14583V44V46H37.8542V44ZM46 36.0085H44C44 39.2869 41.29 42 37.8542 42V44V46C43.4267 46 48 41.5678 48 36.0085H46ZM46 7.99145H44V36.0085H46H48V7.99145H46ZM37.8542 0V2C41.29 2 44 4.71312 44 7.99145H46H48C48 2.43218 43.4267 -2 37.8542 -2V0ZM10.3498 11.5074H8.34981V30.8561H10.3498H12.3498V11.5074H10.3498ZM10.5415 11.3006V9.30058C10.1028 9.30058 9.42302 9.43443 8.89644 10.0305C8.41219 10.5787 8.34981 11.195 8.34981 11.5074H10.3498H12.3498C12.3498 11.6882 12.3162 12.2011 11.8942 12.6788C11.4299 13.2043 10.846 13.3006 10.5415 13.3006V11.3006ZM10.5415 11.3006V9.30058H10.5415V11.3006V13.3006H10.5415V11.3006ZM11.6148 11.2818L11.5296 9.28359C11.1339 9.30046 10.8631 9.30058 10.5415 9.30058V11.3006V13.3006C10.8715 13.3006 11.214 13.3007 11.7 13.28L11.6148 11.2818ZM12.3434 11.2625L12.3046 9.26292C12.0589 9.26769 11.7952 9.27273 11.5331 9.28344L11.6148 11.2818L11.6965 13.2801C11.9082 13.2714 12.1284 13.2671 12.3822 13.2622L12.3434 11.2625ZM13.0715 11.2442L12.9989 9.24548C12.7674 9.25389 12.5419 9.25832 12.3045 9.26292L12.3434 11.2625L12.3822 13.2622C12.6151 13.2576 12.8736 13.2527 13.1441 13.2428L13.0715 11.2442ZM13.9052 11.2249L13.8714 9.22516C13.5872 9.22996 13.2894 9.23493 12.9989 9.24548L13.0715 11.2442L13.1441 13.2428C13.3889 13.234 13.6469 13.2295 13.939 13.2246L13.9052 11.2249ZM13.9052 11.2249V9.22488H13.9052V11.2249V13.2249H13.9052V11.2249ZM14.739 11.2066L14.6757 9.20756C14.4059 9.2161 14.1424 9.22058 13.8714 9.22516L13.9052 11.2249L13.939 13.2246C14.206 13.2201 14.4984 13.2152 14.8022 13.2056L14.739 11.2066ZM16.4831 11.1878V9.18775C15.9126 9.18775 15.3065 9.1876 14.6757 9.20756L14.739 11.2066L14.8022 13.2056C15.3598 13.1879 15.9037 13.1878 16.4831 13.1878V11.1878ZM20.4315 11.7707L21.122 9.89365C19.7567 9.39135 18.2008 9.18775 16.4831 9.18775V11.1878V13.1878C17.9089 13.1878 18.9596 13.3602 19.7409 13.6477L20.4315 11.7707ZM22.9998 13.3125L24.3813 11.8663C23.4355 10.9629 22.2968 10.2845 21.0643 9.87342L20.4315 11.7707L19.7986 13.6679C20.4828 13.8961 21.1075 14.2708 21.6183 14.7588L22.9998 13.3125ZM24.399 15.4561L26.269 14.7469C25.86 13.6686 25.221 12.6899 24.4004 11.8849L22.9998 13.3125L21.5992 14.7402C22.0053 15.1386 22.3246 15.6266 22.529 16.1654L24.399 15.4561ZM24.8398 17.9006H26.8398C26.8398 16.8048 26.6399 15.7652 26.2783 14.772L24.399 15.4561L22.5196 16.1403C22.7331 16.7265 22.8398 17.304 22.8398 17.9006H24.8398ZM23.6898 21.9057L25.3067 23.0829C26.3771 21.6127 26.8398 19.8371 26.8398 17.9006H24.8398H22.8398C22.8398 19.1982 22.5359 20.0927 22.073 20.7285L23.6898 21.9057ZM20.604 24.1997L21.2851 26.0802C22.8888 25.4993 24.2946 24.4729 25.3067 23.0829L23.6898 21.9057L22.073 20.7285C21.5516 21.4445 20.8108 21.9976 19.9228 22.3193L20.604 24.1997ZM16.2915 24.839V26.839C17.9955 26.839 19.6847 26.6574 21.2826 26.0811L20.604 24.1997L19.9254 22.3184C18.9166 22.6822 17.7308 22.839 16.2915 22.839V24.839ZM15.3331 24.8202L15.1379 26.8107C15.4534 26.8416 15.8887 26.839 16.2915 26.839V24.839V22.839C16.0563 22.839 15.8814 22.839 15.7414 22.8369C15.6731 22.8359 15.6218 22.8345 15.5831 22.8329C15.5433 22.8312 15.5275 22.8297 15.5284 22.8298L15.3331 24.8202ZM14.509 24.8014V26.8014C14.9199 26.8014 15.068 26.8038 15.1379 26.8107L15.3331 24.8202L15.5284 22.8298C15.2149 22.799 14.8264 22.8014 14.509 22.8014V24.8014ZM14.509 30.8373H16.509V24.8014H14.509H12.509V30.8373H14.509ZM14.2981 31.1006L14.5758 33.0812C15.6528 32.9302 16.6887 31.9268 16.4881 30.5491L14.509 30.8373L12.5299 31.1255C12.3676 30.0111 13.2118 29.2333 14.0205 29.1199L14.2981 31.1006ZM14.2215 31.1006V33.1006H14.2981V31.1006V29.1006H14.2215V31.1006ZM10.5798 31.1006V33.1006H14.2215V31.1006V29.1006H10.5798V31.1006ZM10.3498 30.8561H8.34981C8.34981 31.2004 8.42349 31.8629 8.96408 32.4264C9.52135 33.0073 10.2042 33.1006 10.5798 33.1006V31.1006V29.1006C10.8021 29.1006 11.3699 29.1563 11.8505 29.6572C12.3145 30.1408 12.3498 30.6811 12.3498 30.8561H10.3498ZM14.5281 21.2476H16.5281V14.9296H14.5281H12.5281V21.2476H14.5281ZM14.5856 21.2516L14.7259 19.2566L14.6685 19.2525L14.5281 21.2476L14.3878 23.2427L14.4453 23.2467L14.5856 21.2516ZM15.2756 21.2852V19.2852C15.1459 19.2852 14.9896 19.2751 14.7261 19.2566L14.5856 21.2516L14.4451 23.2467C14.6747 23.2629 14.9784 23.2852 15.2756 23.2852V21.2852ZM16.2915 21.2852V19.2852H15.2756V21.2852V23.2852H16.2915V21.2852ZM18.4956 20.9467L17.8892 19.0409C17.3821 19.2023 16.8395 19.2852 16.2915 19.2852V21.2852V23.2852C17.2385 23.2852 18.1909 23.1425 19.1021 22.8526L18.4956 20.9467ZM20.0673 19.9501L18.5785 18.6147C18.3812 18.8346 18.1652 18.9632 17.9637 19.0188L18.4956 20.9467L19.0276 22.8747C20.0527 22.5918 20.9101 22.0058 21.5561 21.2856L20.0673 19.9501ZM20.6615 18.0134H18.6615C18.6615 18.2769 18.6305 18.44 18.6024 18.5322C18.5768 18.6161 18.5535 18.6431 18.5481 18.6494L20.0673 19.9501L21.5865 21.2509C22.398 20.3032 22.6615 19.1402 22.6615 18.0134H20.6615ZM20.2206 16.3399L18.5087 17.374C18.6186 17.5558 18.6688 17.7576 18.6626 17.9477L20.6615 18.0134L22.6604 18.0791C22.6925 17.1034 22.436 16.1393 21.9326 15.3058L20.2206 16.3399ZM18.879 15.2681L18.1815 17.1425C18.3234 17.1953 18.4526 17.2933 18.5564 17.4491L20.2206 16.3399L21.8849 15.2307C21.337 14.4087 20.5462 13.7545 19.5765 13.3937L18.879 15.2681ZM16.6173 14.892L16.6652 16.8915C17.2308 16.8779 17.7226 16.9606 18.1399 17.1265L18.879 15.2681L19.6181 13.4097C18.617 13.0115 17.5755 12.8685 16.5695 12.8926L16.6173 14.892ZM15.314 14.9108L15.4171 16.9082C15.7186 16.8926 16.1017 16.892 16.6173 16.892V14.892V12.892C16.1363 12.892 15.6377 12.8915 15.2109 12.9135L15.314 14.9108ZM14.5281 14.9296L14.8057 16.9103C14.7909 16.9124 14.821 16.9076 14.8989 16.9049C14.9728 16.9022 15.0792 16.9017 15.216 16.9084L15.314 14.9108L15.412 12.9132C14.9298 12.8896 14.5329 12.9094 14.2506 12.949L14.5281 14.9296ZM34.9602 19.462L34.5642 21.4224C35.054 21.5213 35.4851 21.6704 35.873 21.8734L36.8002 20.1013L37.7274 18.3292C36.9653 17.9305 36.1696 17.6659 35.3561 17.5016L34.9602 19.462ZM32.8135 19.2175V21.2175C33.3686 21.2175 33.9349 21.289 34.5452 21.4185L34.9602 19.462L35.3752 17.5055C34.5671 17.3341 33.7151 17.2175 32.8135 17.2175V19.2175ZM31.6635 19.3492L32.1634 21.2857C32.3844 21.2286 32.5807 21.2085 32.7155 21.2151L32.8135 19.2175L32.9115 17.2199C32.2796 17.189 31.6709 17.2817 31.1635 17.4127L31.6635 19.3492ZM31.0693 19.7252L32.6974 20.8869C32.5075 21.153 32.2654 21.2635 32.1051 21.2998L31.6635 19.3492L31.2219 17.3985C30.5632 17.5477 29.8995 17.9214 29.4413 18.5636L31.0693 19.7252ZM30.916 20.2329H32.916C32.916 20.3682 32.8942 20.4747 32.8708 20.5521C32.8469 20.6308 32.8109 20.7138 32.7561 20.7998L31.0693 19.7252L29.3825 18.6506C29.0983 19.0968 28.916 19.654 28.916 20.2329H30.916ZM31.1077 20.7218L32.6965 19.5071C32.7257 19.5452 32.7753 19.6181 32.8207 19.7293C32.8666 19.8419 32.916 20.0142 32.916 20.2329H30.916H28.916C28.916 20.9969 29.2504 21.5854 29.5188 21.9365L31.1077 20.7218ZM31.7593 21.2295L32.6935 19.4611C32.6558 19.4412 32.6329 19.4254 32.6227 19.4175C32.6123 19.4095 32.6225 19.4156 32.6436 19.4409L31.1077 20.7218L29.5717 22.0028C29.9535 22.4605 30.4123 22.7798 30.8252 22.9979L31.7593 21.2295ZM33.1202 21.85L33.8769 19.9987C33.4589 19.8278 33.0517 19.6443 32.6706 19.4492L31.7593 21.2295L30.8481 23.0098C31.3486 23.266 31.8615 23.4961 32.3634 23.7013L33.1202 21.85ZM36.0718 23.2227L37.1173 21.5177C36.0725 20.8771 34.9343 20.3391 33.7418 19.9491L33.1202 21.85L32.4985 23.751C33.376 24.0379 34.2311 24.4401 35.0264 24.9277L36.0718 23.2227ZM37.586 24.7834L39.3238 23.7935C38.7865 22.8502 38.029 22.0868 37.131 21.5261L36.0718 23.2227L35.0127 24.9192C35.3797 25.1483 35.6571 25.4379 35.8482 25.7733L37.586 24.7834ZM38.0268 26.7201L40.026 26.7767C40.0549 25.7553 39.8221 24.7664 39.3679 23.8752L37.586 24.7834L35.8041 25.6915C35.9632 26.0037 36.037 26.3311 36.0276 26.6635L38.0268 26.7201ZM37.2793 29.221L38.9335 30.3451C39.6592 29.2772 40.0548 27.9872 40.0264 26.6767L38.0268 26.7201L36.0273 26.7635C36.0372 27.2206 35.8961 27.698 35.6251 28.0969L37.2793 29.221ZM35.1327 30.8945L35.8633 32.7562C37.0856 32.2766 38.1452 31.4508 38.9074 30.3826L37.2793 29.221L35.6513 28.0593C35.3401 28.4954 34.9047 28.8355 34.4021 29.0327L35.1327 30.8945ZM31.6635 31.4962V33.4962C33.2353 33.4962 34.6629 33.2616 35.9078 32.7381L35.1327 30.8945L34.3575 29.0508C33.7241 29.3171 32.8517 29.4962 31.6635 29.4962V31.4962ZM29.0568 31.2517L28.6717 33.2143C29.6739 33.4109 30.6663 33.4962 31.6635 33.4962V31.4962V29.4962C30.8974 29.4962 30.1648 29.431 29.4419 29.2892L29.0568 31.2517ZM27.1018 30.65L26.2662 32.4671C27.0402 32.823 27.8805 33.082 28.7251 33.224L29.0568 31.2517L29.3885 29.2794C28.8915 29.1958 28.3901 29.0411 27.9374 28.833L27.1018 30.65ZM26.891 30.2928L24.907 30.04C24.7495 31.2767 25.5593 32.0781 26.1238 32.3946L27.1018 30.65L28.0798 28.9055C28.376 29.0715 28.9942 29.6097 28.875 30.5455L26.891 30.2928ZM26.891 27.021H24.891V30.2928H26.891H28.891V27.021H26.891ZM26.9677 26.8517L25.873 25.1779C24.9764 25.7643 24.891 26.7008 24.891 27.021H26.891H28.891C28.891 27.199 28.8636 27.4199 28.7698 27.6593C28.6744 27.9025 28.4704 28.2587 28.0624 28.5255L26.9677 26.8517ZM27.1402 26.8705L28.2349 25.1968C28.1054 25.1121 27.8033 24.9289 27.3766 24.8591C26.8743 24.777 26.3366 24.8747 25.8729 25.178L26.9677 26.8517L28.0624 28.5255C27.6563 28.7911 27.176 28.8794 26.7312 28.8067C26.362 28.7464 26.1174 28.5914 26.0454 28.5443L27.1402 26.8705ZM29.5168 27.7919L29.9521 25.8398C29.2993 25.6943 28.7055 25.4656 28.1417 25.1394L27.1402 26.8705L26.1386 28.6017C27.0698 29.1404 28.0477 29.5135 29.0816 29.744L29.5168 27.7919ZM31.7785 28.074V26.074C31.1729 26.074 30.5747 25.9994 30.0168 25.8554L29.5168 27.7919L29.0169 29.7284C29.9157 29.9604 30.8507 30.074 31.7785 30.074V28.074ZM33.3693 27.8107L32.4885 26.0151C32.5333 25.9931 32.5133 26.0119 32.3835 26.0339C32.257 26.0553 32.0613 26.074 31.7785 26.074V28.074V30.074C32.6262 30.074 33.5024 29.9731 34.2501 29.6063L33.3693 27.8107ZM33.8868 27.021H31.8868C31.8868 26.5653 32.1472 26.1588 32.5805 25.9728L33.3693 27.8107L34.1582 29.6486C35.2048 29.1994 35.8868 28.1535 35.8868 27.021H33.8868ZM33.4268 26.2688L32.1802 27.8328C32.2162 27.8615 32.1495 27.8176 32.0686 27.6861C31.9754 27.5348 31.8868 27.3031 31.8868 27.021H33.8868H35.8868C35.8868 25.8776 35.1933 25.1193 34.6735 24.7049L33.4268 26.2688ZM31.5485 25.3851L30.8374 27.2544C31.29 27.4265 31.632 27.5669 31.8826 27.6833C32.1594 27.8118 32.2183 27.8632 32.1802 27.8328L33.4268 26.2688L34.6734 24.7049C34.3286 24.43 33.918 24.2182 33.5671 24.0553C33.19 23.8802 32.7462 23.7008 32.2596 23.5158L31.5485 25.3851ZM28.8268 24.0312L27.7149 25.6936C28.6984 26.3515 29.7528 26.8798 30.8941 27.275L31.5485 25.3851L32.2029 23.4952C31.3892 23.2134 30.6419 22.8391 29.9388 22.3688L28.8268 24.0312ZM27.3702 22.4329L25.6323 23.4228C26.1428 24.319 26.8438 25.0876 27.6841 25.6726L28.8268 24.0312L29.9696 22.3899C29.6215 22.1475 29.3258 21.8254 29.108 21.443L27.3702 22.4329ZM26.9293 20.515L24.9302 20.4568C24.9008 21.4653 25.1363 22.4544 25.5882 23.3411L27.3702 22.4329L29.1521 21.5248C28.9907 21.2081 28.9195 20.8809 28.9285 20.5732L26.9293 20.515ZM27.581 18.2398L25.8706 17.2031C25.2731 18.1891 24.9293 19.3156 24.9293 20.515H26.9293H28.9293C28.9293 20.0973 29.0456 19.6819 29.2914 19.2764L27.581 18.2398ZM29.5935 16.5099L28.7632 14.6903C27.6067 15.218 26.592 16.0699 25.8942 17.1652L27.581 18.2398L29.2678 19.3144C29.5284 18.9053 29.9319 18.5538 30.4237 18.3294L29.5935 16.5099ZM32.986 15.8517V13.8517C31.4435 13.8517 29.9729 14.0829 28.6977 14.7217L29.5935 16.5099L30.4893 18.298C31.0158 18.0343 31.8068 17.8517 32.986 17.8517V15.8517ZM35.3627 16.021L35.6469 14.0413C34.7656 13.9147 33.8656 13.8517 32.986 13.8517V15.8517V17.8517C33.6781 17.8517 34.3881 17.9015 35.0784 18.0007L35.3627 16.021ZM37.011 16.4534L37.7533 14.5963C37.0893 14.3309 36.3716 14.1359 35.6221 14.0379L35.3627 16.021L35.1033 18.0041C35.5038 18.0565 35.8977 18.1623 36.2687 18.3106L37.011 16.4534ZM37.2027 16.6227L38.9846 15.7145C38.8514 15.4533 38.6723 15.2245 38.4681 15.0384C38.2754 14.8629 37.9485 14.6241 37.4874 14.511L37.011 16.4534L36.5345 18.3959C36.1501 18.3016 35.9 18.1098 35.7743 17.9954C35.6372 17.8704 35.5155 17.7168 35.4207 17.5308L37.2027 16.6227ZM37.2027 16.6227L39.155 16.1889L39.155 16.1888L37.2027 16.6227L35.2503 17.0565L35.2503 17.0566L37.2027 16.6227ZM37.241 16.8483H39.241C39.241 16.4784 39.1477 16.1561 39.1407 16.1289L37.2027 16.6227L35.2646 17.1166C35.2672 17.1266 35.2686 17.1324 35.2699 17.1375C35.2711 17.1423 35.2715 17.144 35.2715 17.1438C35.2714 17.1436 35.2707 17.1405 35.2695 17.1351C35.2683 17.1298 35.2666 17.1216 35.2646 17.111C35.2572 17.0723 35.241 16.9773 35.241 16.8483H37.241ZM37.241 19.9133H39.241V16.8483H37.241H35.241V19.9133H37.241ZM37.1452 20.1013L38.2399 21.7751C38.9228 21.3284 39.241 20.5877 39.241 19.9133H37.241H35.241C35.241 19.6186 35.3139 19.3464 35.4327 19.1132C35.55 18.8831 35.7455 18.627 36.0504 18.4275L37.1452 20.1013ZM36.8002 20.1013L35.9194 21.8969C36.6536 22.2571 37.3475 22.1042 37.5712 22.0554L37.1452 20.1013L36.7192 18.1472C36.6889 18.1538 36.7826 18.1295 36.9367 18.1295C37.1248 18.1295 37.3943 18.1651 37.6809 18.3057L36.8002 20.1013Z" fill="var(--stroke-0, black)" mask="url(#path-1-inside-1_0_388)"/>
</g>
</g>
<defs>
<clipPath id="clip0_0_388">
<rect width="46" height="44" fill="white"/>
</clipPath>
</defs>
</svg>
