<svg preserveAspectRatio="none" width="100%" height="100%" overflow="visible" style="display: block;" viewBox="0 0 46 44" fill="none" xmlns="http://www.w3.org/2000/svg">
<g id="Subtract">
<mask id="path-1-inside-1_0_452" fill="white">
<path fill-rule="evenodd" clip-rule="evenodd" d="M37.8542 0H8.14583C3.64167 0 0 3.57265 0 7.99145V36.0085C0 40.4274 3.64167 44 8.14583 44H37.8542C42.3583 44 46 40.4274 46 36.0085V7.99145C46 3.57265 42.3583 0 37.8542 0ZM18.4769 26.3245H11.3469L9.89025 30.7621C9.85191 30.9313 9.69858 31.0441 9.52608 31.0253H5.92275C5.71192 31.0253 5.65442 30.9125 5.71192 30.6869L11.8836 13.3313C11.9411 13.1433 11.9986 12.9741 12.0752 12.7486L12.0752 12.7485L12.0752 12.7484C12.1519 12.3535 12.1902 11.9398 12.1902 11.5262C12.1711 11.4322 12.2477 11.3381 12.3436 11.3193H12.4011H17.3077C17.4419 11.3193 17.5377 11.3757 17.5569 11.4698L24.5527 30.6493C24.6102 30.8561 24.5527 30.9501 24.3611 30.9501H20.3552C20.2211 30.9689 20.0869 30.8749 20.0486 30.7433L18.4769 26.2304V26.3245ZM12.4586 22.5826H17.3269C17.2119 22.1877 17.0586 21.7176 16.8861 21.2287C16.7136 20.721 16.5411 20.1757 16.3686 19.6116C16.2727 19.3202 16.1817 19.0334 16.0907 18.7467L16.0906 18.7464C15.9996 18.4598 15.9086 18.1731 15.8127 17.8817C15.6211 17.2988 15.4486 16.7535 15.2952 16.2082C15.2274 15.9753 15.1633 15.7497 15.1013 15.5315L15.1013 15.5313C15.0232 15.2564 14.9484 14.9931 14.8736 14.7416H14.8352C14.6627 15.5501 14.4519 16.3587 14.1836 17.1672C14.0741 17.5109 13.9646 17.8601 13.8541 18.2126L13.854 18.2128L13.854 18.2129C13.6743 18.786 13.4918 19.3681 13.3019 19.9501C13.0527 20.9091 12.7461 21.7928 12.4586 22.5826ZM35.8416 24.6331H29.7658C29.8424 25.216 30.0341 25.7989 30.3599 26.3066C30.7049 26.8143 31.1841 27.2091 31.7591 27.4348C32.5257 27.7544 33.3691 27.9237 34.2124 27.9049C34.8833 27.8861 35.5541 27.8297 36.2057 27.698C36.7999 27.6228 37.3749 27.4724 37.9116 27.2655C38.0074 27.1903 38.0649 27.2279 38.0649 27.416V30.2929C38.0649 30.3681 38.0458 30.4433 38.0266 30.5185L38.0266 30.5185C37.9883 30.5749 37.9499 30.6126 37.8924 30.6502C37.2791 30.9134 36.6466 31.1014 35.9757 31.2143C35.0749 31.3835 34.1741 31.4587 33.2541 31.4399C31.7974 31.4399 30.5708 31.2143 29.5741 30.7818C28.6349 30.3869 27.8107 29.7664 27.1591 28.9955C26.5457 28.2621 26.1049 27.4348 25.8366 26.5322C25.5683 25.6485 25.4341 24.7271 25.4341 23.7869C25.4341 22.7715 25.5874 21.7749 25.9132 20.7972C26.2199 19.857 26.6991 18.992 27.3507 18.2211C27.9832 17.469 28.7691 16.8673 29.6699 16.4348C30.5708 16.0023 31.6441 15.8519 32.8708 15.8519C33.8866 15.8331 34.9024 16.0211 35.8416 16.4348C36.6274 16.7732 37.3174 17.2809 37.8541 17.939C38.3524 18.5784 38.7549 19.2929 39.0041 20.0826C39.2533 20.8348 39.3683 21.6057 39.3683 22.3767C39.3683 22.8279 39.3491 23.2228 39.3299 23.5801C39.3087 23.7779 39.2933 23.9469 39.2806 24.0871L39.2806 24.0877C39.2703 24.2004 39.2618 24.2944 39.2533 24.3698C39.2341 24.5014 39.1191 24.6143 38.9849 24.6143C38.9103 24.6143 38.7953 24.6222 38.64 24.6329C38.5559 24.6387 38.4601 24.6453 38.3524 24.6519C38.0458 24.6895 37.6816 24.7083 37.2408 24.7083C37.0271 24.7083 36.8089 24.6906 36.5841 24.6724C36.345 24.653 36.0984 24.6331 35.8416 24.6331ZM29.7658 21.8878H33.8099C34.3083 21.8878 34.6724 21.8878 34.9024 21.869C35.0558 21.8502 35.2091 21.8126 35.3433 21.7185V21.5305C35.3433 21.2861 35.3049 21.0604 35.2282 20.8348C34.8833 19.7818 33.8674 19.0673 32.7366 19.1049C31.6824 19.0484 30.6857 19.5937 30.1874 20.5339C29.9574 20.9664 29.8232 21.4177 29.7658 21.8878Z"/>
</mask>
<path d="M11.3469 26.3245V24.3245H9.89843L9.44667 25.7007L11.3469 26.3245ZM18.4769 26.3245V28.3245H20.4769V26.3245H18.4769ZM9.89025 30.7621L7.99001 30.1383L7.96054 30.2281L7.93966 30.3202L9.89025 30.7621ZM9.52608 31.0253L9.7428 29.0371L9.63476 29.0253H9.52608V31.0253ZM5.71192 30.6869L3.82751 30.0168L3.79662 30.1036L3.77385 30.193L5.71192 30.6869ZM11.8836 13.3313L13.768 14.0014L13.783 13.9591L13.7962 13.9162L11.8836 13.3313ZM12.0752 12.7486L13.9689 13.392L13.9726 13.381L12.0752 12.7486ZM12.0752 12.7485L10.1928 12.0727L10.1851 12.0943L10.1779 12.116L12.0752 12.7485ZM12.0752 12.7484L13.9576 13.4241L14.0094 13.28L14.0386 13.1296L12.0752 12.7484ZM12.1902 11.5262H14.1902V11.3244L14.1499 11.1267L12.1902 11.5262ZM12.3436 11.3193V9.31934H12.1492L11.9585 9.35676L12.3436 11.3193ZM17.5569 11.4698L15.5972 11.8693L15.627 12.0152L15.678 12.1551L17.5569 11.4698ZM24.5527 30.6493L26.4797 30.1136L26.4586 30.0378L26.4317 29.9639L24.5527 30.6493ZM20.3552 30.9501V28.9501H20.2158L20.0777 28.9695L20.3552 30.9501ZM20.0486 30.7433L21.9688 30.184L21.9543 30.1343L21.9373 30.0855L20.0486 30.7433ZM18.4769 26.2304L20.3656 25.5727L16.4769 26.2304H18.4769ZM17.3269 22.5826V24.5826H19.9925L19.2471 22.0233L17.3269 22.5826ZM12.4586 22.5826L10.5792 21.8984L9.60209 24.5826H12.4586V22.5826ZM16.8861 21.2287L14.9924 21.8722L14.9962 21.8832L15 21.8942L16.8861 21.2287ZM16.3686 19.6116L18.2812 19.0268L18.275 19.0068L18.2685 18.9869L16.3686 19.6116ZM16.0907 18.7467L17.9969 18.1415L17.9947 18.1345L17.9924 18.1275L16.0907 18.7467ZM16.0906 18.7464L14.1843 19.3516L14.1866 19.3586L14.1888 19.3656L16.0906 18.7464ZM15.8127 17.8817L13.9128 18.5064L13.9128 18.5065L15.8127 17.8817ZM15.2952 16.2082L17.2206 15.6668L17.2181 15.6579L17.2155 15.649L15.2952 16.2082ZM15.1013 15.5315L13.1757 16.072L13.1775 16.0781L15.1013 15.5315ZM15.1013 15.5313L17.0269 14.9908L17.0251 14.9847L15.1013 15.5313ZM14.8736 14.7416L16.7906 14.1716L16.3655 12.7416H14.8736V14.7416ZM14.8352 14.7416V12.7416H13.2169L12.8793 14.3243L14.8352 14.7416ZM14.1836 17.1672L12.2854 16.5372L12.2816 16.5487L12.2779 16.5602L14.1836 17.1672ZM13.8541 18.2126L15.7612 18.8149L15.7625 18.811L13.8541 18.2126ZM13.854 18.2128L15.7599 18.8192L15.7612 18.8151L13.854 18.2128ZM13.854 18.2129L11.9481 17.6065L11.9456 17.6145L13.854 18.2129ZM13.3019 19.9501L11.4005 19.3299L11.3816 19.388L11.3662 19.4472L13.3019 19.9501ZM29.7658 24.6331V22.6331H27.4855L27.7828 24.8939L29.7658 24.6331ZM30.3599 26.3066L28.6767 27.3868L28.6909 27.4089L28.7057 27.4307L30.3599 26.3066ZM31.7591 27.4348L32.5288 25.5888L32.5093 25.5807L32.4897 25.573L31.7591 27.4348ZM34.2124 27.9049L34.257 29.9044L34.2685 29.9041L34.2124 27.9049ZM36.2057 27.698L35.9546 25.7139L35.8817 25.7231L35.8098 25.7376L36.2057 27.698ZM37.9116 27.2655L38.6308 29.1317L38.9106 29.0239L39.1464 28.8388L37.9116 27.2655ZM38.0266 30.5185L36.0885 30.0246L36.0809 30.0545L36.0742 30.0846L38.0266 30.5185ZM38.0266 30.5185L39.6808 31.6427L39.8959 31.3261L39.979 30.9524L38.0266 30.5185ZM37.8924 30.6502L38.6812 32.488L38.8413 32.4193L38.9872 32.3239L37.8924 30.6502ZM35.9757 31.2143L35.6441 29.242L35.6252 29.2451L35.6065 29.2486L35.9757 31.2143ZM33.2541 31.4399L33.2949 29.4403L33.2745 29.4399H33.2541V31.4399ZM29.5741 30.7818L30.3702 28.9471L30.3598 28.9425L30.3493 28.9381L29.5741 30.7818ZM27.1591 28.9955L25.6249 30.2786L25.6317 30.2866L27.1591 28.9955ZM25.8366 26.5322L27.7537 25.9623L27.7503 25.9512L25.8366 26.5322ZM25.9132 20.7972L27.8107 21.4295L27.8147 21.4174L25.9132 20.7972ZM27.3507 18.2211L28.8782 19.5122L28.8815 19.5083L27.3507 18.2211ZM29.6699 16.4348L30.5355 18.2378H30.5355L29.6699 16.4348ZM32.8708 15.8519V17.8519H32.8893L32.9078 17.8515L32.8708 15.8519ZM35.8416 16.4348L35.0354 18.2651L35.0429 18.2684L35.0504 18.2716L35.8416 16.4348ZM37.8541 17.939L39.4315 16.7095L39.418 16.6922L39.4041 16.6751L37.8541 17.939ZM39.0041 20.0826L37.0968 20.6844L37.1011 20.698L37.1055 20.7116L39.0041 20.0826ZM39.3299 23.5801L41.3185 23.7934L41.3242 23.7404L41.327 23.6872L39.3299 23.5801ZM39.2806 24.0871L37.2888 23.9062L37.288 23.9158L39.2806 24.0871ZM39.2806 24.0877L41.2724 24.2686L41.2732 24.259L39.2806 24.0877ZM39.2533 24.3698L41.2324 24.658L41.237 24.6265L41.2405 24.5949L39.2533 24.3698ZM38.64 24.6329L38.7774 26.6282L38.7774 26.6282L38.64 24.6329ZM38.3524 24.6519L38.2301 22.6556L38.1693 22.6593L38.109 22.6667L38.3524 24.6519ZM36.5841 24.6724L36.4226 26.6659H36.4226L36.5841 24.6724ZM29.7658 21.8878L27.7805 21.6449L27.5062 23.8878H29.7658V21.8878ZM34.9024 21.869L35.0654 23.8623L35.1057 23.859L35.1459 23.8541L34.9024 21.869ZM35.3433 21.7185L36.491 23.3564L37.3433 22.7592V21.7185H35.3433ZM35.2282 20.8348L33.3277 21.4575L33.3311 21.4679L33.3346 21.4782L35.2282 20.8348ZM32.7366 19.1049L32.6297 21.102L32.7164 21.1066L32.8031 21.1038L32.7366 19.1049ZM30.1874 20.5339L31.9532 21.473L31.9545 21.4706L30.1874 20.5339ZM8.14583 0V2H37.8542V0V-2H8.14583V0ZM0 7.99145H2C2 4.71312 4.70999 2 8.14583 2V0V-2C2.57335 -2 -2 2.43218 -2 7.99145H0ZM0 36.0085H2V7.99145H0H-2V36.0085H0ZM8.14583 44V42C4.70999 42 2 39.2869 2 36.0085H0H-2C-2 41.5678 2.57335 46 8.14583 46V44ZM37.8542 44V42H8.14583V44V46H37.8542V44ZM46 36.0085H44C44 39.2869 41.29 42 37.8542 42V44V46C43.4267 46 48 41.5678 48 36.0085H46ZM46 7.99145H44V36.0085H46H48V7.99145H46ZM37.8542 0V2C41.29 2 44 4.71312 44 7.99145H46H48C48 2.43218 43.4267 -2 37.8542 -2V0ZM11.3469 26.3245V28.3245H18.4769V26.3245V24.3245H11.3469V26.3245ZM9.89025 30.7621L11.7905 31.3858L13.2472 26.9482L11.3469 26.3245L9.44667 25.7007L7.99001 30.1383L9.89025 30.7621ZM9.52608 31.0253L9.30936 33.0135C10.523 33.1458 11.5848 32.334 11.8408 31.2039L9.89025 30.7621L7.93966 30.3202C8.11898 29.5286 8.87416 28.9424 9.7428 29.0371L9.52608 31.0253ZM5.92275 31.0253V33.0253H9.52608V31.0253V29.0253H5.92275V31.0253ZM5.71192 30.6869L3.77385 30.193C3.72029 30.4032 3.53228 31.1802 3.99764 31.9629C4.5662 32.9191 5.53821 33.0253 5.92275 33.0253V31.0253V29.0253C6.09645 29.0253 6.9343 29.0752 7.43578 29.9185C7.64749 30.2746 7.68797 30.6104 7.69075 30.8066C7.69347 30.9989 7.66173 31.1346 7.64998 31.1807L5.71192 30.6869ZM11.8836 13.3313L9.99918 12.6612L3.82751 30.0168L5.71192 30.6869L7.59632 31.357L13.768 14.0014L11.8836 13.3313ZM12.0752 12.7486L10.1815 12.1052C10.1066 12.3256 10.039 12.5241 9.97101 12.7464L11.8836 13.3313L13.7962 13.9162C13.8431 13.7626 13.8905 13.6226 13.9689 13.392L12.0752 12.7486ZM12.0752 12.7485L10.1779 12.116L10.1778 12.1161L12.0752 12.7486L13.9726 13.381L13.9726 13.3809L12.0752 12.7485ZM12.0752 12.7484L10.1929 12.0727L10.1928 12.0727L12.0752 12.7485L13.9576 13.4242L13.9576 13.4241L12.0752 12.7484ZM12.1902 11.5262H10.1902C10.1902 11.8185 10.163 12.1042 10.1119 12.3672L12.0752 12.7484L14.0386 13.1296C14.1409 12.6028 14.1902 12.0612 14.1902 11.5262H12.1902ZM12.3436 11.3193L11.9585 9.35676C11.0212 9.54068 9.94225 10.5115 10.2306 11.9257L12.1902 11.5262L14.1499 11.1267C14.2762 11.746 14.0679 12.2754 13.8127 12.6092C13.5619 12.9373 13.1866 13.1921 12.7287 13.2819L12.3436 11.3193ZM12.4011 11.3193V9.31934H12.3436V11.3193V13.3193H12.4011V11.3193ZM17.3077 11.3193V9.31934H12.4011V11.3193V13.3193H17.3077V11.3193ZM17.5569 11.4698L19.5166 11.0702C19.2171 9.60136 17.8517 9.31934 17.3077 9.31934V11.3193V13.3193C17.1138 13.3193 16.7913 13.281 16.4471 13.0746C16.0702 12.8487 15.7133 12.4385 15.5972 11.8693L17.5569 11.4698ZM24.5527 30.6493L26.4317 29.9639L19.4358 10.7844L17.5569 11.4698L15.678 12.1551L22.6738 31.3346L24.5527 30.6493ZM24.3611 30.9501V32.9501C24.6716 32.9501 25.6486 32.8846 26.2418 31.9445C26.7547 31.1317 26.5353 30.3138 26.4797 30.1136L24.5527 30.6493L22.6258 31.1849C22.6108 31.131 22.5724 30.9798 22.5741 30.7677C22.5758 30.5478 22.6224 30.1848 22.8589 29.8099C23.3898 28.9686 24.2422 28.9501 24.3611 28.9501V30.9501ZM20.3552 30.9501V32.9501H24.3611V30.9501V28.9501H20.3552V30.9501ZM20.0486 30.7433L18.1284 31.3025C18.4197 32.303 19.4294 33.0994 20.6328 32.9308L20.3552 30.9501L20.0777 28.9695C21.0128 28.8384 21.7541 29.4468 21.9688 30.184L20.0486 30.7433ZM18.4769 26.2304L16.5882 26.8882L18.1598 31.4011L20.0486 30.7433L21.9373 30.0855L20.3656 25.5727L18.4769 26.2304ZM18.4769 26.3245H20.4769V26.2304H18.4769H16.4769V26.3245H18.4769ZM17.3269 22.5826V20.5826H12.4586V22.5826V24.5826H17.3269V22.5826ZM16.8861 21.2287L15 21.8942C15.1636 22.3577 15.3046 22.7913 15.4067 23.1418L17.3269 22.5826L19.2471 22.0233C19.1192 21.5841 18.9536 21.0775 18.7721 20.5633L16.8861 21.2287ZM16.3686 19.6116L14.456 20.1965C14.6317 20.771 14.8108 21.3377 14.9924 21.8722L16.8861 21.2287L18.7798 20.5853C18.6164 20.1044 18.4505 19.5805 18.2812 19.0268L16.3686 19.6116ZM16.0907 18.7467L14.1844 19.3519C14.275 19.6372 14.3691 19.9336 14.4687 20.2364L16.3686 19.6116L18.2685 18.9869C18.1764 18.7068 18.0884 18.4297 17.9969 18.1415L16.0907 18.7467ZM16.0906 18.7464L14.1888 19.3656L14.1889 19.3659L16.0907 18.7467L17.9924 18.1275L17.9923 18.1273L16.0906 18.7464ZM15.8127 17.8817L13.9128 18.5065C14.0049 18.7865 14.0929 19.0635 14.1843 19.3516L16.0906 18.7464L17.9968 18.1412C17.9063 17.856 17.8122 17.5597 17.7127 17.257L15.8127 17.8817ZM15.2952 16.2082L13.3699 16.7496C13.5346 17.3354 13.7173 17.912 13.9128 18.5064L15.8127 17.8817L17.7127 17.257C17.5248 16.6857 17.3625 16.1716 17.2206 15.6668L15.2952 16.2082ZM15.1013 15.5315L13.1775 16.0781C13.2392 16.2954 13.3051 16.5272 13.375 16.7675L15.2952 16.2082L17.2155 15.649C17.1498 15.4233 17.0874 15.204 17.0252 14.9849L15.1013 15.5315ZM15.1013 15.5313L13.1757 16.0718L13.1757 16.072L15.1013 15.5315L17.0269 14.991L17.0268 14.9908L15.1013 15.5313ZM14.8736 14.7416L12.9565 15.3115C13.0272 15.5493 13.0986 15.8005 13.1774 16.0779L15.1013 15.5313L17.0251 14.9847C16.9477 14.7122 16.8695 14.4369 16.7906 14.1716L14.8736 14.7416ZM14.8352 14.7416V16.7416H14.8736V14.7416V12.7416H14.8352V14.7416ZM14.1836 17.1672L16.0818 17.7972C16.377 16.9074 16.6061 16.0265 16.7912 15.1589L14.8352 14.7416L12.8793 14.3243C12.7194 15.0737 12.5268 15.8099 12.2854 16.5372L14.1836 17.1672ZM13.8541 18.2126L15.7625 18.811C15.8732 18.4577 15.9814 18.1129 16.0892 17.7742L14.1836 17.1672L12.2779 16.5602C12.1668 16.9089 12.056 17.2624 11.9457 17.6142L13.8541 18.2126ZM13.854 18.2128L15.7612 18.8151L15.7612 18.8148L13.8541 18.2126L11.9469 17.6103L11.9468 17.6105L13.854 18.2128ZM13.854 18.2129L15.7598 18.8193L15.7599 18.8192L13.854 18.2128L11.9482 17.6064L11.9481 17.6065L13.854 18.2129ZM13.3019 19.9501L15.2033 20.5703C15.3973 19.9756 15.5832 19.3826 15.7624 18.8113L13.854 18.2129L11.9456 17.6145C11.7653 18.1894 11.5862 18.7605 11.4005 19.3299L13.3019 19.9501ZM12.4586 22.5826L14.3379 23.2667C14.6319 22.4592 14.9643 21.5049 15.2376 20.4531L13.3019 19.9501L11.3662 19.4472C11.1411 20.3133 10.8603 21.1265 10.5792 21.8984L12.4586 22.5826ZM29.7658 24.6331V26.6331H35.8416V24.6331V22.6331H29.7658V24.6331ZM30.3599 26.3066L32.0431 25.2263C31.8984 25.0009 31.7927 24.7069 31.7487 24.3723L29.7658 24.6331L27.7828 24.8939C27.8922 25.7251 28.1698 26.5969 28.6767 27.3868L30.3599 26.3066ZM31.7591 27.4348L32.4897 25.573C32.3088 25.502 32.1443 25.3741 32.0141 25.1825L30.3599 26.3066L28.7057 27.4307C29.2655 28.2544 30.0594 28.9163 31.0285 29.2966L31.7591 27.4348ZM34.2124 27.9049L34.1678 25.9054C33.6176 25.9176 33.0509 25.8065 32.5288 25.5888L31.7591 27.4348L30.9894 29.2807C32.0006 29.7024 33.1206 29.9297 34.257 29.9044L34.2124 27.9049ZM36.2057 27.698L35.8098 25.7376C35.3064 25.8393 34.7572 25.8888 34.1564 25.9056L34.2124 27.9049L34.2685 29.9041C35.0093 29.8833 35.8018 29.82 36.6017 29.6584L36.2057 27.698ZM37.9116 27.2655L37.1923 25.3994C36.7979 25.5514 36.3798 25.66 35.9546 25.7139L36.2057 27.698L36.4569 29.6822C37.22 29.5856 37.9519 29.3934 38.6308 29.1317L37.9116 27.2655ZM38.0649 27.416H40.0649C40.0649 27.2848 40.0566 27.0757 39.9996 26.8372C39.9508 26.6335 39.808 26.1531 39.3554 25.7494C38.7939 25.2486 38.0966 25.1576 37.5499 25.2768C37.1066 25.3734 36.8052 25.5915 36.6768 25.6922L37.9116 27.2655L39.1464 28.8388C39.0659 28.902 38.8077 29.0965 38.402 29.185C37.8931 29.2959 37.2281 29.212 36.693 28.7346C36.2667 28.3545 36.1443 27.914 36.1093 27.7679C36.066 27.587 36.0649 27.4532 36.0649 27.416H38.0649ZM38.0649 30.2929H40.0649V27.416H38.0649H36.0649V30.2929H38.0649ZM38.0266 30.5185L39.9647 31.0123C39.9716 30.9852 40.0649 30.6628 40.0649 30.2929H38.0649H36.0649C36.0649 30.1639 36.0811 30.0689 36.0885 30.0303C36.0905 30.0196 36.0923 30.0114 36.0934 30.0061C36.0946 30.0008 36.0953 29.9976 36.0954 29.9974C36.0954 29.9972 36.095 29.9989 36.0938 30.0037C36.0925 30.0089 36.0911 30.0146 36.0885 30.0246L38.0266 30.5185ZM38.0266 30.5185L39.979 30.9524L39.979 30.9523L38.0266 30.5185L36.0742 30.0846L36.0742 30.0847L38.0266 30.5185ZM37.8924 30.6502L38.9872 32.3239C39.2639 32.1429 39.4929 31.9191 39.6808 31.6427L38.0266 30.5185L36.3724 29.3944C36.4136 29.3338 36.4771 29.251 36.5661 29.1637C36.6548 29.0767 36.7381 29.0154 36.7977 28.9764L37.8924 30.6502ZM35.9757 31.2143L36.3074 33.1866C37.1378 33.0469 37.9236 32.8132 38.6812 32.488L37.8924 30.6502L37.1036 28.8123C36.6345 29.0136 36.1554 29.156 35.6441 29.242L35.9757 31.2143ZM33.2541 31.4399L33.2132 33.4395C34.2713 33.4611 35.3096 33.3744 36.345 33.1799L35.9757 31.2143L35.6065 29.2486C34.8402 29.3926 34.0768 29.4563 33.2949 29.4403L33.2541 31.4399ZM29.5741 30.7818L28.778 32.6165C30.0879 33.1849 31.6003 33.4399 33.2541 33.4399V31.4399V29.4399C31.9945 29.4399 31.0536 29.2436 30.3702 28.9471L29.5741 30.7818ZM27.1591 28.9955L25.6317 30.2866C26.4771 31.2868 27.5552 32.1025 28.7989 32.6255L29.5741 30.7818L30.3493 28.9381C29.7147 28.6713 29.1444 28.246 28.6865 27.7043L27.1591 28.9955ZM25.8366 26.5322L23.9195 27.1022C24.2649 28.2639 24.8352 29.3344 25.6249 30.2786L27.1591 28.9955L28.6932 27.7124C28.2563 27.1899 27.9449 26.6056 27.7537 25.9623L25.8366 26.5322ZM25.4341 23.7869H23.4341C23.4341 24.9184 23.5957 26.0359 23.9229 27.1133L25.8366 26.5322L27.7503 25.9512C27.5408 25.261 27.4341 24.5358 27.4341 23.7869H25.4341ZM25.9132 20.7972L24.0158 20.1649C23.6191 21.3554 23.4341 22.5661 23.4341 23.7869H25.4341H27.4341C27.4341 22.9769 27.5557 22.1945 27.8107 21.4295L25.9132 20.7972ZM27.3507 18.2211L25.8233 16.93C25.0043 17.899 24.3984 18.9919 24.0118 20.177L25.9132 20.7972L27.8147 21.4174C28.0415 20.7221 28.3939 20.0851 28.8782 19.5122L27.3507 18.2211ZM29.6699 16.4348L28.8043 14.6318C27.6576 15.1823 26.6421 15.9564 25.82 16.9339L27.3507 18.2211L28.8815 19.5083C29.3244 18.9816 29.8806 18.5522 30.5355 18.2378L29.6699 16.4348ZM32.8708 15.8519V13.8519C31.5091 13.8519 30.0923 14.0134 28.8043 14.6318L29.6699 16.4348L30.5355 18.2378C31.0492 17.9912 31.779 17.8519 32.8708 17.8519V15.8519ZM35.8416 16.4348L36.6478 14.6045C35.4255 14.0661 34.1197 13.8284 32.8337 13.8522L32.8708 15.8519L32.9078 17.8515C33.6535 17.8377 34.3793 17.9761 35.0354 18.2651L35.8416 16.4348ZM37.8541 17.939L39.4041 16.6751C38.6527 15.7536 37.6967 15.0561 36.6327 14.5979L35.8416 16.4348L35.0504 18.2716C35.5582 18.4903 35.9822 18.8082 36.3041 19.203L37.8541 17.939ZM39.0041 20.0826L40.9114 19.4809C40.5798 18.4297 40.0526 17.5063 39.4315 16.7095L37.8541 17.939L36.2767 19.1686C36.6523 19.6505 36.9301 20.1561 37.0968 20.6844L39.0041 20.0826ZM39.3683 22.3767H41.3683C41.3683 21.4053 41.2231 20.421 40.9026 19.4537L39.0041 20.0826L37.1055 20.7116C37.2834 21.2485 37.3683 21.8061 37.3683 22.3767H39.3683ZM39.3299 23.5801L41.327 23.6872C41.3466 23.3229 41.3683 22.8839 41.3683 22.3767H39.3683H37.3683C37.3683 22.7719 37.3516 23.1228 37.3328 23.4729L39.3299 23.5801ZM39.2806 24.0871L41.2724 24.2679C41.2851 24.1278 41.2992 23.9734 41.3185 23.7934L39.3299 23.5801L37.3413 23.3667C37.3182 23.5824 37.3015 23.766 37.2888 23.9062L39.2806 24.0871ZM39.2806 24.0877L41.2732 24.259L41.2733 24.2583L39.2806 24.0871L37.288 23.9158L37.2879 23.9164L39.2806 24.0877ZM39.2533 24.3698L41.2405 24.5949C41.2521 24.4924 41.2629 24.3731 41.2724 24.2686L39.2806 24.0877L37.2887 23.9069C37.2778 24.0278 37.2714 24.0964 37.266 24.1447L39.2533 24.3698ZM38.9849 24.6143V26.6143C40.2403 26.6143 41.0893 25.6403 41.2324 24.658L39.2533 24.3698L37.2741 24.0816C37.3337 23.6724 37.5325 23.3263 37.7986 23.0783C38.0689 22.8264 38.479 22.6143 38.9849 22.6143V24.6143ZM38.64 24.6329L38.7774 26.6282C38.8586 26.6226 38.9139 26.6188 38.9579 26.6162C38.9787 26.615 38.9913 26.6145 38.9981 26.6142C39.0056 26.6139 38.9997 26.6143 38.9849 26.6143V24.6143V22.6143C38.8234 22.6143 38.6208 22.6295 38.5025 22.6376L38.64 24.6329ZM38.3524 24.6519L38.4748 26.6481C38.5909 26.641 38.6937 26.6339 38.7774 26.6282L38.64 24.6329L38.5026 22.6376C38.4181 22.6434 38.3293 22.6495 38.2301 22.6556L38.3524 24.6519ZM37.2408 24.7083V26.7083C37.7338 26.7083 38.1839 26.6875 38.5959 26.637L38.3524 24.6519L38.109 22.6667C37.9076 22.6914 37.6294 22.7083 37.2408 22.7083V24.7083ZM36.5841 24.6724L36.4226 26.6659C36.6319 26.6828 36.9321 26.7083 37.2408 26.7083V24.7083V22.7083C37.1221 22.7083 36.9859 22.6984 36.7455 22.6789L36.5841 24.6724ZM35.8416 24.6331V26.6331C36.005 26.6331 36.173 26.6457 36.4226 26.6659L36.5841 24.6724L36.7455 22.6789C36.5171 22.6604 36.1917 22.6331 35.8416 22.6331V24.6331ZM33.8099 21.8878V19.8878H29.7658V21.8878V23.8878H33.8099V21.8878ZM34.9024 21.869L34.7394 19.8756C34.6125 19.886 34.3537 19.8878 33.8099 19.8878V21.8878V23.8878C34.2628 23.8878 34.7324 23.8895 35.0654 23.8623L34.9024 21.869ZM35.3433 21.7185L34.1955 20.0806C34.3223 19.9918 34.4412 19.9422 34.5266 19.9152C34.5682 19.902 34.6015 19.8943 34.6233 19.8899C34.6449 19.8856 34.6579 19.884 34.659 19.8838L34.9024 21.869L35.1459 23.8541C35.4408 23.8179 35.9694 23.7219 36.491 23.3564L35.3433 21.7185ZM35.3433 21.5305H33.3433V21.7185H35.3433H37.3433V21.5305H35.3433ZM35.2282 20.8348L33.3346 21.4782C33.3398 21.4936 33.3412 21.5011 33.3416 21.5039C33.3421 21.5067 33.3433 21.5143 33.3433 21.5305H35.3433H37.3433C37.3433 21.0641 37.268 20.6213 37.1219 20.1914L35.2282 20.8348ZM32.7366 19.1049L32.8031 21.1038C33.0512 21.0955 33.2614 21.2552 33.3277 21.4575L35.2282 20.8348L37.1288 20.2121C36.5051 18.3083 34.6836 17.039 32.6701 17.106L32.7366 19.1049ZM30.1874 20.5339L31.9545 21.4706C32.0778 21.2379 32.3315 21.086 32.6297 21.102L32.7366 19.1049L32.8435 17.1077C31.0334 17.0109 29.2937 17.9496 28.4203 19.5973L30.1874 20.5339ZM29.7658 21.8878L31.751 22.1306C31.7809 21.8862 31.8466 21.6734 31.9532 21.473L30.1874 20.5339L28.4216 19.5948C28.0682 20.2594 27.8656 20.9492 27.7805 21.6449L29.7658 21.8878Z" fill="var(--stroke-0, black)" mask="url(#path-1-inside-1_0_452)"/>
</g>
</svg>
