<svg width="34" height="51" viewBox="0 0 34 51" fill="none" xmlns="http://www.w3.org/2000/svg">
<path d="M32 25.5003C32 23.593 31.2575 21.7676 29.9424 20.4251C28.628 19.0833 26.8498 18.3333 25 18.3333C23.1502 18.3333 21.372 19.0833 20.0576 20.4251C18.7425 21.7676 18 23.593 18 25.5003C18.0001 27.4074 18.7427 29.2321 20.0576 30.5745C21.372 31.9163 23.1502 32.6663 25 32.6663C26.8498 32.6663 28.628 31.9163 29.9424 30.5745C31.2573 29.2321 31.9999 27.4074 32 25.5003ZM34 25.5003C33.9999 27.9248 33.0565 30.2544 31.3711 31.9749C29.685 33.696 27.3935 34.6663 25 34.6663C22.6065 34.6663 20.315 33.696 18.6289 31.9749C16.9435 30.2544 16.0001 27.9248 16 25.5003C16 23.0758 16.9435 20.7463 18.6289 19.0257C20.3151 17.3044 22.6063 16.3333 25 16.3333C27.3937 16.3333 29.6849 17.3044 31.3711 19.0257C33.0565 20.7463 34 23.0758 34 25.5003Z" fill="black"/>
<path d="M16 34.6667H9C7.15023 34.6667 5.37203 35.4167 4.05762 36.7585C2.74251 38.101 2 39.9264 2 41.8337L2.00879 42.1901C2.09521 43.967 2.82484 45.6494 4.05762 46.9079C5.37204 48.2497 7.15022 48.9997 9 48.9997C10.8498 48.9997 12.628 48.2497 13.9424 46.9079C15.2573 45.5655 15.9999 43.7408 16 41.8337V34.6667ZM18 41.8337C17.9999 44.2581 17.0565 46.5878 15.3711 48.3083C13.685 50.0294 11.3935 50.9997 9 50.9997C6.60645 50.9997 4.31504 50.0294 2.62891 48.3083C1.17686 46.826 0.277441 44.8912 0.0556641 42.8337H0V41.8337C0 39.4091 0.943454 37.0796 2.62891 35.3591C4.31507 33.6378 6.60632 32.6667 9 32.6667H18V41.8337Z" fill="black"/>
<path d="M32 9.16699C32 7.2597 31.2575 5.4343 29.9424 4.0918C28.628 2.75001 26.8498 2 25 2H18V16.333L25 16.3333C26.8498 16.3333 28.628 15.583 29.9424 14.2412C31.2573 12.8988 31.9999 11.0741 32 9.16699ZM34 9.16699C33.9999 11.5915 33.0565 13.9211 31.3711 15.6416C29.685 17.3627 27.3935 18.3333 25 18.3333L16 18.333V0H25C27.3937 0 29.6849 0.97109 31.3711 2.69238C33.0565 4.41297 34 6.74244 34 9.16699Z" fill="black"/>
<path d="M18 0V18.333H9C6.60645 18.333 4.31504 17.3627 2.62891 15.6416C1.17686 14.1593 0.277441 12.2246 0.0556641 10.167H0V9.16699C0 6.74244 0.943454 4.41297 2.62891 2.69238C4.31507 0.97109 6.60632 0 9 0H18ZM9 2C7.15023 2 5.37203 2.75001 4.05762 4.0918C2.74251 5.4343 2 7.2597 2 9.16699L2.00879 9.52344C2.09521 11.3003 2.82484 12.9827 4.05762 14.2412C5.37204 15.583 7.15022 16.333 9 16.333H16V2H9Z" fill="black"/>
<path d="M18 16.333V34.6663L9 34.6667C6.60645 34.6667 4.31504 33.696 2.62891 31.9749C1.17686 30.4926 0.277441 28.5579 0.0556641 26.5003H0V25.5003C0 23.0758 0.943454 20.7463 2.62891 19.0257C4.31507 17.3044 6.60632 16.333 9 16.333H18ZM9 18.333C7.15023 18.333 5.37203 19.0833 4.05762 20.4251C2.74251 21.7676 2 23.593 2 25.5003L2.00879 25.8568C2.09521 27.6336 2.82484 29.316 4.05762 30.5745C5.37204 31.9163 7.15022 32.6667 9 32.6667L16 32.6663V18.333H9Z" fill="black"/>
</svg>
