<svg width="256" height="52" viewBox="0 0 256 52" fill="none" xmlns="http://www.w3.org/2000/svg">
<path d="M170.181 0.0214844H214.772V8.25499H197.083V51.5703H188.238V8.25499H170.181V0.0214844Z" fill="black"/>
<path d="M96.846 0.0214844V8.25499H61.1035V21.5002H89.8475V29.7337H61.1035V43.3369H96.846V51.5703H52.2591V8.25499H52.2554V0.0214844H96.846Z" fill="black"/>
<path d="M119.111 0.0429688H107.537L148.995 51.5918H160.603L139.871 25.8351L160.57 0.0822973L148.995 0.100192L134.076 18.6353L119.111 0.0429688Z" fill="black"/>
<path d="M130.989 36.8645L125.192 29.6548L107.504 51.6311H119.112L130.989 36.8645Z" fill="black"/>
<path fill-rule="evenodd" clip-rule="evenodd" d="M52.569 51.5703L11.0555 0H0V51.5488H8.84441V11.0185L41.4582 51.5703H52.569Z" fill="black"/>
<path d="M216.76 51.2557C216.112 51.2557 215.561 51.0312 215.1 50.5823C214.638 50.1333 214.41 49.5898 214.416 48.9459C214.41 48.3197 214.638 47.7821 215.1 47.3331C215.561 46.8842 216.112 46.6597 216.76 46.6597C217.383 46.6597 217.928 46.8842 218.389 47.3331C218.857 47.7821 219.091 48.3197 219.097 48.9459C219.091 49.3712 218.983 49.7611 218.767 50.1096C218.545 50.4641 218.264 50.7418 217.91 50.9426C217.562 51.1494 217.179 51.2557 216.76 51.2557Z" fill="black"/>
<path d="M231.855 29.5396H235.775V44.6451C235.769 46.0334 235.469 47.2208 234.882 48.2192C234.289 49.2175 233.467 49.9795 232.413 50.5171C231.364 51.0488 230.136 51.3206 228.739 51.3206C227.462 51.3206 226.318 51.0902 225.299 50.6412C224.281 50.1923 223.472 49.5188 222.879 48.6326C222.279 47.7465 221.985 46.6418 221.985 45.3186H225.911C225.917 45.8975 226.049 46.3996 226.3 46.819C226.552 47.2385 226.899 47.5574 227.343 47.7819C227.792 48.0064 228.308 48.1187 228.889 48.1187C229.518 48.1187 230.058 47.9887 230.495 47.7228C230.932 47.4629 231.268 47.073 231.502 46.5532C231.729 46.0393 231.85 45.4012 231.855 44.6451V29.5396Z" fill="black"/>
<path d="M251.901 35.447C251.805 34.5313 251.385 33.8165 250.654 33.3085C249.917 32.7945 248.964 32.5405 247.796 32.5405C246.975 32.5405 246.268 32.6646 245.681 32.9068C245.093 33.1549 244.638 33.4857 244.326 33.9051C244.015 34.3246 243.859 34.8031 243.846 35.3407C243.846 35.7896 243.954 36.1795 244.164 36.5045C244.374 36.8352 244.655 37.1129 245.021 37.3374C245.38 37.5678 245.782 37.7568 246.22 37.9104C246.663 38.064 247.107 38.194 247.55 38.3003L249.593 38.8025C250.415 38.9915 251.212 39.2456 251.973 39.5704C252.734 39.8895 253.423 40.2971 254.028 40.7874C254.634 41.2777 255.113 41.8685 255.466 42.5597C255.82 43.2508 256 44.0601 256 44.9935C256 46.2518 255.676 47.3565 255.023 48.3135C254.37 49.2646 253.429 50.009 252.194 50.5466C250.966 51.0783 249.48 51.35 247.73 51.35C246.04 51.35 244.566 51.0901 243.325 50.5703C242.079 50.0563 241.108 49.3001 240.407 48.3076C239.706 47.3152 239.328 46.1041 239.274 44.6804H243.158C243.212 45.4247 243.451 46.0451 243.859 46.5472C244.272 47.0434 244.811 47.4097 245.471 47.6578C246.136 47.9 246.879 48.0241 247.7 48.0241C248.557 48.0241 249.312 47.8941 249.965 47.6401C250.612 47.386 251.122 47.0317 251.487 46.5709C251.859 46.1159 252.045 45.5784 252.051 44.964C252.045 44.4028 251.877 43.936 251.553 43.5698C251.224 43.2036 250.768 42.8964 250.187 42.6483C249.6 42.4002 248.916 42.1756 248.137 41.9807L245.657 41.3545C243.865 40.8996 242.444 40.2085 241.407 39.281C240.365 38.3535 239.849 37.1248 239.849 35.5829C239.849 34.3187 240.197 33.2081 240.899 32.257C241.593 31.3059 242.546 30.5674 243.751 30.0416C244.961 29.51 246.328 29.25 247.85 29.25C249.396 29.25 250.75 29.51 251.919 30.0416C253.087 30.5674 254.005 31.3 254.669 32.2333C255.335 33.1667 255.682 34.236 255.7 35.447H251.901Z" fill="black"/>
</svg>
