<svg width="54" height="50" viewBox="0 0 54 50" fill="none" xmlns="http://www.w3.org/2000/svg">
<path d="M26.9999 49.1445C26.7087 49.1445 26.432 49.0176 26.2421 48.7969L0.191285 18.5273C-0.113038 18.1737 -0.132579 17.6566 0.14441 17.2812L11.4296 1.98828C11.5959 1.76288 11.8493 1.61773 12.1278 1.58789L26.8934 0.00585938C26.9642 -0.00171821 27.0356 -0.00171821 27.1063 0.00585938L41.872 1.58789C42.1505 1.61773 42.4039 1.76288 42.5702 1.98828L53.8554 17.2812C54.1323 17.6566 54.1128 18.1737 53.8085 18.5273L27.7577 48.7969L27.6825 48.875C27.4983 49.0472 27.2547 49.1445 26.9999 49.1445ZM51.7733 17.8281L41.2225 3.53027L26.9999 2.00586L12.7782 3.53027L2.22742 17.8281L26.9999 46.6123L51.7733 17.8281Z" fill="black"/>
<path d="M26.9999 49.1445C26.7087 49.1445 26.432 49.0176 26.2421 48.7969L0.191285 18.5273C-0.0636874 18.2311 -0.123029 17.8133 0.0399178 17.458C0.202901 17.1027 0.558205 16.875 0.949098 16.875H53.0507C53.4416 16.875 53.7969 17.1027 53.9598 17.458C54.1228 17.8133 54.0634 18.2311 53.8085 18.5273L27.7577 48.7969L27.6825 48.875C27.4983 49.0472 27.2547 49.1445 26.9999 49.1445ZM50.871 18.875H3.12878L26.9999 46.6123L50.871 18.875Z" fill="black"/>
<path d="M26.9999 49.1445C26.6247 49.1445 26.2814 48.9344 26.1102 48.6006L10.6063 18.3311C10.4476 18.0211 10.4609 17.6506 10.6425 17.3535C10.8241 17.0563 11.1477 16.875 11.496 16.875H42.5038C42.8521 16.875 43.1756 17.0563 43.3573 17.3535C43.5388 17.6506 43.5522 18.0211 43.3934 18.3311L27.8895 48.6006L27.8182 48.7197C27.6327 48.9838 27.3283 49.1445 26.9999 49.1445ZM40.868 18.875H13.1317L26.9999 45.9521L40.868 18.875Z" fill="black"/>
<path d="M11.496 18.875C11.0992 18.875 10.7395 18.6406 10.58 18.2773C10.4204 17.9141 10.4912 17.4904 10.7596 17.1982L26.2636 0.323242C26.4529 0.117203 26.72 0 26.9999 0C27.2797 0 27.5468 0.117203 27.7362 0.323242L43.2401 17.1982C43.5086 17.4904 43.5794 17.9141 43.4198 18.2773C43.2602 18.6406 42.9006 18.875 42.5038 18.875H11.496ZM26.9999 2.47852L13.7723 16.875H40.2274L26.9999 2.47852Z" fill="black"/>
<path d="M0.949098 18.875C0.573568 18.875 0.229433 18.6644 0.0584725 18.3301C-0.112348 17.9958 -0.0812645 17.5934 0.138551 17.2891L5.62293 9.69531C5.62674 9.69004 5.63073 9.68489 5.63464 9.67969L11.4354 1.98047C11.6988 1.63092 12.1591 1.49322 12.5712 1.64062C12.9831 1.78804 13.2512 2.18595 13.2333 2.62305L12.6005 17.916C12.5783 18.4518 12.1376 18.875 11.6014 18.875H0.949098ZM11.1034 5.74609L7.2323 10.8828L2.90515 16.875H10.6425L11.1034 5.74609Z" fill="black"/>
<path d="M53.0507 18.875C53.4262 18.875 53.7703 18.6644 53.9413 18.3301C54.1121 17.9958 54.081 17.5934 53.8612 17.2891L48.3768 9.69531C48.373 9.69004 48.369 9.68489 48.3651 9.67969L42.5643 1.98047C42.301 1.63092 41.8407 1.49322 41.4286 1.64062C41.0167 1.78804 40.7485 2.18595 40.7665 2.62305L41.3993 17.916C41.4215 18.4518 41.8621 18.875 42.3983 18.875H53.0507ZM42.8964 5.74609L46.7675 10.8828L51.0946 16.875H43.3573L42.8964 5.74609Z" fill="black"/>
<path d="M12.2323 18.5518C11.9475 18.8617 11.4986 18.9601 11.1102 18.7979C10.722 18.6356 10.4768 18.2474 10.4969 17.8271L11.2352 2.53418C11.259 2.04206 11.6379 1.64038 12.1278 1.58789L26.8934 0.00585938C27.3073 -0.0384512 27.705 0.17822 27.8925 0.549805C28.0799 0.921397 28.0178 1.37028 27.7362 1.67676L12.2323 18.5518ZM24.4696 2.27734L13.1923 3.48535L12.6288 15.165L24.4696 2.27734Z" fill="black"/>
<path d="M41.7675 18.5518C42.0523 18.8617 42.5011 18.9601 42.8895 18.7979C43.2777 18.6356 43.5229 18.2474 43.5028 17.8271L42.7645 2.53418C42.7408 2.04206 42.3618 1.64038 41.872 1.58789L27.1063 0.00585938C26.6925 -0.0384512 26.2948 0.17822 26.1073 0.549805C25.9199 0.921397 25.982 1.37028 26.2636 1.67676L41.7675 18.5518ZM29.5302 2.27734L40.8075 3.48535L41.371 15.165L29.5302 2.27734Z" fill="black"/>
</svg>
