<svg preserveAspectRatio="none" width="100%" height="100%" overflow="visible" style="display: block;" viewBox="0 0 36 47.9998" fill="none" xmlns="http://www.w3.org/2000/svg">
<path id="Vector" d="M18 1C27.3945 1 34.9998 8.56699 35 17.8877C35 27.2208 27.5513 34.7764 18.168 34.7764C15.5553 34.7763 13.4482 32.6726 13.4482 30.0918C13.4483 27.5102 15.5553 25.4082 18.168 25.4082C22.3722 25.4082 25.5605 22.0116 25.5605 17.8877C25.5604 13.7286 22.1692 10.3682 18 10.3682C13.8307 10.3682 10.4406 13.7287 10.4404 17.8867L10.4434 42.3164C10.4437 44.6342 9.20778 46.0331 7.64453 46.6445C6.40243 47.1302 4.96221 47.1119 3.74805 46.6201C3.90099 46.4188 4.04015 46.2064 4.15918 45.9814C4.51474 45.3094 4.70097 44.5601 4.70117 43.7998C4.70109 41.5544 3.11362 39.6863 1.00293 39.2295L1 17.8877L1.00586 17.4521C1.23852 8.33149 8.75222 1 18 1ZM18.1689 25.4141C15.578 25.4141 13.4669 27.5014 13.4668 30.0918C13.4668 32.6801 15.5777 34.7685 18.168 34.7686C20.7581 34.7686 22.8691 32.6812 22.8691 30.0918C22.869 27.5018 20.7583 25.4141 18.1689 25.4141Z" stroke="var(--stroke-0, black)" stroke-width="2"/>
</svg>
