<svg preserveAspectRatio="none" width="100%" height="100%" overflow="visible" style="display: block;" viewBox="0 0 46.4062 46.4062" fill="none" xmlns="http://www.w3.org/2000/svg">
<g id="invision seeklogo.com">
<g id="Subtract">
<mask id="path-1-inside-1_0_427" fill="white">
<path fill-rule="evenodd" clip-rule="evenodd" d="M4.2068 0H42.1995C44.5228 0 46.4062 1.8835 46.4062 4.2068V42.1995C46.4062 44.5228 44.5228 46.4062 42.1995 46.4062H4.2068C1.8835 46.4062 0 44.5228 0 42.1995V4.2068C0 1.8835 1.8835 0 4.2068 0ZM15.4687 14.6484C16.9992 14.6484 18.2812 13.4309 18.2812 11.8352C18.2812 10.2407 16.9992 9.02344 15.4687 9.02344C13.9381 9.02344 12.6562 10.2407 12.6562 11.8352C12.6562 13.4309 13.9381 14.6484 15.4687 14.6484ZM9.60503 29.6503C9.43852 30.361 9.35482 31.1285 9.35482 31.7547C9.35482 34.2216 10.6892 35.8594 13.5251 35.8594C15.877 35.8594 17.7836 34.4591 19.1563 32.1983L18.3181 35.571H22.9883L25.6574 24.8387C26.3245 22.1213 27.6172 20.7109 29.5774 20.7109C31.1204 20.7109 32.0796 21.6728 32.0796 23.2609C32.0796 23.7211 32.0377 24.2223 31.871 24.7659L30.4946 29.6989C30.2861 30.4097 30.2031 31.1209 30.2031 31.7892C30.2031 34.1312 31.5788 35.8442 34.4563 35.8442C36.9167 35.8442 38.8766 34.2563 39.9609 30.4518L38.1263 29.7416C37.2086 32.2905 36.4163 32.7513 35.7909 32.7513C35.1653 32.7513 34.8315 32.3335 34.8315 31.4978C34.8315 31.1217 34.9152 30.7041 35.0401 30.2013L36.3748 25.3952C36.7082 24.2667 36.8336 23.266 36.8336 22.3465C36.8336 18.7513 34.6648 16.875 32.0377 16.875C29.5774 16.875 27.0752 19.0998 25.8244 21.4412L26.7416 17.2385H19.6108L18.6098 20.9402H21.9461L19.8918 29.186C18.2784 32.7813 15.3149 32.8396 14.943 32.7561C14.3323 32.618 13.9418 32.3855 13.9418 31.59C13.9418 31.131 14.0251 30.4717 14.2337 29.6767L17.3616 17.2385H9.43852L8.4375 20.9402H11.7317L9.60503 29.6503Z"/>
</mask>
<path d="M9.60503 29.6503L7.66211 29.1759L7.65989 29.185L7.65776 29.1941L9.60503 29.6503ZM19.1563 32.1983L21.0973 32.6807L17.4468 31.1603L19.1563 32.1983ZM18.3181 35.571L16.3772 35.0886L15.7602 37.571H18.3181V35.571ZM22.9883 35.571V37.571H24.5518L24.9291 36.0537L22.9883 35.571ZM25.6574 24.8387L27.5983 25.3214L27.5997 25.3155L25.6574 24.8387ZM31.871 24.7659L29.9589 24.1796L29.9514 24.2039L29.9446 24.2284L31.871 24.7659ZM30.4946 29.6989L32.4137 30.262L32.4174 30.2493L32.421 30.2365L30.4946 29.6989ZM39.9609 30.4518L41.8843 31L42.3845 29.2454L40.6829 28.5867L39.9609 30.4518ZM38.1263 29.7416L38.8483 27.8765L36.9383 27.1371L36.2445 29.0641L38.1263 29.7416ZM35.0401 30.2013L33.113 29.6661L33.1056 29.6926L33.099 29.7193L35.0401 30.2013ZM36.3748 25.3952L34.4568 24.8286L34.4521 24.8443L34.4478 24.86L36.3748 25.3952ZM25.8244 21.4412L23.8704 21.0148L27.5885 22.3835L25.8244 21.4412ZM26.7416 17.2385L28.6956 17.6649L29.2251 15.2385H26.7416V17.2385ZM19.6108 17.2385V15.2385H18.0798L17.6802 16.7164L19.6108 17.2385ZM18.6098 20.9402L16.6792 20.4182L15.9971 22.9402H18.6098V20.9402ZM21.9461 20.9402L23.8868 21.4237L24.5055 18.9402H21.9461V20.9402ZM19.8918 29.186L21.7165 30.0048L21.7894 29.8423L21.8325 29.6695L19.8918 29.186ZM14.943 32.7561L14.5021 34.7069L14.5046 34.7074L14.943 32.7561ZM14.2337 29.6767L16.1682 30.1842L16.1708 30.1744L16.1733 30.1645L14.2337 29.6767ZM17.3616 17.2385L19.3012 17.7262L19.9268 15.2385H17.3616V17.2385ZM9.43852 17.2385V15.2385H7.90752L7.50787 16.7164L9.43852 17.2385ZM8.4375 20.9402L6.50684 20.4182L5.82483 22.9402H8.4375V20.9402ZM11.7317 20.9402L13.6747 21.4146L14.2788 18.9402H11.7317V20.9402ZM42.1995 0V-2H4.2068V0V2H42.1995V0ZM46.4062 4.2068H48.4062C48.4062 0.778925 45.6273 -2 42.1995 -2V0V2C43.4182 2 44.4062 2.98807 44.4062 4.2068H46.4062ZM46.4062 42.1995H48.4062V4.2068H46.4062H44.4062V42.1995H46.4062ZM42.1995 46.4062V48.4062C45.6273 48.4062 48.4062 45.6273 48.4062 42.1995H46.4062H44.4062C44.4062 43.4182 43.4182 44.4062 42.1995 44.4062V46.4062ZM4.2068 46.4062V48.4062H42.1995V46.4062V44.4062H4.2068V46.4062ZM0 42.1995H-2C-2 45.6273 0.778925 48.4062 4.2068 48.4062V46.4062V44.4062C2.98807 44.4062 2 43.4182 2 42.1995H0ZM0 4.2068H-2V42.1995H0H2V4.2068H0ZM4.2068 0V-2C0.778926 -2 -2 0.778926 -2 4.2068H0H2C2 2.98807 2.98807 2 4.2068 2V0ZM18.2812 11.8352H16.2812C16.2812 12.2968 15.9244 12.6484 15.4687 12.6484V14.6484V16.6484C18.074 16.6484 20.2812 14.5649 20.2812 11.8352H18.2812ZM15.4687 9.02344V11.0234C15.9252 11.0234 16.2812 11.3756 16.2812 11.8352H18.2812H20.2812C20.2812 9.10575 18.0732 7.02344 15.4687 7.02344V9.02344ZM12.6562 11.8352H14.6562C14.6562 11.3754 15.0123 11.0234 15.4687 11.0234V9.02344V7.02344C12.864 7.02344 10.6562 9.10591 10.6562 11.8352H12.6562ZM15.4687 14.6484V12.6484C15.0131 12.6484 14.6562 12.2969 14.6562 11.8352H12.6562H10.6562C10.6562 14.5648 12.8631 16.6484 15.4687 16.6484V14.6484ZM9.35482 31.7547H11.3548C11.3548 31.2839 11.4204 30.6695 11.5523 30.1065L9.60503 29.6503L7.65776 29.1941C7.45663 30.0526 7.35482 30.9731 7.35482 31.7547H9.35482ZM13.5251 35.8594V33.8594C12.4929 33.8594 12.0335 33.5706 11.8203 33.3481C11.5922 33.1102 11.3548 32.6435 11.3548 31.7547H9.35482H7.35482C7.35482 33.3328 7.78461 34.9184 8.93271 36.1161C10.0956 37.3293 11.7214 37.8594 13.5251 37.8594V35.8594ZM19.1563 32.1983L17.4468 31.1603C16.303 33.044 14.9543 33.8594 13.5251 33.8594V35.8594V37.8594C16.7997 37.8594 19.2642 35.8741 20.8658 33.2364L19.1563 32.1983ZM18.3181 35.571L20.2591 36.0534L21.0973 32.6807L19.1563 32.1983L17.2154 31.716L16.3772 35.0886L18.3181 35.571ZM22.9883 35.571V33.571H18.3181V35.571V37.571H22.9883V35.571ZM25.6574 24.8387L23.7165 24.356L21.0474 35.0883L22.9883 35.571L24.9291 36.0537L27.5983 25.3214L25.6574 24.8387ZM29.5774 20.7109V18.7109C28.0536 18.7109 26.711 19.2856 25.6762 20.385C24.6991 21.4231 24.093 22.8225 23.7151 24.3619L25.6574 24.8387L27.5997 25.3155C27.8889 24.1375 28.2628 23.473 28.5889 23.1265C28.8573 22.8414 29.1411 22.7109 29.5774 22.7109V20.7109ZM32.0796 23.2609H34.0796C34.0796 22.063 33.7104 20.8781 32.8315 19.9865C31.9497 19.0918 30.7701 18.7109 29.5774 18.7109V20.7109V22.7109C29.7564 22.7109 29.8639 22.7388 29.9176 22.7589C29.9673 22.7775 29.9812 22.7928 29.9827 22.7943C29.9844 22.796 30.0037 22.8147 30.026 22.8761C30.0498 22.9413 30.0796 23.0638 30.0796 23.2609H32.0796ZM31.871 24.7659L33.7831 25.3522C34.0259 24.5604 34.0796 23.8481 34.0796 23.2609H32.0796H30.0796C30.0796 23.5942 30.0495 23.8842 29.9589 24.1796L31.871 24.7659ZM30.4946 29.6989L32.421 30.2365L33.7974 25.3034L31.871 24.7659L29.9446 24.2284L28.5682 29.1614L30.4946 29.6989ZM30.2031 31.7892H32.2031C32.2031 31.2842 32.266 30.7654 32.4137 30.262L30.4946 29.6989L28.5755 29.1359C28.3061 30.0539 28.2031 30.9577 28.2031 31.7892H30.2031ZM34.4563 35.8442V33.8442C33.4198 33.8442 32.9235 33.5455 32.682 33.2981C32.4292 33.0391 32.2031 32.5764 32.2031 31.7892H30.2031H28.2031C28.2031 33.344 28.6648 34.9088 29.8192 36.0918C30.985 37.2864 32.6152 37.8442 34.4563 37.8442V35.8442ZM39.9609 30.4518L38.0375 29.9036C37.5561 31.5926 36.9394 32.5708 36.3586 33.1139C35.8205 33.6171 35.2138 33.8442 34.4563 33.8442V35.8442V37.8442C36.1592 37.8442 37.7626 37.2774 39.0907 36.0355C40.376 34.8336 41.2814 33.1155 41.8843 31L39.9609 30.4518ZM38.1263 29.7416L37.4043 31.6067L39.2389 32.3169L39.9609 30.4518L40.6829 28.5867L38.8483 27.8765L38.1263 29.7416ZM35.7909 32.7513V34.7513C36.7296 34.7513 37.6062 34.3495 38.3347 33.5412C38.981 32.8241 39.5152 31.788 40.008 30.4191L38.1263 29.7416L36.2445 29.0641C35.8197 30.2441 35.4989 30.7129 35.3633 30.8634C35.3105 30.9219 35.3317 30.8803 35.4395 30.8296C35.5577 30.774 35.6862 30.7513 35.7909 30.7513V32.7513ZM34.8315 31.4978H32.8315C32.8315 32.1314 32.9498 32.9574 33.4948 33.6618C34.1106 34.4577 34.9937 34.7513 35.7909 34.7513V32.7513V30.7513C35.8554 30.7513 35.9995 30.7622 36.1793 30.8409C36.3692 30.9241 36.5361 31.056 36.6584 31.2141C36.8801 31.5007 36.8315 31.7 36.8315 31.4978H34.8315ZM35.0401 30.2013L33.099 29.7193C32.9714 30.2331 32.8315 30.8569 32.8315 31.4978H34.8315H36.8315C36.8315 31.3864 36.859 31.175 36.9811 30.6833L35.0401 30.2013ZM36.3748 25.3952L34.4478 24.86L33.113 29.6661L35.0401 30.2013L36.9671 30.7365L38.3019 25.9304L36.3748 25.3952ZM36.8336 22.3465H34.8336C34.8336 23.0751 34.7355 23.885 34.4568 24.8286L36.3748 25.3952L38.2929 25.9618C38.6809 24.6484 38.8336 23.4568 38.8336 22.3465H36.8336ZM32.0377 16.875V18.875C32.865 18.875 33.5175 19.1618 33.9692 19.6384C34.4216 20.1156 34.8336 20.9559 34.8336 22.3465H36.8336H38.8336C38.8336 20.1419 38.1612 18.2464 36.8724 16.8867C35.583 15.5264 33.8375 14.875 32.0377 14.875V16.875ZM25.8244 21.4412L27.5885 22.3835C28.0875 21.4494 28.8471 20.5275 29.7067 19.8577C30.5818 19.1759 31.3999 18.875 32.0377 18.875V16.875V14.875C30.2152 14.875 28.5521 15.6865 27.2482 16.7024C25.929 17.7303 24.8121 19.0916 24.0603 20.4989L25.8244 21.4412ZM26.7416 17.2385L24.7876 16.8121L23.8704 21.0148L25.8244 21.4412L27.7785 21.8676L28.6956 17.6649L26.7416 17.2385ZM19.6108 17.2385V19.2385H26.7416V17.2385V15.2385H19.6108V17.2385ZM18.6098 20.9402L20.5405 21.4623L21.5415 17.7606L19.6108 17.2385L17.6802 16.7164L16.6792 20.4182L18.6098 20.9402ZM21.9461 20.9402V18.9402H18.6098V20.9402V22.9402H21.9461V20.9402ZM19.8918 29.186L21.8325 29.6695L23.8868 21.4237L21.9461 20.9402L20.0054 20.4568L17.9511 28.7025L19.8918 29.186ZM14.943 32.7561L14.5046 34.7074C14.9388 34.805 15.4692 34.7836 15.9244 34.7197C16.4499 34.6458 17.0957 34.4849 17.7855 34.1686C19.2024 33.5188 20.7058 32.2571 21.7165 30.0048L19.8918 29.186L18.0671 28.3671C17.4644 29.7102 16.6793 30.2753 16.1181 30.5326C15.819 30.6698 15.5532 30.7325 15.3681 30.7585C15.1127 30.7944 15.1331 30.7489 15.3814 30.8047L14.943 32.7561ZM13.9418 31.59H11.9418C11.9418 32.318 12.1289 33.1602 12.7957 33.8303C13.3893 34.4268 14.1159 34.6196 14.5021 34.7069L14.943 32.7561L15.3839 30.8053C15.2944 30.785 15.2915 30.7781 15.3312 30.7955C15.3786 30.8162 15.5003 30.8774 15.6311 31.0089C15.7702 31.1486 15.8592 31.3072 15.906 31.4449C15.9476 31.5674 15.9418 31.6313 15.9418 31.59H13.9418ZM14.2337 29.6767L12.2991 29.1693C12.0592 30.0841 11.9418 30.918 11.9418 31.59H13.9418H15.9418C15.9418 31.3439 15.9911 30.8594 16.1682 30.1842L14.2337 29.6767ZM17.3616 17.2385L15.422 16.7507L12.2941 29.189L14.2337 29.6767L16.1733 30.1645L19.3012 17.7262L17.3616 17.2385ZM9.43852 17.2385V19.2385H17.3616V17.2385V15.2385H9.43852V17.2385ZM8.4375 20.9402L10.3682 21.4623L11.3692 17.7606L9.43852 17.2385L7.50787 16.7164L6.50684 20.4182L8.4375 20.9402ZM11.7317 20.9402V18.9402H8.4375V20.9402V22.9402H11.7317V20.9402ZM9.60503 29.6503L11.548 30.1247L13.6747 21.4146L11.7317 20.9402L9.78882 20.4658L7.66211 29.1759L9.60503 29.6503Z" fill="var(--stroke-0, black)" mask="url(#path-1-inside-1_0_427)"/>
</g>
</g>
</svg>
