<svg width="93" height="93" viewBox="0 0 93 93" fill="none" xmlns="http://www.w3.org/2000/svg">
<path fill-rule="evenodd" clip-rule="evenodd" d="M65.1268 90.3395C66.5376 90.889 68.1463 90.8538 69.5702 90.1687L88.0117 81.295C89.9495 80.3625 91.1818 78.4013 91.1818 76.2497V16.0803C91.1818 13.9287 89.9496 11.9675 88.0118 11.035L69.5702 2.16104C67.7015 1.26183 65.5144 1.48208 63.8742 2.67446C63.64 2.8448 63.4168 3.03498 63.2074 3.24456L27.9033 35.4532L12.5255 23.7802C11.0941 22.6935 9.09171 22.7827 7.76218 23.992L2.83004 28.4785C1.20377 29.9579 1.2019 32.5163 2.826 33.9981L16.1621 46.1648L2.826 58.3317C1.2019 59.8134 1.20377 62.3718 2.83004 63.8511L7.76218 68.3376C9.09171 69.5471 11.0941 69.6361 12.5255 68.5495L27.9033 56.8765L63.2074 89.0851C63.7659 89.6439 64.4216 90.0648 65.1268 90.3395ZM68.8023 25.8308L42.0146 46.1648L68.8023 66.4989V25.8308Z" stroke="black" stroke-width="3.21818" stroke-miterlimit="10"/>
</svg>
