<svg width="263" height="67" viewBox="0 0 263 67" fill="none" xmlns="http://www.w3.org/2000/svg">
<g clip-path="url(#clip0_5694_4283)">
<mask id="path-1-inside-1_5694_4283" fill="white">
<path d="M71.8043 33.1436C71.8043 30.6143 72.372 28.3504 73.5002 26.3593C74.6578 24.3461 76.2137 22.7828 78.1824 21.6766C80.1733 20.5483 82.4001 19.9805 84.8554 19.9805C87.7311 19.9805 90.2528 20.7179 92.4133 22.1929C94.5737 23.6677 96.0853 25.7104 96.9481 28.3134H91.0123C90.4224 27.0819 89.5893 26.1602 88.5053 25.5481C87.4509 24.936 86.2195 24.6263 84.8186 24.6263C83.3218 24.6263 81.9798 24.9803 80.8 25.6956C79.6423 26.3815 78.7354 27.3696 78.0717 28.6453C77.4303 29.921 77.1132 31.4254 77.1132 33.1436C77.1132 34.8619 77.4303 36.3367 78.0717 37.642C78.7354 38.9177 79.6423 39.9133 80.8 40.6285C81.9798 41.3143 83.3218 41.661 84.8186 41.661C86.2195 41.661 87.4509 41.3513 88.5053 40.7392C89.5893 40.0976 90.4224 39.1684 91.0123 37.9369H96.9481C96.0853 40.5696 94.5737 42.6196 92.4133 44.0944C90.275 45.5472 87.7533 46.2699 84.8554 46.2699C82.4001 46.2699 80.1733 45.7168 78.1824 44.6107C76.2137 43.4823 74.6578 41.919 73.5002 39.928C72.372 37.9369 71.8043 35.673 71.8043 33.1436ZM102.132 23.1883C101.225 23.1883 100.458 22.9081 99.8458 22.3403C99.2559 21.7504 98.961 21.0277 98.961 20.1649C98.961 19.3021 99.2559 18.5942 99.8458 18.0264C100.458 17.4364 101.225 17.1414 102.132 17.1414C103.039 17.1414 103.791 17.4364 104.381 18.0264C104.993 18.5942 105.302 19.3021 105.302 20.1649C105.302 21.0277 104.993 21.7504 104.381 22.3403C103.791 22.9081 103.039 23.1883 102.132 23.1883ZM104.676 25.6219V46.0487H99.5141V25.6219H104.676ZM119.253 25.3269C121.687 25.3269 123.654 26.1012 125.152 27.6498C126.648 29.1763 127.4 31.3148 127.4 34.0655V46.0487H122.239V34.766C122.239 33.1436 121.834 31.9048 121.022 31.0419C120.211 30.1571 119.106 29.7146 117.705 29.7146C116.304 29.7146 115.146 30.1571 114.312 31.0419C113.502 31.9048 113.096 33.1436 113.096 34.766V46.0487H107.935V25.6219H113.096V28.166C113.782 27.2811 114.66 26.5952 115.713 26.1012C116.797 25.585 117.977 25.3269 119.253 25.3269ZM149.455 35.3928C149.455 36.1302 149.403 36.7939 149.308 37.3839H134.376C134.502 38.8587 135.017 40.0164 135.925 40.8498C136.831 41.683 137.953 42.1035 139.279 42.1035C141.197 42.1035 142.56 41.2775 143.372 39.633H148.938C148.349 41.602 147.221 43.2243 145.547 44.5001C143.874 45.7537 141.824 46.3804 139.39 46.3804C137.421 46.3804 135.652 45.9527 134.081 45.09C132.533 44.2051 131.316 42.9662 130.431 41.366C129.569 39.7657 129.141 37.9222 129.141 35.8353C129.141 33.7483 129.569 31.8679 130.431 30.2677C131.294 28.6675 132.496 27.4433 134.045 26.5806C135.593 25.7177 137.377 25.2901 139.39 25.2901C141.403 25.2901 143.062 25.7104 144.588 26.5436C146.136 27.3769 147.331 28.5715 148.164 30.1201C149.027 31.6467 149.455 33.4017 149.455 35.3928ZM144.109 33.9179C144.087 32.5905 143.607 31.5361 142.671 30.747C141.735 29.9358 140.593 29.5303 139.243 29.5303C137.967 29.5303 136.883 29.921 135.998 30.7101C135.135 31.4696 134.613 32.5389 134.413 33.9179H144.109ZM176.745 25.3269C179.252 25.3269 181.265 26.1012 182.791 27.6498C184.34 29.1763 185.114 31.3148 185.114 34.0655V46.0487H179.952V34.766C179.952 33.1658 179.547 31.9491 178.736 31.1157C177.924 30.2529 176.818 29.8252 175.417 29.8252C174.016 29.8252 172.896 30.2529 172.063 31.1157C171.251 31.9491 170.846 33.1658 170.846 34.766V46.0487H165.685V34.766C165.685 33.1658 165.279 31.9491 164.468 31.1157C163.657 30.2529 162.55 29.8252 161.149 29.8252C159.748 29.8252 158.591 30.2529 157.758 31.1157C156.946 31.9491 156.541 33.1658 156.541 34.766V46.0487H151.38V25.6219H156.541V28.0922C157.204 27.2295 158.053 26.5584 159.085 26.0643C160.139 25.5703 161.296 25.3269 162.551 25.3269C164.15 25.3269 165.574 25.6734 166.827 26.3593C168.081 27.0229 169.054 27.9816 169.74 29.2353C170.403 28.0554 171.362 27.1115 172.615 26.3962C173.891 25.6809 175.269 25.3269 176.745 25.3269ZM186.839 35.7615C186.839 33.6967 187.245 31.8679 188.056 30.2677C188.889 28.6675 190.009 27.4433 191.41 26.5806C192.833 25.7177 194.419 25.2901 196.166 25.2901C197.693 25.2901 199.02 25.5998 200.149 26.2119C201.305 26.8239 202.227 27.5982 202.913 28.5347V25.6219H208.112V46.0487H202.913V43.062C202.249 44.0208 201.328 44.8171 200.149 45.4587C198.991 46.0707 197.656 46.3804 196.13 46.3804C194.412 46.3804 192.833 45.9381 191.41 45.0531C190.009 44.1682 188.889 42.9294 188.056 41.3291C187.245 39.7067 186.839 37.8484 186.839 35.7615ZM202.913 35.8353C202.913 34.5816 202.67 33.5123 202.176 32.6275C201.682 31.7204 201.018 31.0273 200.185 30.5626C199.352 30.0686 198.453 29.8252 197.494 29.8252C196.535 29.8252 195.651 30.0611 194.839 30.5258C194.028 30.9903 193.364 31.6835 192.849 32.5905C192.354 33.4755 192.111 34.53 192.111 35.7615C192.111 36.993 192.354 38.0697 192.849 39.0062C193.364 39.9133 194.028 40.6137 194.839 41.1079C195.673 41.602 196.557 41.8453 197.494 41.8453C198.43 41.8453 199.352 41.6093 200.185 41.1447C201.018 40.6507 201.682 39.9648 202.176 39.0799C202.67 38.1729 202.913 37.0889 202.913 35.8353ZM217.019 40.9677V37.0372L228.714 20.2976H234.546V36.6095H237.694V40.9751H234.546V46.056H229.539V40.9751H217.026L217.019 40.9677ZM229.856 25.6661L222.526 36.6095H229.856V25.6661ZM249.433 20.3124C252.138 20.3124 254.506 20.8434 256.549 21.8978C258.613 22.9524 260.198 24.4641 261.304 26.433C262.432 28.3724 263 30.6364 263 33.2174C263 35.7984 262.432 38.0623 261.304 40.0018C260.198 41.9191 258.613 43.4087 256.549 44.4632C254.506 45.5177 252.138 46.0487 249.433 46.0487H240.437V20.3124H249.433ZM249.249 41.661C251.954 41.661 254.041 40.9236 255.516 39.4486C256.99 37.9738 257.728 35.8943 257.728 33.2174C257.728 30.5405 256.99 28.4462 255.516 26.9493C254.041 25.4228 251.954 24.6633 249.249 24.6633H245.598V41.661H249.249Z"/>
<path d="M26.9577 0.60835C28.3661 -0.202784 30.0988 -0.202783 31.5071 0.60835L56.1938 14.8629C57.5947 15.6741 58.4648 17.1784 58.4648 18.8007V47.3097C58.4648 48.932 57.6021 50.4364 56.1938 51.2476L31.5071 65.5022C30.0988 66.3133 28.3661 66.3133 26.9577 65.5022L2.27101 51.2476C0.870053 50.4364 0 48.9321 0 47.3097V18.8007C1.53712e-05 17.1784 0.862699 15.6741 2.27101 14.8629L26.9577 0.60835ZM29.5155 12.5364C18.1031 12.5364 8.84823 21.7921 8.84823 33.2056C8.84824 38.7121 10.9626 43.8578 14.834 47.7693H14.8738V47.809C18.7849 51.6809 23.9301 53.7955 29.436 53.7955C40.8449 53.7955 50.1031 44.5397 50.1031 33.1262H50.0996C50.0996 31.6684 50.0923 30.2755 49.8037 28.8357C49.6594 28.1032 49.4826 26.815 49.0388 25.9165C48.8583 25.5485 48.6311 25.2453 48.3424 25.0721C46.1668 23.7695 44.6947 28.031 44.471 29.496C43.0854 38.6904 40.5526 42.6453 37.8249 45.5537C37.8249 45.5537 37.8212 45.5573 37.814 45.5682C37.6445 45.7486 37.4748 45.9217 37.3052 46.095C36.0785 47.2821 32.7301 50.0102 27.852 50.0787C23.9517 50.0246 20.0694 48.5234 17.0928 45.5465C14.116 42.5695 12.6151 38.6868 12.561 34.7861C12.6295 29.911 15.3608 26.5588 16.5443 25.3319C16.7175 25.1623 16.8907 24.9927 17.071 24.8231C17.0819 24.8158 17.0855 24.8123 17.0855 24.8123C19.9972 22.0807 23.9482 19.5475 33.1416 18.1619C34.6065 17.9418 38.864 16.4658 37.5651 14.29C37.3919 14.0013 37.0889 13.7739 36.7208 13.5936C35.8224 13.1498 34.5306 12.973 33.8018 12.8285C32.3659 12.5435 30.9731 12.5364 29.5155 12.5364ZM37.796 18.2629C37.7708 18.3387 37.7419 18.4144 37.7058 18.4902C36.7532 20.5073 33.1849 21.1317 33.1524 21.1353C30.4463 21.543 27.6898 22.2034 25.1785 23.3472C24.8501 23.5133 23.7245 24.1268 22.6096 25.2345C22.5951 25.2489 22.5844 25.2598 22.57 25.2705C22.5483 25.2921 22.5266 25.3174 22.5013 25.3427C22.4436 25.4041 22.3823 25.4654 22.3246 25.5303C18.5975 29.5321 18.7778 35.8939 22.7971 39.9137C26.7083 43.8253 32.8421 44.0995 36.8543 40.675C36.9084 40.6281 36.9625 40.5849 37.0167 40.5379L37.0131 40.5344C37.0455 40.5055 37.0817 40.4731 37.1142 40.4441C38.4527 39.228 39.178 37.8929 39.3619 37.532C40.5058 35.0206 41.1624 32.2637 41.5737 29.5574C41.5778 29.5187 42.2022 25.9523 44.2185 25.0035C44.2943 24.9675 44.37 24.9385 44.4458 24.9133C43.8359 23.5962 42.9881 22.3621 41.9021 21.276C41.8227 21.1966 41.7432 21.1244 41.6638 21.0451C41.5881 20.9657 41.5124 20.8826 41.433 20.8068C40.347 19.7207 39.113 18.8727 37.796 18.2629Z"/>
</mask>
<path d="M71.8043 33.1436C71.8043 30.6143 72.372 28.3504 73.5002 26.3593C74.6578 24.3461 76.2137 22.7828 78.1824 21.6766C80.1733 20.5483 82.4001 19.9805 84.8554 19.9805C87.7311 19.9805 90.2528 20.7179 92.4133 22.1929C94.5737 23.6677 96.0853 25.7104 96.9481 28.3134H91.0123C90.4224 27.0819 89.5893 26.1602 88.5053 25.5481C87.4509 24.936 86.2195 24.6263 84.8186 24.6263C83.3218 24.6263 81.9798 24.9803 80.8 25.6956C79.6423 26.3815 78.7354 27.3696 78.0717 28.6453C77.4303 29.921 77.1132 31.4254 77.1132 33.1436C77.1132 34.8619 77.4303 36.3367 78.0717 37.642C78.7354 38.9177 79.6423 39.9133 80.8 40.6285C81.9798 41.3143 83.3218 41.661 84.8186 41.661C86.2195 41.661 87.4509 41.3513 88.5053 40.7392C89.5893 40.0976 90.4224 39.1684 91.0123 37.9369H96.9481C96.0853 40.5696 94.5737 42.6196 92.4133 44.0944C90.275 45.5472 87.7533 46.2699 84.8554 46.2699C82.4001 46.2699 80.1733 45.7168 78.1824 44.6107C76.2137 43.4823 74.6578 41.919 73.5002 39.928C72.372 37.9369 71.8043 35.673 71.8043 33.1436ZM102.132 23.1883C101.225 23.1883 100.458 22.9081 99.8458 22.3403C99.2559 21.7504 98.961 21.0277 98.961 20.1649C98.961 19.3021 99.2559 18.5942 99.8458 18.0264C100.458 17.4364 101.225 17.1414 102.132 17.1414C103.039 17.1414 103.791 17.4364 104.381 18.0264C104.993 18.5942 105.302 19.3021 105.302 20.1649C105.302 21.0277 104.993 21.7504 104.381 22.3403C103.791 22.9081 103.039 23.1883 102.132 23.1883ZM104.676 25.6219V46.0487H99.5141V25.6219H104.676ZM119.253 25.3269C121.687 25.3269 123.654 26.1012 125.152 27.6498C126.648 29.1763 127.4 31.3148 127.4 34.0655V46.0487H122.239V34.766C122.239 33.1436 121.834 31.9048 121.022 31.0419C120.211 30.1571 119.106 29.7146 117.705 29.7146C116.304 29.7146 115.146 30.1571 114.312 31.0419C113.502 31.9048 113.096 33.1436 113.096 34.766V46.0487H107.935V25.6219H113.096V28.166C113.782 27.2811 114.66 26.5952 115.713 26.1012C116.797 25.585 117.977 25.3269 119.253 25.3269ZM149.455 35.3928C149.455 36.1302 149.403 36.7939 149.308 37.3839H134.376C134.502 38.8587 135.017 40.0164 135.925 40.8498C136.831 41.683 137.953 42.1035 139.279 42.1035C141.197 42.1035 142.56 41.2775 143.372 39.633H148.938C148.349 41.602 147.221 43.2243 145.547 44.5001C143.874 45.7537 141.824 46.3804 139.39 46.3804C137.421 46.3804 135.652 45.9527 134.081 45.09C132.533 44.2051 131.316 42.9662 130.431 41.366C129.569 39.7657 129.141 37.9222 129.141 35.8353C129.141 33.7483 129.569 31.8679 130.431 30.2677C131.294 28.6675 132.496 27.4433 134.045 26.5806C135.593 25.7177 137.377 25.2901 139.39 25.2901C141.403 25.2901 143.062 25.7104 144.588 26.5436C146.136 27.3769 147.331 28.5715 148.164 30.1201C149.027 31.6467 149.455 33.4017 149.455 35.3928ZM144.109 33.9179C144.087 32.5905 143.607 31.5361 142.671 30.747C141.735 29.9358 140.593 29.5303 139.243 29.5303C137.967 29.5303 136.883 29.921 135.998 30.7101C135.135 31.4696 134.613 32.5389 134.413 33.9179H144.109ZM176.745 25.3269C179.252 25.3269 181.265 26.1012 182.791 27.6498C184.34 29.1763 185.114 31.3148 185.114 34.0655V46.0487H179.952V34.766C179.952 33.1658 179.547 31.9491 178.736 31.1157C177.924 30.2529 176.818 29.8252 175.417 29.8252C174.016 29.8252 172.896 30.2529 172.063 31.1157C171.251 31.9491 170.846 33.1658 170.846 34.766V46.0487H165.685V34.766C165.685 33.1658 165.279 31.9491 164.468 31.1157C163.657 30.2529 162.55 29.8252 161.149 29.8252C159.748 29.8252 158.591 30.2529 157.758 31.1157C156.946 31.9491 156.541 33.1658 156.541 34.766V46.0487H151.38V25.6219H156.541V28.0922C157.204 27.2295 158.053 26.5584 159.085 26.0643C160.139 25.5703 161.296 25.3269 162.551 25.3269C164.15 25.3269 165.574 25.6734 166.827 26.3593C168.081 27.0229 169.054 27.9816 169.74 29.2353C170.403 28.0554 171.362 27.1115 172.615 26.3962C173.891 25.6809 175.269 25.3269 176.745 25.3269ZM186.839 35.7615C186.839 33.6967 187.245 31.8679 188.056 30.2677C188.889 28.6675 190.009 27.4433 191.41 26.5806C192.833 25.7177 194.419 25.2901 196.166 25.2901C197.693 25.2901 199.02 25.5998 200.149 26.2119C201.305 26.8239 202.227 27.5982 202.913 28.5347V25.6219H208.112V46.0487H202.913V43.062C202.249 44.0208 201.328 44.8171 200.149 45.4587C198.991 46.0707 197.656 46.3804 196.13 46.3804C194.412 46.3804 192.833 45.9381 191.41 45.0531C190.009 44.1682 188.889 42.9294 188.056 41.3291C187.245 39.7067 186.839 37.8484 186.839 35.7615ZM202.913 35.8353C202.913 34.5816 202.67 33.5123 202.176 32.6275C201.682 31.7204 201.018 31.0273 200.185 30.5626C199.352 30.0686 198.453 29.8252 197.494 29.8252C196.535 29.8252 195.651 30.0611 194.839 30.5258C194.028 30.9903 193.364 31.6835 192.849 32.5905C192.354 33.4755 192.111 34.53 192.111 35.7615C192.111 36.993 192.354 38.0697 192.849 39.0062C193.364 39.9133 194.028 40.6137 194.839 41.1079C195.673 41.602 196.557 41.8453 197.494 41.8453C198.43 41.8453 199.352 41.6093 200.185 41.1447C201.018 40.6507 201.682 39.9648 202.176 39.0799C202.67 38.1729 202.913 37.0889 202.913 35.8353ZM217.019 40.9677V37.0372L228.714 20.2976H234.546V36.6095H237.694V40.9751H234.546V46.056H229.539V40.9751H217.026L217.019 40.9677ZM229.856 25.6661L222.526 36.6095H229.856V25.6661ZM249.433 20.3124C252.138 20.3124 254.506 20.8434 256.549 21.8978C258.613 22.9524 260.198 24.4641 261.304 26.433C262.432 28.3724 263 30.6364 263 33.2174C263 35.7984 262.432 38.0623 261.304 40.0018C260.198 41.9191 258.613 43.4087 256.549 44.4632C254.506 45.5177 252.138 46.0487 249.433 46.0487H240.437V20.3124H249.433ZM249.249 41.661C251.954 41.661 254.041 40.9236 255.516 39.4486C256.99 37.9738 257.728 35.8943 257.728 33.2174C257.728 30.5405 256.99 28.4462 255.516 26.9493C254.041 25.4228 251.954 24.6633 249.249 24.6633H245.598V41.661H249.249Z" fill="#1A1A1C"/>
<path d="M71.8043 33.1436C71.8043 30.6143 72.372 28.3504 73.5002 26.3593C74.6578 24.3461 76.2137 22.7828 78.1824 21.6766C80.1733 20.5483 82.4001 19.9805 84.8554 19.9805C87.7311 19.9805 90.2528 20.7179 92.4133 22.1929C94.5737 23.6677 96.0853 25.7104 96.9481 28.3134H91.0123C90.4224 27.0819 89.5893 26.1602 88.5053 25.5481C87.4509 24.936 86.2195 24.6263 84.8186 24.6263C83.3218 24.6263 81.9798 24.9803 80.8 25.6956C79.6423 26.3815 78.7354 27.3696 78.0717 28.6453C77.4303 29.921 77.1132 31.4254 77.1132 33.1436C77.1132 34.8619 77.4303 36.3367 78.0717 37.642C78.7354 38.9177 79.6423 39.9133 80.8 40.6285C81.9798 41.3143 83.3218 41.661 84.8186 41.661C86.2195 41.661 87.4509 41.3513 88.5053 40.7392C89.5893 40.0976 90.4224 39.1684 91.0123 37.9369H96.9481C96.0853 40.5696 94.5737 42.6196 92.4133 44.0944C90.275 45.5472 87.7533 46.2699 84.8554 46.2699C82.4001 46.2699 80.1733 45.7168 78.1824 44.6107C76.2137 43.4823 74.6578 41.919 73.5002 39.928C72.372 37.9369 71.8043 35.673 71.8043 33.1436ZM102.132 23.1883C101.225 23.1883 100.458 22.9081 99.8458 22.3403C99.2559 21.7504 98.961 21.0277 98.961 20.1649C98.961 19.3021 99.2559 18.5942 99.8458 18.0264C100.458 17.4364 101.225 17.1414 102.132 17.1414C103.039 17.1414 103.791 17.4364 104.381 18.0264C104.993 18.5942 105.302 19.3021 105.302 20.1649C105.302 21.0277 104.993 21.7504 104.381 22.3403C103.791 22.9081 103.039 23.1883 102.132 23.1883ZM104.676 25.6219V46.0487H99.5141V25.6219H104.676ZM119.253 25.3269C121.687 25.3269 123.654 26.1012 125.152 27.6498C126.648 29.1763 127.4 31.3148 127.4 34.0655V46.0487H122.239V34.766C122.239 33.1436 121.834 31.9048 121.022 31.0419C120.211 30.1571 119.106 29.7146 117.705 29.7146C116.304 29.7146 115.146 30.1571 114.312 31.0419C113.502 31.9048 113.096 33.1436 113.096 34.766V46.0487H107.935V25.6219H113.096V28.166C113.782 27.2811 114.66 26.5952 115.713 26.1012C116.797 25.585 117.977 25.3269 119.253 25.3269ZM149.455 35.3928C149.455 36.1302 149.403 36.7939 149.308 37.3839H134.376C134.502 38.8587 135.017 40.0164 135.925 40.8498C136.831 41.683 137.953 42.1035 139.279 42.1035C141.197 42.1035 142.56 41.2775 143.372 39.633H148.938C148.349 41.602 147.221 43.2243 145.547 44.5001C143.874 45.7537 141.824 46.3804 139.39 46.3804C137.421 46.3804 135.652 45.9527 134.081 45.09C132.533 44.2051 131.316 42.9662 130.431 41.366C129.569 39.7657 129.141 37.9222 129.141 35.8353C129.141 33.7483 129.569 31.8679 130.431 30.2677C131.294 28.6675 132.496 27.4433 134.045 26.5806C135.593 25.7177 137.377 25.2901 139.39 25.2901C141.403 25.2901 143.062 25.7104 144.588 26.5436C146.136 27.3769 147.331 28.5715 148.164 30.1201C149.027 31.6467 149.455 33.4017 149.455 35.3928ZM144.109 33.9179C144.087 32.5905 143.607 31.5361 142.671 30.747C141.735 29.9358 140.593 29.5303 139.243 29.5303C137.967 29.5303 136.883 29.921 135.998 30.7101C135.135 31.4696 134.613 32.5389 134.413 33.9179H144.109ZM176.745 25.3269C179.252 25.3269 181.265 26.1012 182.791 27.6498C184.34 29.1763 185.114 31.3148 185.114 34.0655V46.0487H179.952V34.766C179.952 33.1658 179.547 31.9491 178.736 31.1157C177.924 30.2529 176.818 29.8252 175.417 29.8252C174.016 29.8252 172.896 30.2529 172.063 31.1157C171.251 31.9491 170.846 33.1658 170.846 34.766V46.0487H165.685V34.766C165.685 33.1658 165.279 31.9491 164.468 31.1157C163.657 30.2529 162.55 29.8252 161.149 29.8252C159.748 29.8252 158.591 30.2529 157.758 31.1157C156.946 31.9491 156.541 33.1658 156.541 34.766V46.0487H151.38V25.6219H156.541V28.0922C157.204 27.2295 158.053 26.5584 159.085 26.0643C160.139 25.5703 161.296 25.3269 162.551 25.3269C164.15 25.3269 165.574 25.6734 166.827 26.3593C168.081 27.0229 169.054 27.9816 169.74 29.2353C170.403 28.0554 171.362 27.1115 172.615 26.3962C173.891 25.6809 175.269 25.3269 176.745 25.3269ZM186.839 35.7615C186.839 33.6967 187.245 31.8679 188.056 30.2677C188.889 28.6675 190.009 27.4433 191.41 26.5806C192.833 25.7177 194.419 25.2901 196.166 25.2901C197.693 25.2901 199.02 25.5998 200.149 26.2119C201.305 26.8239 202.227 27.5982 202.913 28.5347V25.6219H208.112V46.0487H202.913V43.062C202.249 44.0208 201.328 44.8171 200.149 45.4587C198.991 46.0707 197.656 46.3804 196.13 46.3804C194.412 46.3804 192.833 45.9381 191.41 45.0531C190.009 44.1682 188.889 42.9294 188.056 41.3291C187.245 39.7067 186.839 37.8484 186.839 35.7615ZM202.913 35.8353C202.913 34.5816 202.67 33.5123 202.176 32.6275C201.682 31.7204 201.018 31.0273 200.185 30.5626C199.352 30.0686 198.453 29.8252 197.494 29.8252C196.535 29.8252 195.651 30.0611 194.839 30.5258C194.028 30.9903 193.364 31.6835 192.849 32.5905C192.354 33.4755 192.111 34.53 192.111 35.7615C192.111 36.993 192.354 38.0697 192.849 39.0062C193.364 39.9133 194.028 40.6137 194.839 41.1079C195.673 41.602 196.557 41.8453 197.494 41.8453C198.43 41.8453 199.352 41.6093 200.185 41.1447C201.018 40.6507 201.682 39.9648 202.176 39.0799C202.67 38.1729 202.913 37.0889 202.913 35.8353ZM217.019 40.9677V37.0372L228.714 20.2976H234.546V36.6095H237.694V40.9751H234.546V46.056H229.539V40.9751H217.026L217.019 40.9677ZM229.856 25.6661L222.526 36.6095H229.856V25.6661ZM249.433 20.3124C252.138 20.3124 254.506 20.8434 256.549 21.8978C258.613 22.9524 260.198 24.4641 261.304 26.433C262.432 28.3724 263 30.6364 263 33.2174C263 35.7984 262.432 38.0623 261.304 40.0018C260.198 41.9191 258.613 43.4087 256.549 44.4632C254.506 45.5177 252.138 46.0487 249.433 46.0487H240.437V20.3124H249.433ZM249.249 41.661C251.954 41.661 254.041 40.9236 255.516 39.4486C256.99 37.9738 257.728 35.8943 257.728 33.2174C257.728 30.5405 256.99 28.4462 255.516 26.9493C254.041 25.4228 251.954 24.6633 249.249 24.6633H245.598V41.661H249.249Z" stroke="#1A1A1C" stroke-width="4" mask="url(#path-1-inside-1_5694_4283)"/>
<path d="M26.9577 0.60835C28.3661 -0.202784 30.0988 -0.202783 31.5071 0.60835L56.1938 14.8629C57.5947 15.6741 58.4648 17.1784 58.4648 18.8007V47.3097C58.4648 48.932 57.6021 50.4364 56.1938 51.2476L31.5071 65.5022C30.0988 66.3133 28.3661 66.3133 26.9577 65.5022L2.27101 51.2476C0.870053 50.4364 0 48.9321 0 47.3097V18.8007C1.53712e-05 17.1784 0.862699 15.6741 2.27101 14.8629L26.9577 0.60835ZM29.5155 12.5364C18.1031 12.5364 8.84823 21.7921 8.84823 33.2056C8.84824 38.7121 10.9626 43.8578 14.834 47.7693H14.8738V47.809C18.7849 51.6809 23.9301 53.7955 29.436 53.7955C40.8449 53.7955 50.1031 44.5397 50.1031 33.1262H50.0996C50.0996 31.6684 50.0923 30.2755 49.8037 28.8357C49.6594 28.1032 49.4826 26.815 49.0388 25.9165C48.8583 25.5485 48.6311 25.2453 48.3424 25.0721C46.1668 23.7695 44.6947 28.031 44.471 29.496C43.0854 38.6904 40.5526 42.6453 37.8249 45.5537C37.8249 45.5537 37.8212 45.5573 37.814 45.5682C37.6445 45.7486 37.4748 45.9217 37.3052 46.095C36.0785 47.2821 32.7301 50.0102 27.852 50.0787C23.9517 50.0246 20.0694 48.5234 17.0928 45.5465C14.116 42.5695 12.6151 38.6868 12.561 34.7861C12.6295 29.911 15.3608 26.5588 16.5443 25.3319C16.7175 25.1623 16.8907 24.9927 17.071 24.8231C17.0819 24.8158 17.0855 24.8123 17.0855 24.8123C19.9972 22.0807 23.9482 19.5475 33.1416 18.1619C34.6065 17.9418 38.864 16.4658 37.5651 14.29C37.3919 14.0013 37.0889 13.7739 36.7208 13.5936C35.8224 13.1498 34.5306 12.973 33.8018 12.8285C32.3659 12.5435 30.9731 12.5364 29.5155 12.5364ZM37.796 18.2629C37.7708 18.3387 37.7419 18.4144 37.7058 18.4902C36.7532 20.5073 33.1849 21.1317 33.1524 21.1353C30.4463 21.543 27.6898 22.2034 25.1785 23.3472C24.8501 23.5133 23.7245 24.1268 22.6096 25.2345C22.5951 25.2489 22.5844 25.2598 22.57 25.2705C22.5483 25.2921 22.5266 25.3174 22.5013 25.3427C22.4436 25.4041 22.3823 25.4654 22.3246 25.5303C18.5975 29.5321 18.7778 35.8939 22.7971 39.9137C26.7083 43.8253 32.8421 44.0995 36.8543 40.675C36.9084 40.6281 36.9625 40.5849 37.0167 40.5379L37.0131 40.5344C37.0455 40.5055 37.0817 40.4731 37.1142 40.4441C38.4527 39.228 39.178 37.8929 39.3619 37.532C40.5058 35.0206 41.1624 32.2637 41.5737 29.5574C41.5778 29.5187 42.2022 25.9523 44.2185 25.0035C44.2943 24.9675 44.37 24.9385 44.4458 24.9133C43.8359 23.5962 42.9881 22.3621 41.9021 21.276C41.8227 21.1966 41.7432 21.1244 41.6638 21.0451C41.5881 20.9657 41.5124 20.8826 41.433 20.8068C40.347 19.7207 39.113 18.8727 37.796 18.2629Z" stroke="#1A1A1C" stroke-width="4" mask="url(#path-1-inside-1_5694_4283)"/>
</g>
<defs>
<clipPath id="clip0_5694_4283">
<rect width="263" height="66.1105" fill="white"/>
</clipPath>
</defs>
</svg>
