<svg width="36" height="48" viewBox="0 0 36 48" fill="none" xmlns="http://www.w3.org/2000/svg">
<path d="M18 0C27.9409 0 35.9998 8.00883 36 17.8877C36 27.7667 28.11 35.7763 18.168 35.7763C15.009 35.7763 12.4482 33.2307 12.4482 30.0918C12.4483 26.9519 15.0091 24.4082 18.168 24.4082C21.792 24.4082 24.5605 21.4877 24.5605 17.8877C24.5604 14.2868 21.6229 11.3682 18 11.3682C14.3771 11.3682 11.4406 14.2868 11.4404 17.8867L11.4434 42.3164C11.444 47.824 5.39957 49.329 2.09766 46.83C2.59146 46.4938 2.99602 46.0417 3.27539 45.5136C3.55471 44.9856 3.70101 44.3971 3.70117 43.7998C3.70107 41.7698 2.04584 40.124 0.00390625 40.122L0 17.8877C0.00016595 8.00783 8.0591 0 18 0ZM18 2C9.15182 2 2.00017 9.12421 2 17.8877L2.00293 38.4834C4.15841 39.2895 5.70109 41.3588 5.70117 43.7998C5.70094 44.5477 5.54952 45.2861 5.26367 45.9736C5.93786 46.0441 6.64013 45.9632 7.28027 45.7128C8.48324 45.2423 9.44368 44.1981 9.44336 42.3164L9.44043 17.8877C9.4406 13.1715 13.2843 9.36815 18 9.36815C22.7155 9.36815 26.5604 13.1703 26.5605 17.8877C26.5605 21.2949 24.6205 24.2831 21.7002 25.6367C23.0188 26.6745 23.8691 28.2801 23.8691 30.0918C23.8691 31.1624 23.5716 32.1613 23.0566 33.0136C29.4455 30.9584 34 24.9716 34 17.8877C33.9998 9.12514 26.8481 2 18 2ZM18.1689 26.414C16.124 26.4141 14.4669 28.0599 14.4668 30.0918C14.4668 32.1217 16.124 33.7685 18.168 33.7685C20.212 33.7685 21.8691 32.1228 21.8691 30.0918C21.869 28.0599 20.2119 26.414 18.1689 26.414Z" fill="black"/>
</svg>
