<svg preserveAspectRatio="none" width="100%" height="100%" overflow="visible" style="display: block;" viewBox="0 0 34 51" fill="none" xmlns="http://www.w3.org/2000/svg">
<g id="Frame 26">
<path id="Vector" d="M17 25.5C17 23.3341 17.8429 21.2568 19.3431 19.7253C20.8434 18.1937 22.8783 17.3333 25 17.3333C27.1217 17.3333 29.1566 18.1937 30.6569 19.7253C32.1571 21.2568 33 23.3341 33 25.5C33 27.6659 32.1571 29.7432 30.6569 31.2747C29.1566 32.8063 27.1217 33.6667 25 33.6667C22.8783 33.6667 20.8434 32.8063 19.3431 31.2747C17.8429 29.7432 17 27.6659 17 25.5V25.5Z" stroke="var(--stroke-0, black)" stroke-width="2"/>
<path id="Vector_2" d="M1 41.8333C1 39.6674 1.84285 37.5902 3.34315 36.0586C4.84344 34.5271 6.87827 33.6667 9 33.6667H17V41.8333C17 43.9993 16.1571 46.0765 14.6569 47.608C13.1566 49.1396 11.1217 50 9 50C6.87827 50 4.84344 49.1396 3.34315 47.608C1.84285 46.0765 1 43.9993 1 41.8333H1Z" stroke="var(--stroke-0, black)" stroke-width="2"/>
<path id="Vector_3" d="M17 1V17.3333H25C27.1217 17.3333 29.1566 16.4729 30.6569 14.9414C32.1571 13.4098 33 11.3326 33 9.16667C33 7.00073 32.1571 4.92351 30.6569 3.39196C29.1566 1.86041 27.1217 1 25 1L17 1Z" stroke="var(--stroke-0, black)" stroke-width="2"/>
<path id="Vector_4" d="M1 9.16667C1 11.3326 1.84285 13.4098 3.34315 14.9414C4.84344 16.4729 6.87827 17.3333 9 17.3333H17V1H9C6.87827 1 4.84344 1.86041 3.34315 3.39196C1.84285 4.92351 1 7.00073 1 9.16667H1Z" stroke="var(--stroke-0, black)" stroke-width="2"/>
<path id="Vector_5" d="M1 25.5C1 27.6659 1.84285 29.7432 3.34315 31.2747C4.84344 32.8063 6.87827 33.6667 9 33.6667H17V17.3333H9C6.87827 17.3333 4.84344 18.1937 3.34315 19.7253C1.84285 21.2568 1 23.3341 1 25.5H1Z" stroke="var(--stroke-0, black)" stroke-width="2"/>
</g>
</svg>
