<svg width="93" height="93" viewBox="0 0 93 93" fill="none" xmlns="http://www.w3.org/2000/svg">
<path fill-rule="evenodd" clip-rule="evenodd" d="M81.9177 1.60889C86.7179 1.60889 90.6091 5.50016 90.6091 10.3003V81.9175C90.6091 86.7176 86.7179 90.6089 81.9177 90.6089H10.3005C5.50041 90.6089 1.60913 86.7176 1.60913 81.9175V10.3003C1.60913 5.50016 5.50041 1.60889 10.3005 1.60889H81.9177ZM71.8552 42.98C69.7877 42.98 67.829 43.2019 65.9792 43.646C64.1294 44.0901 62.5012 44.7834 61.0955 45.7261C59.69 46.6689 58.5795 47.8702 57.7634 49.3296C56.9474 50.7888 56.5389 52.5337 56.5388 54.564C56.5388 57.1563 57.2868 59.3686 58.783 61.1997C60.2791 63.0306 62.5514 64.581 65.5984 65.8501C66.7952 66.3395 67.9104 66.8201 68.9441 67.2915C69.9778 67.7629 70.8713 68.2517 71.6238 68.7593C72.3765 69.2669 72.9706 69.8201 73.406 70.4185C73.8411 71.0165 74.0583 71.6962 74.0583 72.4575C74.0583 73.0195 73.9232 73.5415 73.6511 74.022C73.3791 74.5023 72.9658 74.9185 72.4128 75.272C71.8597 75.6255 71.1706 75.9027 70.3455 76.1021C69.5201 76.3016 68.5544 76.4009 67.448 76.4009C65.5618 76.4009 63.6936 76.0705 61.8435 75.4087C59.9936 74.7471 58.2797 73.7537 56.7019 72.4302V81.1323C58.1165 81.8575 59.7899 82.4016 61.7214 82.7642C63.653 83.1268 65.6887 83.3081 67.8289 83.3081C69.9146 83.3081 71.896 83.1084 73.7732 82.7095C75.6503 82.3107 77.2961 81.6533 78.7107 80.7378C80.1251 79.8225 81.245 78.6262 82.0701 77.1489C82.8952 75.6714 83.3083 73.8448 83.3083 71.6694C83.3083 70.0921 83.0729 68.7094 82.6013 67.522C82.1297 66.3346 81.449 65.2786 80.5603 64.354C79.6717 63.4295 78.6062 62.5999 77.364 61.8657C76.1217 61.1315 74.7206 60.4382 73.1609 59.7856C72.0183 59.3142 70.9935 58.8567 70.0867 58.4126C69.1799 57.9683 68.409 57.5154 67.7742 57.0532C67.1394 56.5909 66.6499 56.101 66.3054 55.5845C65.961 55.0678 65.7889 54.4831 65.7888 53.8306C65.7888 53.2325 65.9425 52.6928 66.2507 52.2124C66.559 51.732 66.9944 51.3196 67.5564 50.9751C68.1186 50.6308 68.8078 50.3627 69.6238 50.1724C70.44 49.982 71.347 49.8872 72.3445 49.8872C73.0698 49.8872 73.8363 49.9417 74.6433 50.0503C75.4504 50.1591 76.2626 50.3267 77.0789 50.5532C77.8948 50.7799 78.688 51.0654 79.4587 51.4097C80.2295 51.7542 80.9416 52.1536 81.5945 52.6069V44.4761C80.2707 43.9685 78.8243 43.5919 77.2556 43.3472C75.6868 43.1024 73.8864 42.98 71.8552 42.98ZM22.1208 50.9907H33.2292V82.7866H42.073V50.9907H53.2361V43.8491H22.1208V50.9907Z" stroke="black" stroke-width="3.21818" stroke-miterlimit="10"/>
</svg>
