<svg preserveAspectRatio="none" width="100%" height="100%" overflow="visible" style="display: block;" viewBox="0 0 54.1016 49.1446" fill="none" xmlns="http://www.w3.org/2000/svg">
<g id="Sketch Flat Logo">
<path id="Polygon" fill-rule="evenodd" clip-rule="evenodd" d="M27.0508 48.1446L1.00001 17.875L12.2852 2.58206L27.0508 1.00003L41.8164 2.58206L53.1016 17.875L27.0508 48.1446Z" stroke="var(--stroke-0, black)" stroke-width="2" stroke-linecap="round" stroke-linejoin="round"/>
<path id="Polygon_2" fill-rule="evenodd" clip-rule="evenodd" d="M27.0508 48.1446L1.00001 17.875L53.1016 17.875L27.0508 48.1446Z" stroke="var(--stroke-0, black)" stroke-width="2" stroke-linecap="round" stroke-linejoin="round"/>
<path id="Polygon_3" fill-rule="evenodd" clip-rule="evenodd" d="M27.0508 48.1446L11.5469 17.875L42.5547 17.875L27.0508 48.1446Z" stroke="var(--stroke-0, black)" stroke-width="2" stroke-linecap="round" stroke-linejoin="round"/>
<path id="Polygon_4" fill-rule="evenodd" clip-rule="evenodd" d="M27.0508 1.00003L11.5469 17.875L42.5547 17.875L27.0508 1.00003Z" stroke="var(--stroke-0, black)" stroke-width="2" stroke-linecap="round" stroke-linejoin="round"/>
<path id="Polygon_5" fill-rule="evenodd" clip-rule="evenodd" d="M12.2852 2.58206L6.48439 10.2813L1.00001 17.875L11.6524 17.875L12.2852 2.58206Z" stroke="var(--stroke-0, black)" stroke-width="2" stroke-linecap="round" stroke-linejoin="round"/>
<path id="Polygon_6" fill-rule="evenodd" clip-rule="evenodd" d="M41.8164 2.58206L47.6172 10.2813L53.1016 17.875L42.4492 17.875L41.8164 2.58206Z" stroke="var(--stroke-0, black)" stroke-width="2" stroke-linecap="round" stroke-linejoin="round"/>
<path id="Polygon_7" fill-rule="evenodd" clip-rule="evenodd" d="M12.2852 2.58206L11.5469 17.875L27.0508 1.00003L12.2852 2.58206Z" stroke="var(--stroke-0, black)" stroke-width="2" stroke-linecap="round" stroke-linejoin="round"/>
<path id="Polygon_8" fill-rule="evenodd" clip-rule="evenodd" d="M41.8164 2.58206L42.5547 17.875L27.0508 1.00003L41.8164 2.58206Z" stroke="var(--stroke-0, black)" stroke-width="2" stroke-linecap="round" stroke-linejoin="round"/>
</g>
</svg>
