<svg width="54" height="42" viewBox="0 0 54 42" fill="none" xmlns="http://www.w3.org/2000/svg">
<path d="M18.0575 3.27377C18.9929 2.69759 20.1948 3.02445 21.4276 3.75033C22.6979 4.49826 24.1966 5.78069 25.8778 7.49838C26.15 7.77645 26.1731 8.20441 25.9521 8.50912C25.9488 8.52802 25.944 8.55744 25.9355 8.5892C25.9264 8.62281 25.9061 8.68699 25.8632 8.75521C25.8169 8.82883 25.7319 8.92485 25.5917 8.97592C25.4534 9.02629 25.3276 9.00888 25.245 8.98373C25.1542 8.95608 25.0879 8.90729 25.0761 8.89877C25.05 8.88005 25.0257 8.86046 25.0077 8.84506C24.9708 8.81349 24.9319 8.77697 24.8993 8.74545C24.8333 8.68164 24.7692 8.61473 24.7538 8.59896C23.2021 7.01359 21.8597 5.87574 20.8007 5.21322C20.2701 4.88131 19.8336 4.68363 19.494 4.59896C19.1509 4.51342 18.9716 4.55789 18.8827 4.61263C18.8033 4.66157 18.7095 4.76894 18.6571 5.02963C18.6037 5.29577 18.6057 5.67339 18.6845 6.17123C18.8417 7.16463 19.2853 8.51149 19.9921 10.1312C21.4019 13.3619 23.8132 17.5742 26.8769 22.0228C29.9922 26.5464 33.1035 30.336 35.6806 32.8304C36.972 34.0804 38.1089 34.9857 39.0302 35.4994C39.4911 35.7563 39.8749 35.9026 40.1806 35.9554C40.4827 36.0076 40.6734 35.9633 40.7978 35.8871C40.9078 35.8196 41.017 35.6872 41.08 35.4085C41.1447 35.1223 41.1505 34.7181 41.0692 34.1829C40.9068 33.1139 40.4177 31.6464 39.5849 29.8294C39.4039 29.4345 39.5777 28.9675 39.9726 28.7865L40.0468 28.7562C40.424 28.6276 40.8447 28.8032 41.0146 29.1732C41.9258 31.1612 42.5027 32.8577 42.661 34.1898C42.8174 35.5053 42.5785 36.6414 41.62 37.2288C40.7643 37.7534 39.6843 37.5549 38.5917 37.016C37.4774 36.4662 36.2029 35.4936 34.831 34.2025C32.0814 31.6148 28.8455 27.6556 25.581 22.9154C22.3505 18.2246 19.8179 13.8246 18.3896 10.3988C17.6774 8.69064 17.226 7.19257 17.1142 6.00619C17.0052 4.85068 17.2066 3.79818 18.0575 3.27377Z" fill="black"/>
<path d="M28.2898 0.000803708C29.2887 -0.027632 30.1015 0.701249 30.7605 1.74787C31.4338 2.81726 32.0446 4.36692 32.6062 6.30842C32.6258 6.43757 32.582 6.65286 32.5378 6.73127C32.5058 6.77288 32.4459 6.83158 32.4206 6.85139C32.3768 6.8833 32.3374 6.90089 32.3279 6.9051C32.301 6.91696 32.2784 6.92427 32.2741 6.92561C32.2601 6.92998 32.2486 6.93273 32.2458 6.93342C32.2378 6.93544 32.2304 6.93663 32.2273 6.93733C32.2196 6.93902 32.2101 6.9415 32.2019 6.94319C32.1847 6.9467 32.1609 6.95065 32.1345 6.95588C32.0807 6.96651 32.0098 6.98125 31.9392 6.99494C31.8683 7.0087 31.797 7.02182 31.7439 7.03205C31.7176 7.03712 31.6958 7.04178 31.6804 7.04475C31.6726 7.04624 31.666 7.04688 31.6618 7.04768C31.6598 7.04806 31.658 7.04845 31.657 7.04866L31.656 7.04963L31.2087 7.13557L31.0808 6.69807C30.5695 4.94229 30.0337 3.6091 29.5134 2.72932C29.2528 2.28879 29.0097 1.98394 28.7937 1.7967C28.5777 1.60957 28.4267 1.5705 28.3347 1.57307C28.2414 1.57573 28.107 1.62159 27.9314 1.82112C27.752 2.02487 27.5642 2.35248 27.3835 2.82307C27.023 3.762 26.7336 5.15002 26.5359 6.90608C26.1414 10.4088 26.1236 15.2627 26.5525 20.6473C26.9886 26.1225 27.7876 30.9603 28.7722 34.409C29.2656 36.1373 29.7985 37.4899 30.3396 38.3953C30.6102 38.8483 30.8699 39.1665 31.1081 39.3651C31.3436 39.5612 31.5308 39.6189 31.6765 39.6151C31.8179 39.6112 32.0003 39.5392 32.2195 39.2752C32.4428 39.006 32.6686 38.5766 32.8767 37.9656C33.2916 36.747 33.5958 34.9297 33.7478 32.578L33.78 32.0789L34.279 32.1112H34.282C34.2838 32.1113 34.2872 32.1119 34.2907 32.1121C34.2977 32.1126 34.3077 32.1133 34.32 32.1141C34.3453 32.1157 34.3807 32.1184 34.4197 32.1209C34.4974 32.1259 34.5908 32.1315 34.653 32.1356C34.9132 32.1524 35.0466 32.3364 35.0876 32.4031C35.1257 32.4652 35.1469 32.5269 35.1599 32.5701C35.2137 32.6304 35.2526 32.7008 35.2751 32.7762C35.2992 32.8569 35.3014 32.9299 35.2976 32.9842C35.1229 35.4404 34.7844 37.4235 34.2468 38.8123C33.7198 40.1738 32.9177 41.1558 31.7175 41.1873C30.714 41.2137 29.8777 40.5023 29.2009 39.4891C28.5107 38.4558 27.8938 36.9768 27.3513 35.1727C26.2639 31.5569 25.4411 26.5099 24.9841 20.7723C24.5319 15.095 24.5385 10.0187 25.0144 6.33772C25.2517 4.5022 25.6098 2.97879 26.1062 1.89533C26.5896 0.840041 27.2904 0.0293027 28.2898 0.000803708Z" fill="black"/>
<path d="M27.191 11.3232C33.1208 9.16491 38.8678 8.10838 43.401 8.17095C45.6642 8.20221 47.6778 8.5137 49.2735 9.14397C50.8672 9.77352 52.1479 10.7674 52.728 12.2192C52.8284 12.4705 52.8231 12.7521 52.7125 12.9991C52.602 13.246 52.3952 13.4378 52.141 13.5303L9.496 29.0518C9.24187 29.1443 8.96098 29.1299 8.71764 29.0119C8.4742 28.8937 8.28822 28.6818 8.2036 28.4248C7.71467 26.9396 8.05776 25.3549 8.87406 23.8482C9.69137 22.3396 11.0335 20.8068 12.7472 19.328C16.1797 16.3662 21.2612 13.4814 27.191 11.3232ZM27.875 13.2026C22.1146 15.2992 17.2609 18.0754 14.054 20.8425C12.448 22.2283 11.2943 23.5778 10.6319 24.8005C10.2379 25.5278 10.0371 26.1748 9.99117 26.7432L50.2787 12.0798C49.8781 11.6739 49.3076 11.3077 48.5381 11.0037C47.2449 10.493 45.4941 10.2004 43.3735 10.1711C39.1382 10.1126 33.6355 11.1059 27.875 13.2026Z" fill="black"/>
<path d="M51.4565 11.6506C51.7118 11.5577 51.9937 11.5731 52.2377 11.6925C52.4818 11.8121 52.6671 12.0256 52.7503 12.2844C53.2277 13.769 52.8788 15.3512 52.059 16.855C51.238 18.3611 49.8942 19.8905 48.1807 21.3667C44.7486 24.3234 39.6745 27.2021 33.7544 29.3568C27.8343 31.5116 22.0969 32.5679 17.5672 32.5091C15.3058 32.4797 13.2932 32.1718 11.6963 31.5459C10.1016 30.9208 8.81732 29.933 8.2287 28.4889C8.12617 28.2373 8.13004 27.9548 8.24007 27.7064C8.35024 27.4579 8.55703 27.2647 8.81243 27.1717L51.4565 11.6506ZM10.6848 28.6186C11.0878 29.0204 11.6584 29.3833 12.4258 29.6841C13.7217 30.1921 15.4735 30.482 17.5929 30.5096C21.8256 30.5646 27.3194 29.5706 33.0704 27.4775C38.8213 25.3843 43.6687 22.6143 46.8757 19.8515C48.4817 18.468 49.6372 17.1199 50.3034 15.8977C50.6979 15.1741 50.9018 14.5294 50.9521 13.9625L10.6848 28.6186Z" fill="black"/>
<path d="M25.7016 7.23019C31.6954 5.04868 37.676 4.44635 42.5323 5.28099C47.3577 6.11033 51.2837 8.4117 52.7348 12.2343C52.8297 12.4845 52.8207 12.7631 52.7092 13.0064C52.5978 13.2495 52.3931 13.4374 52.1418 13.5289L9.49498 29.051C9.24362 29.1425 8.96613 29.1302 8.72446 29.0156C8.48272 28.9008 8.29666 28.6932 8.20859 28.4405C6.86298 24.5795 8.39207 20.2927 11.5555 16.5556C14.7393 12.7947 19.7078 9.41173 25.7016 7.23019ZM26.3856 9.10958C20.6597 11.1936 16.003 14.3969 13.0817 17.8479C10.4646 20.9395 9.34099 24.0914 9.83872 26.7976L50.43 12.0236C49.0718 9.6307 46.1857 7.93808 42.1938 7.25195C37.7378 6.48612 32.1115 7.02558 26.3856 9.10958Z" fill="black"/>
<path d="M51.4584 11.6499C51.7102 11.5584 51.9886 11.5716 52.2305 11.6869C52.4724 11.8023 52.6574 12.0102 52.7449 12.2635C54.0769 16.1228 52.5439 20.404 49.38 24.1363C46.1959 27.8924 41.2315 31.2704 35.2441 33.4497C29.2568 35.6288 23.2824 36.2322 18.4289 35.4015C13.6063 34.5761 9.67979 32.2819 8.21958 28.4694C8.12373 28.2191 8.13262 27.9406 8.24388 27.6967C8.35517 27.4528 8.56051 27.2634 8.81243 27.1717L51.4584 11.6499ZM10.5271 28.6761C11.8916 31.0613 14.7789 32.7471 18.767 33.4297C23.2208 34.1919 28.8405 33.652 34.5601 31.5703C40.2798 29.4885 44.9325 26.2896 47.8544 22.8427C50.4707 19.7563 51.5989 16.609 51.111 13.9047L10.5271 28.6761Z" fill="black"/>
<path d="M16.8596 34.3059C17.3808 34.1232 17.6559 33.5521 17.4732 33.0309C17.2904 32.5099 16.7195 32.2356 16.1985 32.4182L7.10201 35.6074L7.28692 29.7339L14.3072 27.3076C14.8292 27.1272 15.1065 26.5578 14.9262 26.0358C14.7458 25.5139 14.1763 25.2365 13.6544 25.4169L5.9822 28.068C5.59018 28.2035 5.323 28.5674 5.30991 28.9819L5.05697 37.0013C5.0466 37.3308 5.20011 37.6447 5.46604 37.8397C5.73192 38.0344 6.0769 38.086 6.38793 37.977L16.8596 34.3059Z" fill="black"/>
<path d="M10.5087 18.5494C11.0266 18.3576 11.602 18.6218 11.7939 19.1396C11.9858 19.6574 11.7215 20.2328 11.2038 20.4248L2.7242 23.5672L7.0938 28.4544C7.46171 28.866 7.42679 29.4981 7.01529 29.8662C6.60358 30.2343 5.97128 30.1984 5.60315 29.7867L0.254644 23.8061C0.0342102 23.5596 -0.0501856 23.2198 0.0293562 22.8988C0.109002 22.5777 0.342739 22.3171 0.652899 22.2021L10.5087 18.5494Z" fill="black"/>
</svg>
