<svg width="86" height="21" viewBox="0 0 86 21" fill="none" xmlns="http://www.w3.org/2000/svg">
<path fill-rule="evenodd" clip-rule="evenodd" d="M12.0622 12.0129V17.4297C10.5092 17.6727 8.14208 17.7265 7.33535 17.7265C3.7666 17.7265 3.37553 16.7326 3.37553 14.6218C3.37553 12.6465 4.10077 12.0126 6.35924 12.0126L12.0622 12.0129ZM7.16109 0C6.05838 0 4.55461 0.029255 2.68362 0.258594L2.59905 0.277662C2.05397 0.435691 1.77797 0.800596 1.77797 1.36219V2.14215C1.77797 2.80718 2.18415 3.22041 2.83814 3.22041H7.16135C10.6422 3.22041 12.0622 4.18164 12.0622 6.53798V8.82797H6.35924C1.90201 8.82797 0 10.5605 0 14.6215C0 19.1477 1.96863 20.9114 7.02168 20.9114C9.06848 20.9114 12.8361 20.7491 14.2286 20.3163C15.4029 19.9841 15.4029 19.0698 15.4029 18.7695V6.32562C15.4029 2.06927 12.7067 0 7.16109 0Z" fill="#272727"/>
<path fill-rule="evenodd" clip-rule="evenodd" d="M35.2804 19.2092L30.7204 12.8306L28.7146 15.649L32.3208 20.5547L32.4146 20.5965C32.5577 20.662 32.7126 20.6965 32.8695 20.6978H34.4032C34.7738 20.6978 35.0882 20.5301 35.2663 20.237C35.4488 19.9367 35.4539 19.5624 35.2804 19.2092Z" fill="black"/>
<path fill-rule="evenodd" clip-rule="evenodd" d="M22.2438 0.696939L22.2417 0.693805C21.8873 0.212402 21.4158 0.212402 21.2608 0.212402H19.7265C19.3334 0.212402 19.0115 0.396553 18.8434 0.717052C18.6704 1.04539 18.7071 1.43981 18.9464 1.80524L24.6301 9.83627L18.0943 19.1279C17.866 19.4774 17.834 19.8658 18.0064 20.1939C18.1756 20.5144 18.4977 20.698 18.89 20.698H20.4584C20.8618 20.698 21.2164 20.4846 21.3938 20.1484L28.7094 9.87336L22.2438 0.696939Z" fill="black"/>
<path fill-rule="evenodd" clip-rule="evenodd" d="M34.5004 0.755381C34.3438 0.415813 34.0079 0.213379 33.6019 0.213379H32.0333C31.5777 0.213379 31.2371 0.400402 31.0577 0.737096L28.7329 4.19938L30.7682 7.03633L34.3215 1.84095C34.7116 1.35798 34.5765 0.920724 34.5004 0.755381Z" fill="black"/>
<path fill-rule="evenodd" clip-rule="evenodd" d="M78.142 0.000488281C74.6286 0.000488281 72.6438 0.6919 71.5042 2.31216C70.3135 4.00451 70.0742 6.67586 70.0742 10.4383C70.0742 17.8241 71.1954 20.9116 78.142 20.9116C78.9764 20.9116 81.8283 20.8954 83.4933 20.6882C84.1411 20.5788 84.4312 20.0731 84.4312 19.6207V18.8049C84.4312 18.1702 83.9607 17.6912 83.3362 17.6912H78.1417C74.2224 17.6912 73.5156 16.7495 73.4151 11.3958V9.66275C73.4484 4.18422 74.1552 3.22089 78.142 3.22089C81.8181 3.22089 82.5231 4.07582 82.6453 8.89898H76.804V12.1552H84.4869C86.0001 12.1552 86.0001 11.0764 86.0001 10.7222V9.6826C85.8904 2.17215 84.1276 0.000488281 78.142 0.000488281ZM68.0256 0.287554L67.9421 0.26509C67.2266 0.111762 65.2713 0.000488281 64.3018 0.000488281C60.8712 0.000488281 59.0581 1.46455 59.0581 4.23437V19.656C59.0581 20.2907 59.4937 20.7342 60.1183 20.7342H61.3386C61.9631 20.7342 62.399 20.2909 62.399 19.656V4.51752C62.399 3.83394 62.5687 3.22089 64.6157 3.22089L67.6468 3.21828C67.9436 3.25433 68.2268 3.17074 68.4449 2.98241C68.6829 2.77789 68.8139 2.47933 68.8139 2.14264V1.36242C68.8139 0.850452 68.5263 0.458643 68.0256 0.287554ZM53.3744 0.248895H52.154C51.5298 0.248895 51.0936 0.692161 51.0936 1.32715V17.6914H46.0185C42.8792 17.6914 41.6056 17.4879 41.6056 12.3882V1.32715C41.6056 0.692422 41.1694 0.248895 40.5452 0.248895H39.3594C38.7352 0.248895 38.2644 0.712274 38.2644 1.32715V12.3882C38.2644 19.6361 40.8435 20.9116 46.2625 20.9116C48.2119 20.9116 50.8817 20.9116 53.4277 20.5461L53.4866 20.5341C54.1155 20.374 54.4345 20.007 54.4345 19.4433V1.32715C54.4345 0.692422 53.9984 0.248895 53.3744 0.248895Z" fill="#272727"/>
</svg>
