<svg preserveAspectRatio="none" width="100%" height="100%" overflow="visible" style="display: block;" viewBox="0 0 86 20.9115" fill="none" xmlns="http://www.w3.org/2000/svg">
<g id="Group">
<path id="Vector" fill-rule="evenodd" clip-rule="evenodd" d="M78.1419 0.00043726C74.6285 0.00043726 72.6437 0.691849 71.5041 2.31211C70.3134 4.00446 70.0741 6.67581 70.0741 10.4382C70.0741 17.8241 71.1953 20.9115 78.1419 20.9115C78.9763 20.9115 81.8282 20.8953 83.4932 20.6882C84.1411 20.5787 84.4311 20.0731 84.4311 19.6206V18.8049C84.4311 18.1702 83.9606 17.6911 83.3361 17.6911H78.1416C74.2223 17.6911 73.5155 16.7495 73.415 11.3958V9.6627C73.4484 4.18417 74.1551 3.22084 78.1419 3.22084C81.818 3.22084 82.523 4.07577 82.6452 8.89893H76.8039V12.1551H84.4868C86 12.1551 86 11.0763 86 10.7221V9.68255C85.8903 2.1721 84.1275 0.00043726 78.1419 0.00043726V0.00043726ZM68.0255 0.287503L67.942 0.265039C67.2265 0.111711 65.2712 0.00043726 64.3017 0.00043726C60.8711 0.00043726 59.058 1.4645 59.058 4.23432V19.6559C59.058 20.2906 59.4936 20.7342 60.1182 20.7342H61.3385C61.963 20.7342 62.3989 20.2909 62.3989 19.6559V4.51747C62.3989 3.83389 62.5686 3.22084 64.6156 3.22084L67.6467 3.21823C67.9435 3.25428 68.2267 3.17069 68.4448 2.98236C68.6828 2.77784 68.8138 2.47928 68.8138 2.14259V1.36236C68.8138 0.850401 68.5262 0.458592 68.0255 0.287503V0.287503ZM53.3743 0.248844H52.1539C51.5297 0.248844 51.0935 0.69211 51.0935 1.3271V17.6914H46.0184C42.8791 17.6914 41.6055 17.4879 41.6055 12.3881V1.3271C41.6055 0.692371 41.1693 0.248844 40.5451 0.248844H39.3593C38.7351 0.248844 38.2643 0.712223 38.2643 1.3271V12.3881C38.2643 19.6361 40.8434 20.9115 46.2624 20.9115C48.2118 20.9115 50.8816 20.9115 53.4276 20.5461L53.4865 20.5341C54.1154 20.374 54.4344 20.007 54.4344 19.4433V1.3271C54.4344 0.692371 53.9983 0.248844 53.3743 0.248844" fill="var(--fill-0, #272727)"/>
<path id="Vector_2" fill-rule="evenodd" clip-rule="evenodd" d="M34.5004 0.755213C34.3438 0.415645 34.0079 0.213211 33.602 0.213211H32.0334C31.5777 0.213211 31.2371 0.400234 31.0577 0.736929L28.7329 4.19921L30.7682 7.03617L34.3215 1.84078C34.7116 1.35781 34.5765 0.920556 34.5004 0.755213" fill="var(--fill-0, black)"/>
<path id="Vector_3" fill-rule="evenodd" clip-rule="evenodd" d="M22.2438 0.697008L22.2418 0.693874C21.8874 0.212471 21.4158 0.212471 21.2608 0.212471H19.7265C19.3334 0.212471 19.0115 0.396622 18.8434 0.717121C18.6704 1.04546 18.7071 1.43988 18.9464 1.8053L24.6302 9.83634L18.0944 19.128C17.866 19.4774 17.834 19.8659 18.0065 20.1939C18.1756 20.5144 18.4977 20.6981 18.8901 20.6981H20.4584C20.8618 20.6981 21.2164 20.4847 21.3938 20.1485L28.7094 9.87343L22.2438 0.697008Z" fill="var(--fill-0, black)"/>
<path id="Vector_4" fill-rule="evenodd" clip-rule="evenodd" d="M35.2804 19.2093L30.7204 12.8307L28.7146 15.6491L32.3208 20.5548L32.4146 20.5966C32.5577 20.6622 32.7126 20.6967 32.8695 20.698H34.4032C34.7738 20.698 35.0882 20.5303 35.2663 20.2372C35.4488 19.9368 35.4539 19.5625 35.2804 19.2093" fill="var(--fill-0, black)"/>
<path id="Vector_5" fill-rule="evenodd" clip-rule="evenodd" d="M12.0622 12.0129V17.4297C10.5092 17.6727 8.14208 17.7265 7.33535 17.7265C3.7666 17.7265 3.37553 16.7326 3.37553 14.6218C3.37553 12.6465 4.10077 12.0126 6.35924 12.0126L12.0622 12.0129ZM7.16109 0C6.05838 0 4.55461 0.029255 2.68362 0.258594L2.59905 0.277662C2.05397 0.435691 1.77797 0.800596 1.77797 1.36219V2.14215C1.77797 2.80718 2.18415 3.22041 2.83814 3.22041H7.16135C10.6422 3.22041 12.0622 4.18164 12.0622 6.53798V8.82797H6.35924C1.90201 8.82797 0 10.5605 0 14.6215C0 19.1477 1.96863 20.9113 7.02168 20.9113C9.06848 20.9113 12.8361 20.7491 14.2286 20.3163C15.4029 19.9841 15.4029 19.0698 15.4029 18.7695V6.32562C15.4029 2.06927 12.7069 0 7.16135 0H7.16109Z" fill="var(--fill-0, #272727)"/>
</g>
</svg>
