<svg width="47" height="47" viewBox="0 0 47 47" fill="none" xmlns="http://www.w3.org/2000/svg">
<path d="M42.1992 44.4062V46.4062H4.20703V44.4062H42.1992ZM44.4062 42.1992V4.20703C44.4062 2.9883 43.4179 2 42.1992 2H4.20703C2.9883 2 2 2.9883 2 4.20703V42.1992C2 43.4179 2.9883 44.4062 4.20703 44.4062V46.4062C1.88373 46.4062 0 44.5225 0 42.1992V4.20703C0 1.88373 1.88373 0 4.20703 0H42.1992C44.5225 0 46.4062 1.88373 46.4062 4.20703V42.1992C46.4062 44.5225 44.5225 46.4062 42.1992 46.4062V44.4062C43.4179 44.4062 44.4062 43.4179 44.4062 42.1992ZM34.8311 31.498C34.8311 31.1219 34.9152 30.7039 35.04 30.2012L36.375 25.3955C36.7084 24.2671 36.834 23.2661 36.834 22.3467C36.834 18.7516 34.665 16.8752 32.0381 16.875C29.5778 16.875 27.0749 19.1 25.8242 21.4414L26.7412 17.2383H19.6113L18.6094 20.9404H21.9463L19.8916 29.1855C18.2786 32.7798 15.3166 32.8393 14.9434 32.7559C14.3327 32.6178 13.9414 32.3854 13.9414 31.5898C13.9414 31.1309 14.0249 30.4716 14.2334 29.6768L17.3613 17.2383H9.43848L8.4375 20.9404H11.7314L9.60547 29.6504C9.43895 30.3611 9.35449 31.1288 9.35449 31.7549C9.35457 34.2217 10.6896 35.8594 13.5254 35.8594C15.8772 35.8592 17.7836 34.4589 19.1562 32.1982L18.3184 35.5713H22.9883L25.6572 24.8389C26.3243 22.1216 27.6171 20.7111 29.5771 20.7109C31.12 20.7109 32.079 21.6728 32.0791 23.2607C32.0791 23.7209 32.0377 24.2221 31.8711 24.7656L30.4941 29.6992C30.2857 30.4098 30.2031 31.121 30.2031 31.7891C30.2031 34.131 31.5787 35.8437 34.4561 35.8438C36.9164 35.8438 38.8766 34.2564 39.9609 30.4521L38.126 29.7412C37.2084 32.2899 36.4164 32.7509 35.791 32.751C35.1655 32.751 34.8311 32.3336 34.8311 31.498ZM16.1729 30.1641L16.1709 30.1748L16.168 30.1846C16.1346 30.3118 16.1069 30.4325 16.082 30.5459C16.0937 30.5407 16.1064 30.5376 16.1182 30.5322C16.6586 30.2842 17.4052 29.7498 17.998 28.5107L19.3867 22.9404H17.9893L16.1729 30.1641ZM18.2812 11.835C18.2811 10.2405 16.9992 9.02348 15.4688 9.02344C13.9383 9.02344 12.6564 10.2405 12.6562 11.835C12.6562 13.4306 13.9382 14.6484 15.4688 14.6484C16.9993 14.6484 18.2812 13.4306 18.2812 11.835ZM20.2812 11.835C20.2812 13.1856 19.7406 14.378 18.8789 15.2383H29.2246L29.1602 15.5322C30.046 15.1296 31.0171 14.875 32.0381 14.875C33.8378 14.8751 35.5837 15.5264 36.873 16.8867C38.1618 18.2464 38.834 20.1421 38.834 22.3467C38.834 23.4482 38.6818 24.6292 38.3008 25.9297L38.3018 25.9307L37.8662 27.4951L42.3848 29.2461L41.8848 31C41.2818 33.1153 40.376 34.8334 39.0908 36.0352C37.7626 37.2769 36.1587 37.8438 34.4561 37.8438C32.6153 37.8437 30.985 37.2861 29.8193 36.0918C28.6649 34.9089 28.2031 33.3438 28.2031 31.7891C28.2031 30.966 28.3043 30.0712 28.5684 29.1611L29.9443 24.2275L29.9512 24.2041L29.959 24.1797C30.0492 23.8853 30.0791 23.5954 30.0791 23.2607C30.0791 23.0637 30.0491 22.9412 30.0254 22.876C30.0031 22.8147 29.9841 22.7957 29.9824 22.7939C29.9807 22.7922 29.9661 22.7772 29.917 22.7588C29.8633 22.7387 29.7558 22.7109 29.5771 22.7109C29.141 22.711 28.8573 22.8417 28.5889 23.127C28.2628 23.4735 27.8888 24.1377 27.5996 25.3154L27.5977 25.3213L24.5518 37.5713H15.7607L15.7715 37.5244C15.0712 37.7405 14.3224 37.8593 13.5254 37.8594C11.7218 37.8594 10.0957 37.3292 8.93262 36.1162C7.78452 34.9187 7.35454 33.3331 7.35449 31.7549C7.35449 30.972 7.45741 30.0514 7.6582 29.1943L7.66016 29.1855L7.66211 29.1758L9.18359 22.9404H5.8252L7.90723 15.2383H12.0586C11.1969 14.378 10.6562 13.1856 10.6562 11.835C10.6565 9.10577 12.8643 7.02344 15.4688 7.02344C18.0731 7.02352 20.281 9.10574 20.2812 11.835Z" fill="black"/>
</svg>
